<svg xmlns="http://www.w3.org/2000/svg" width="397" height="60" viewBox="0 0 397 60" fill="none"><g clip-path="url(#clip0_2052_3062)"><path d="M41.0072 47.5133C41.2682 47.1987 41.6588 46.9376 41.9181 46.6457C44.2731 43.9814 46.3331 39.6922 46.6816 36.0825C46.9523 33.2722 46.3153 30.3841 46.9685 27.6095C47.0252 27.3646 46.9507 27.0598 47.0155 26.8781C47.0414 26.8019 47.8697 25.8257 47.9864 25.7398C48.3802 25.4511 49.5683 24.9776 50.0075 24.9873C50.0804 24.9873 51.2555 25.2581 51.4257 25.3035C51.5699 25.3408 52.9816 26.9235 53.0141 27.1538L53.0108 37.0635C52.5683 37.7073 52.8034 38.4014 52.6753 38.9722C52.6445 39.1068 52.4435 39.7522 52.3463 40.1284C51.1631 44.7062 48.0285 50.0787 44.4482 53.1825C28.8059 66.736 4.46477 58.9181 0.805013 38.3608C-0.0151093 33.7571 -0.32306 26.1095 0.482475 21.4798C3.05954 6.67922 15.8833 -1.14511 30.5612 0.155434C34.2339 0.48138 34.0313 5.87489 30.8643 6.30949C28.3472 6.65489 25.3406 6.23976 22.6193 6.65489C20.4604 6.98408 18.3209 7.96679 16.316 9.02571C6.48914 14.2149 5.88945 23.0317 6.4778 33.4927C6.75009 38.3154 8.2785 43.1803 11.5217 46.7333C11.6984 46.9262 11.8702 47.2571 12.1571 47.1889V40.4592C12.1571 40.4365 12.3807 40.2938 12.4423 40.0895C13.867 35.3673 19.9709 36.136 20.9175 40.7738L20.9029 52.756L22.3681 53.0268V34.9457C22.3681 34.9003 22.7003 34.1998 22.7522 34.1073C22.8883 33.8657 23.9937 32.7776 24.2612 32.6235C25.8333 31.7187 27.5773 31.6716 29.0928 32.7598C29.1803 32.823 30.3667 34.0262 30.4137 34.1089C30.4656 34.2014 30.7978 34.9003 30.7978 34.9473V53.1906L32.2582 53.0284L32.2484 32.1808C32.6326 29.7971 34.1107 28.3084 36.5792 28.2776C37.8013 28.263 38.8499 28.5289 39.7106 29.4354C39.8224 29.5522 40.6636 30.6841 40.6798 30.7652C40.7301 31.0165 40.6004 31.4446 40.7252 31.5938C40.7852 31.6652 41.0105 31.6084 41.0105 31.623V47.5149L41.0072 47.5133Z" fill="#0693e3"></path><path d="M49.1124 21.4471C51.0244 21.4471 52.5744 19.8963 52.5744 17.9833C52.5744 16.0703 51.0244 14.5195 49.1124 14.5195C47.2004 14.5195 45.6504 16.0703 45.6504 17.9833C45.6504 19.8963 47.2004 21.4471 49.1124 21.4471Z" fill="#0693e3"></path><path d="M50.8383 4.43282C51.7832 5.32309 51.7913 7.28687 50.7718 8.11066C49.7523 8.93444 48.762 8.83066 47.7182 8.27606C46.454 7.60471 46.2352 5.19336 47.4557 4.38741C47.8041 4.15714 48.7977 3.69011 49.1883 3.70957C49.4476 3.72417 50.634 4.23985 50.8366 4.4312L50.8383 4.43282Z" fill="#0693e3"></path></g><path d="M75.5374 31.9258V2.86833H81.3296L90.285 19.4024H90.3671L99.3225 2.86833H105.115V31.9258H99.3636V13.9593H99.2814L92.1746 26.4417H88.4364L81.3707 13.9184H81.2885V31.9258H75.5374Z" fill="#0693e3"></path><path d="M125.161 32.2941C120.779 32.2941 117.205 30.9026 114.439 28.1197C111.673 25.3094 110.29 21.7352 110.29 17.3971C110.29 13.0589 111.673 9.49835 114.439 6.71538C117.205 3.90513 120.779 2.5 125.161 2.5C129.46 2.5 133.007 3.89148 135.8 6.67445C138.594 9.43014 139.99 13.0043 139.99 17.3971C139.99 21.7898 138.594 25.3776 135.8 28.1606C133.007 30.9163 129.46 32.2941 125.161 32.2941ZM125.161 26.8919C127.68 26.8919 129.775 25.9915 131.446 24.1908C133.116 22.39 133.952 20.1255 133.952 17.3971C133.952 14.6687 133.116 12.4041 131.446 10.6033C129.775 8.80261 127.68 7.90223 125.161 7.90223C122.559 7.90223 120.423 8.81625 118.752 10.6443C117.109 12.4723 116.287 14.7232 116.287 17.3971C116.287 20.0709 117.109 22.3218 118.752 24.1499C120.423 25.9779 122.559 26.8919 125.161 26.8919Z" fill="#0693e3"></path><path d="M145.139 31.9258V2.86833H156.19C159.558 2.86833 162.091 3.75506 163.789 5.52852C165.487 7.2747 166.336 9.60748 166.336 12.5269C166.336 17.056 164.31 19.9754 160.256 21.285L167.569 31.9258H160.708L154.177 21.9808H150.849V31.9258H145.139ZM150.849 16.906H155.039C156.765 16.906 158.079 16.5103 158.983 15.7191C159.914 14.9006 160.38 13.8092 160.38 12.445C160.38 11.0808 159.941 10.0031 159.065 9.21187C158.189 8.39334 156.929 7.98408 155.286 7.98408H150.849V16.906Z" fill="#0693e3"></path><path d="M180.849 32.2941C176.768 32.2941 173.221 30.7526 170.209 27.6695L173.701 23.4132C174.741 24.5864 175.905 25.4868 177.192 26.1143C178.507 26.7418 179.767 27.0556 180.972 27.0556C182.314 27.0556 183.341 26.7828 184.053 26.2371C184.765 25.6641 185.121 24.9138 185.121 23.9862C185.121 22.9766 184.751 22.199 184.012 21.6534C183.3 21.1077 181.985 20.5074 180.068 19.8526C179.027 19.4979 178.137 19.1705 177.398 18.8704C176.686 18.543 175.905 18.1201 175.056 17.6017C174.235 17.0833 173.564 16.5376 173.043 15.9647C172.523 15.3644 172.085 14.6277 171.729 13.7547C171.4 12.8543 171.236 11.8721 171.236 10.808C171.236 8.48884 172.14 6.53803 173.947 4.95556C175.755 3.3458 177.973 2.52728 180.602 2.5C184.162 2.5 187.449 3.72778 190.461 6.18334L187.093 10.5215C184.737 8.61162 182.615 7.65668 180.725 7.65668C179.685 7.65668 178.836 7.91587 178.178 8.43427C177.548 8.95267 177.22 9.66205 177.192 10.5624C177.192 11.4082 177.535 12.0767 178.219 12.5678C178.931 13.0589 180.232 13.6728 182.122 14.4095C185.134 15.5827 187.106 16.4831 188.037 17.1106C190.146 18.5294 191.201 20.5893 191.201 23.2904C191.201 25.3094 190.653 27.0283 189.557 28.4471C188.462 29.8386 187.161 30.8344 185.655 31.4347C184.149 32.0076 182.546 32.2941 180.849 32.2941Z" fill="#0693e3"></path><path d="M195.967 31.9258V2.86833H214.617V7.98408H201.677V14.9824H212.029V20.0163H201.677V26.81H215.48V31.9258H195.967Z" fill="#0693e3"></path><path d="M220.519 31.9258V2.86833H230.172C234.746 2.86833 238.416 4.21889 241.182 6.92001C243.948 9.59384 245.331 13.0998 245.331 17.438C245.331 21.7761 243.975 25.2821 241.264 27.956C238.58 30.6025 234.924 31.9258 230.296 31.9258H220.519ZM226.229 26.81H229.926C232.719 26.81 234.979 25.9233 236.704 24.1499C238.429 22.3764 239.292 20.1391 239.292 17.438C239.292 14.7096 238.443 12.4587 236.745 10.6852C235.047 8.88446 232.884 7.98408 230.254 7.98408H226.229V26.81Z" fill="#0693e3"></path><path d="M73 57.3909L77.9113 44.4764H79.4997L84.4293 57.3909H82.7678L81.5993 54.2441H75.8117L74.6614 57.3909H73ZM76.3229 52.8617H81.1064L78.7146 46.3863H78.6781L76.3229 52.8617Z" fill="#0693e3"></path><path d="M93.8827 57.5C92.0813 57.5 90.5537 56.8331 89.3001 55.4992L90.3225 54.2805C90.7728 54.8383 91.3145 55.2688 91.9474 55.5719C92.5925 55.8751 93.2437 56.0267 93.901 56.0267C94.7043 56.0267 95.3494 55.8508 95.8363 55.4992C96.3231 55.1475 96.5666 54.6625 96.5666 54.044C96.5666 53.3165 96.2075 52.7465 95.4894 52.3342C95.1851 52.1645 94.5765 51.9098 93.6636 51.5703C93.1889 51.4005 92.7994 51.255 92.4951 51.1337C92.203 51.0003 91.8622 50.8185 91.4727 50.5881C91.0954 50.3577 90.7972 50.1212 90.5781 49.8787C90.3712 49.6361 90.1886 49.333 90.0304 48.9692C89.8721 48.6054 89.793 48.2052 89.793 47.7687C89.793 46.8107 90.1703 46.0043 90.925 45.3495C91.6918 44.6826 92.6351 44.3491 93.7549 44.3491C95.2277 44.3491 96.5909 44.8524 97.8446 45.8588L96.877 47.1139C95.818 46.2408 94.7773 45.8043 93.7549 45.8043C93.1098 45.8043 92.5621 45.974 92.1117 46.3136C91.6735 46.641 91.4484 47.1018 91.4362 47.6959C91.4362 47.9991 91.491 48.2598 91.6005 48.4781C91.7222 48.6964 91.9352 48.9025 92.2395 49.0965C92.5438 49.2784 92.8177 49.43 93.0611 49.5513C93.3167 49.6604 93.7001 49.812 94.2113 50.006C95.5259 50.5274 96.384 50.9155 96.7857 51.1701C97.7351 51.8128 98.2159 52.7101 98.228 53.8621C98.228 54.9899 97.802 55.8811 96.95 56.536C96.1101 57.1787 95.0877 57.5 93.8827 57.5Z" fill="#0693e3"></path><path d="M104.382 57.3909V44.4764H112.324V45.9134H105.971V50.2425H111.174V51.6794H105.971V55.9539H112.708V57.3909H104.382Z" fill="#0693e3"></path><path d="M122.599 57.5C120.798 57.5 119.27 56.8331 118.017 55.4992L119.039 54.2805C119.489 54.8383 120.031 55.2688 120.664 55.5719C121.309 55.8751 121.96 56.0267 122.617 56.0267C123.421 56.0267 124.066 55.8508 124.553 55.4992C125.04 55.1475 125.283 54.6625 125.283 54.044C125.283 53.3165 124.924 52.7465 124.206 52.3342C123.902 52.1645 123.293 51.9098 122.38 51.5703C121.905 51.4005 121.516 51.255 121.212 51.1337C120.92 51.0003 120.579 50.8185 120.189 50.5881C119.812 50.3577 119.514 50.1212 119.295 49.8787C119.088 49.6361 118.905 49.333 118.747 48.9692C118.589 48.6054 118.51 48.2052 118.51 47.7687C118.51 46.8107 118.887 46.0043 119.641 45.3495C120.408 44.6826 121.352 44.3491 122.471 44.3491C123.944 44.3491 125.307 44.8524 126.561 45.8588L125.593 47.1139C124.535 46.2408 123.494 45.8043 122.471 45.8043C121.826 45.8043 121.279 45.974 120.828 46.3136C120.39 46.641 120.165 47.1018 120.153 47.6959C120.153 47.9991 120.207 48.2598 120.317 48.4781C120.439 48.6964 120.652 48.9025 120.956 49.0965C121.26 49.2784 121.534 49.43 121.778 49.5513C122.033 49.6604 122.417 49.812 122.928 50.006C124.242 50.5274 125.101 50.9155 125.502 51.1701C126.452 51.8128 126.932 52.7101 126.945 53.8621C126.945 54.9899 126.519 55.8811 125.667 56.536C124.827 57.1787 123.804 57.5 122.599 57.5Z" fill="#0693e3"></path><path d="M139.051 57.5C137.152 57.5 135.588 56.8876 134.359 55.6629C133.141 54.426 132.533 52.8496 132.533 50.9337C132.533 49.0177 133.147 47.4413 134.377 46.2044C135.606 44.9675 137.164 44.3491 139.051 44.3491C140.901 44.3491 142.441 44.9615 143.67 46.1862C144.899 47.411 145.514 48.9935 145.514 50.9337C145.514 52.8738 144.899 54.4563 143.67 55.6811C142.441 56.8937 140.901 57.5 139.051 57.5ZM139.051 56.0085C140.414 56.0085 141.552 55.5356 142.465 54.5897C143.39 53.6317 143.853 52.413 143.853 50.9337C143.853 49.4543 143.39 48.2356 142.465 47.2776C141.552 46.3196 140.414 45.8406 139.051 45.8406C137.651 45.8406 136.489 46.3257 135.564 47.2958C134.651 48.2538 134.194 49.4664 134.194 50.9337C134.194 52.3888 134.651 53.6014 135.564 54.5715C136.489 55.5295 137.651 56.0085 139.051 56.0085Z" fill="#0693e3"></path><path d="M151.816 57.3909V44.4764H156.417C157.854 44.4764 158.925 44.8402 159.631 45.5678C160.349 46.2954 160.708 47.2655 160.708 48.4781C160.708 50.6002 159.631 51.8795 157.476 52.316L161.055 57.3909H159.156L155.724 52.4616H153.405V57.3909H151.816ZM153.405 51.0246H155.979C157.014 51.0246 157.787 50.7942 158.298 50.3334C158.809 49.8605 159.065 49.2299 159.065 48.4417C159.065 47.6293 158.809 47.0048 158.298 46.5682C157.799 46.1317 157.099 45.9134 156.198 45.9134H153.405V51.0246Z" fill="#0693e3"></path><path d="M167.182 57.3909V44.4764H175.124V45.9134H168.77V50.2425H173.974V51.6794H168.77V55.9539H175.507V57.3909H167.182Z" fill="#0693e3"></path><path d="M185.399 57.5C183.598 57.5 182.07 56.8331 180.816 55.4992L181.839 54.2805C182.289 54.8383 182.831 55.2688 183.464 55.5719C184.109 55.8751 184.76 56.0267 185.417 56.0267C186.221 56.0267 186.866 55.8508 187.353 55.4992C187.839 55.1475 188.083 54.6625 188.083 54.044C188.083 53.3165 187.724 52.7465 187.006 52.3342C186.701 52.1645 186.093 51.9098 185.18 51.5703C184.705 51.4005 184.316 51.255 184.011 51.1337C183.719 51.0003 183.378 50.8185 182.989 50.5881C182.612 50.3577 182.313 50.1212 182.094 49.8787C181.887 49.6361 181.705 49.333 181.547 48.9692C181.388 48.6054 181.309 48.2052 181.309 47.7687C181.309 46.8107 181.687 46.0043 182.441 45.3495C183.208 44.6826 184.151 44.3491 185.271 44.3491C186.744 44.3491 188.107 44.8524 189.361 45.8588L188.393 47.1139C187.334 46.2408 186.294 45.8043 185.271 45.8043C184.626 45.8043 184.078 45.974 183.628 46.3136C183.19 46.641 182.965 47.1018 182.952 47.6959C182.952 47.9991 183.007 48.2598 183.117 48.4781C183.238 48.6964 183.451 48.9025 183.756 49.0965C184.06 49.2784 184.334 49.43 184.577 49.5513C184.833 49.6604 185.216 49.812 185.728 50.006C187.042 50.5274 187.9 50.9155 188.302 51.1701C189.251 51.8128 189.732 52.7101 189.744 53.8621C189.744 54.9899 189.318 55.8811 188.466 56.536C187.626 57.1787 186.604 57.5 185.399 57.5Z" fill="#0693e3"></path><path d="M210.422 57.4818C208.584 57.4818 207.044 56.9058 205.803 55.7538C204.573 54.6018 203.959 53.0072 203.959 50.97C203.959 49.0662 204.531 47.4898 205.675 46.2408C206.819 44.9797 208.395 44.3491 210.403 44.3491C212.424 44.3491 214.11 45.1737 215.461 46.8229L214.274 47.8051C213.227 46.5076 211.937 45.8588 210.403 45.8588C208.955 45.8588 207.793 46.3378 206.916 47.2958C206.052 48.2416 205.62 49.4664 205.62 50.97C205.62 52.4858 206.07 53.7045 206.971 54.6261C207.872 55.5356 209.022 55.9903 210.422 55.9903C211.968 55.9903 213.258 55.3415 214.292 54.044L215.479 55.0444C214.165 56.6694 212.479 57.4818 210.422 57.4818Z" fill="#0693e3"></path><path d="M227.34 57.5C225.441 57.5 223.877 56.8876 222.648 55.6629C221.43 54.426 220.822 52.8496 220.822 50.9337C220.822 49.0177 221.437 47.4413 222.666 46.2044C223.895 44.9675 225.453 44.3491 227.34 44.3491C229.19 44.3491 230.73 44.9615 231.959 46.1862C233.188 47.411 233.803 48.9935 233.803 50.9337C233.803 52.8738 233.188 54.4563 231.959 55.6811C230.73 56.8937 229.19 57.5 227.34 57.5ZM227.34 56.0085C228.703 56.0085 229.841 55.5356 230.754 54.5897C231.679 53.6317 232.142 52.413 232.142 50.9337C232.142 49.4543 231.679 48.2356 230.754 47.2776C229.841 46.3196 228.703 45.8406 227.34 45.8406C225.94 45.8406 224.778 46.3257 223.853 47.2958C222.94 48.2538 222.483 49.4664 222.483 50.9337C222.483 52.3888 222.94 53.6014 223.853 54.5715C224.778 55.5295 225.94 56.0085 227.34 56.0085Z" fill="#0693e3"></path><path d="M240.105 57.3909V44.4764H241.712L246.477 52.8253H246.514L251.279 44.4764H252.868V57.3909H251.279V47.5504H251.243L247.025 54.7898H245.948L241.73 47.5504H241.712V57.3909H240.105Z" fill="#0693e3"></path><path d="M259.732 57.3909V44.4764H267.674V45.9134H261.321V50.2425H266.524V51.6794H261.321V55.9539H268.058V57.3909H259.732Z" fill="#0693e3"></path><path d="M274.207 57.3909V44.4764H278.807C280.244 44.4764 281.315 44.8402 282.021 45.5678C282.739 46.2954 283.098 47.2655 283.098 48.4781C283.098 50.6002 282.021 51.8795 279.866 52.316L283.445 57.3909H281.546L278.114 52.4616H275.795V57.3909H274.207ZM275.795 51.0246H278.369C279.404 51.0246 280.177 50.7942 280.688 50.3334C281.199 49.8605 281.455 49.2299 281.455 48.4417C281.455 47.6293 281.199 47.0048 280.688 46.5682C280.189 46.1317 279.489 45.9134 278.588 45.9134H275.795V51.0246Z" fill="#0693e3"></path><path d="M295.024 57.4818C293.186 57.4818 291.646 56.9058 290.404 55.7538C289.175 54.6018 288.56 53.0072 288.56 50.97C288.56 49.0662 289.133 47.4898 290.277 46.2408C291.421 44.9797 292.997 44.3491 295.005 44.3491C297.026 44.3491 298.712 45.1737 300.063 46.8229L298.876 47.8051C297.829 46.5076 296.539 45.8588 295.005 45.8588C293.557 45.8588 292.395 46.3378 291.518 47.2958C290.654 48.2416 290.222 49.4664 290.222 50.97C290.222 52.4858 290.672 53.7045 291.573 54.6261C292.474 55.5356 293.624 55.9903 295.024 55.9903C296.569 55.9903 297.86 55.3415 298.894 54.044L300.081 55.0444C298.766 56.6694 297.081 57.4818 295.024 57.4818Z" fill="#0693e3"></path><path d="M306.081 57.3909V44.4764H307.669V57.3909H306.081Z" fill="#0693e3"></path><path d="M313.483 57.3909L318.395 44.4764H319.983L324.913 57.3909H323.251L322.083 54.2441H316.295L315.145 57.3909H313.483ZM316.806 52.8617H321.59L319.198 46.3863H319.161L316.806 52.8617Z" fill="#0693e3"></path><path d="M330.623 57.3909V44.4764H332.212V55.9539H338.62V57.3909H330.623Z" fill="#0693e3"></path><path d="M344.438 57.3909V44.4764H352.38V45.9134H346.026V50.2425H351.23V51.6794H346.026V55.9539H352.763V57.3909H344.438Z" fill="#0693e3"></path><path d="M362.655 57.5C360.853 57.5 359.326 56.8331 358.072 55.4992L359.094 54.2805C359.545 54.8383 360.086 55.2688 360.719 55.5719C361.364 55.8751 362.016 56.0267 362.673 56.0267C363.476 56.0267 364.121 55.8508 364.608 55.4992C365.095 55.1475 365.339 54.6625 365.339 54.044C365.339 53.3165 364.979 52.7465 364.261 52.3342C363.957 52.1645 363.348 51.9098 362.436 51.5703C361.961 51.4005 361.571 51.255 361.267 51.1337C360.975 51.0003 360.634 50.8185 360.245 50.5881C359.867 50.3577 359.569 50.1212 359.35 49.8787C359.143 49.6361 358.961 49.333 358.802 48.9692C358.644 48.6054 358.565 48.2052 358.565 47.7687C358.565 46.8107 358.942 46.0043 359.697 45.3495C360.464 44.6826 361.407 44.3491 362.527 44.3491C364 44.3491 365.363 44.8524 366.617 45.8588L365.649 47.1139C364.59 46.2408 363.549 45.8043 362.527 45.8043C361.882 45.8043 361.334 45.974 360.884 46.3136C360.446 46.641 360.22 47.1018 360.208 47.6959C360.208 47.9991 360.263 48.2598 360.372 48.4781C360.494 48.6964 360.707 48.9025 361.012 49.0965C361.316 49.2784 361.59 49.43 361.833 49.5513C362.089 49.6604 362.472 49.812 362.983 50.006C364.298 50.5274 365.156 50.9155 365.558 51.1701C366.507 51.8128 366.988 52.7101 367 53.8621C367 54.9899 366.574 55.8811 365.722 56.536C364.882 57.1787 363.86 57.5 362.655 57.5Z" fill="#0693e3"></path><defs><clipPath id="clip0_2052_3062"><rect width="53" height="60" fill="white"></rect></clipPath></defs></svg>