<svg xmlns="http://www.w3.org/2000/svg" width="75" height="75" viewBox="0 0 75 75" fill="none"><path d="M60.4071 41.5651C57.6378 37.9121 54.2378 35.0675 50.2068 33.0314C46.1759 30.9952 41.8738 29.9736 37.3002 29.9664C32.2127 29.9585 27.486 31.1703 23.1204 33.6019C18.7552 36.034 15.2523 39.4342 12.6119 43.8029C12.2513 44.3675 11.7496 44.7907 11.1067 45.0724C10.4639 45.354 9.86023 45.3145 9.29546 44.954C8.7307 44.5933 8.37183 44.0789 8.2187 43.4106C8.06558 42.7422 8.16942 42.1001 8.53005 41.484C11.6212 36.4527 15.7 32.502 20.7663 29.6323C25.8325 26.7624 31.3206 25.3321 37.2303 25.3413C42.3116 25.3493 47.1261 26.436 51.6737 28.6014C56.2214 30.7668 60.0851 33.8305 63.2651 37.7924L63.2815 27.232C63.2826 26.5768 63.5065 26.028 63.9532 25.5858C64.3994 25.143 64.9522 24.9221 65.6115 24.9232C66.2703 24.9242 66.8178 25.1467 67.2539 25.591C67.69 26.0346 67.9076 26.584 67.9065 27.2393L67.8805 43.8892C67.8795 44.5444 67.6572 45.0934 67.2135 45.5362C66.7693 45.9785 66.2196 46.1991 65.5644 46.1981L48.9144 46.1721C48.2592 46.1711 47.7104 45.9471 47.2682 45.5005C46.8254 45.0542 46.6046 44.5013 46.6056 43.8421C46.6066 43.1832 46.8292 42.6358 47.2734 42.1997C47.717 41.7635 48.2665 41.5461 48.9217 41.5471L60.4071 41.5651Z" fill="#96F0FF"></path></svg>