<svg xmlns="http://www.w3.org/2000/svg" width="61" height="60" viewBox="0 0 61 60" fill="none"><path d="M35.3861 42.1879C35.3947 39.951 33.5838 38.1331 31.3469 38.1332H35.3861C38.7106 38.1389 40.7946 34.5434 39.1371 31.6615C38.3653 30.3194 36.9342 29.4931 35.3861 29.4958C38.7106 29.4902 40.7824 25.8877 39.1152 23.0114C38.3441 21.6809 36.9238 20.8609 35.3861 20.8583H54.665C57.559 20.8584 59.3678 17.7257 57.9209 15.2192C57.2493 14.056 56.0082 13.3394 54.665 13.3394H25.9874C28.6421 13.3369 31.229 12.5 33.3821 10.947C35.9127 9.23551 36.7889 5.91703 35.4327 3.17945C34.8122 1.9421 33.2832 1.47499 32.0771 2.15419L25.8632 5.57183C22.9792 7.1465 19.9179 8.37203 16.7441 9.2226C12.157 10.4959 8.21176 13.4383 5.68319 17.4716C3.66749 20.5987 2.58921 24.2374 2.57617 27.9578V34.3737C2.57617 40.8946 7.86189 46.1806 14.3827 46.1804H31.3469C33.563 46.189 35.369 44.404 35.3861 42.1879Z" fill="#FFCEBF"></path><path d="M33.7699 16.2754H54.6645C56.1658 16.268 57.5252 17.162 58.1132 18.5435C58.3202 18.0791 58.4261 17.5761 58.4239 17.0676C58.4154 14.9948 56.7371 13.3167 54.6645 13.3081H26.2354C28.1772 15.7161 29.7152 16.2754 33.7699 16.2754Z" fill="#FFDCD1"></path><path d="M16.7441 12.2053C19.9359 11.3223 23.0124 10.0656 25.9097 8.46131L32.1237 5.02817C33.3354 4.35771 34.8615 4.82186 35.4948 6.05342C35.6935 6.46628 35.8496 6.89833 35.9608 7.34281C36.3071 5.92339 36.142 4.42721 35.4948 3.11729C34.8615 1.88573 33.3354 1.42157 32.1237 2.09203L25.9097 5.50967C23.0139 7.10919 19.9367 8.35576 16.7441 9.22256C12.157 10.4958 8.21176 13.4382 5.68319 17.4716C3.66749 20.5987 2.58921 24.2375 2.57617 27.9578V30.9715C2.59106 27.2515 3.66897 23.6132 5.68319 20.4854C8.20597 16.4402 12.152 13.4863 16.7441 12.2053Z" fill="#FFDCD1"></path><path d="M35.3861 42.1879C35.3947 39.951 33.5838 38.1331 31.3469 38.1332H35.3861C38.7106 38.1389 40.7946 34.5434 39.1371 31.6615C38.3653 30.3194 36.9342 29.4931 35.3861 29.4958C38.7106 29.4902 40.7824 25.8877 39.1152 23.0114C38.3441 21.6809 36.9238 20.8609 35.3861 20.8583H54.665C57.559 20.8584 59.3678 17.7257 57.9209 15.2192C57.2493 14.056 56.0082 13.3394 54.665 13.3394H25.9874C28.6421 13.3369 31.229 12.5 33.3821 10.947C35.9127 9.23551 36.7889 5.91703 35.4327 3.17945C34.8122 1.9421 33.2832 1.47499 32.0771 2.15419L25.8632 5.57183C22.9792 7.1465 19.9179 8.37203 16.7441 9.2226C12.157 10.4959 8.21176 13.4383 5.68319 17.4716C3.66749 20.5987 2.58921 24.2374 2.57617 27.9578V34.3737C2.57617 40.8946 7.86189 46.1806 14.3827 46.1804H31.3469C33.563 46.189 35.369 44.404 35.3861 42.1879Z" stroke="#45413C" stroke-width="0.38" stroke-linecap="round" stroke-linejoin="round"></path><path d="M35.3856 29.4958H32.1387" stroke="#45413C" stroke-width="0.38" stroke-linecap="round" stroke-linejoin="round"></path><path d="M35.3856 20.8582H32.1387" stroke="#45413C" stroke-width="0.38" stroke-linecap="round" stroke-linejoin="round"></path><path d="M25.9872 13.3394H23.0977" stroke="#45413C" stroke-width="0.38" stroke-linecap="round" stroke-linejoin="round"></path><path opacity="0.15" d="M7.8418 56.6042C7.8418 58.3981 27.2606 59.5192 42.7956 58.6223C50.0055 58.2061 54.4469 57.4367 54.4469 56.6042C54.4469 54.8105 35.028 53.6892 19.4931 54.5862C12.2833 55.0025 7.8418 55.7717 7.8418 56.6042Z" fill="#45413C"></path></svg>