<svg xmlns="http://www.w3.org/2000/svg" width="40" height="32" viewBox="0 0 40 32" fill="none"><g clip-path="url(#clip0_581_3033)"><path d="M13.608 0.423996C14.76 -0.152004 15.656 -0.024004 16.296 0.807997C17.064 1.896 16.936 2.824 15.912 3.592C14.312 4.80799 12.808 6.088 11.4 7.432C9.992 8.776 8.904 10.568 8.136 12.808C7.752 13.96 7.656 14.984 7.848 15.88C8.104 16.776 8.904 17.288 10.248 17.416C12.488 17.672 14.312 18.344 15.72 19.432C17.128 20.52 17.832 22.152 17.832 24.328C17.832 26.12 17.16 27.72 15.816 29.128C14.472 30.536 12.584 31.24 10.152 31.24C7.784 31.24 5.704 30.28 3.912 28.36C2.12 26.376 1.224 23.816 1.224 20.68C1.224 17.608 1.832 14.824 3.048 12.328C4.264 9.768 5.832 7.496 7.752 5.512C9.672 3.528 11.624 1.832 13.608 0.423996ZM35.304 0.423996C36.456 -0.152004 37.352 -0.024004 37.992 0.807997C38.76 1.896 38.632 2.824 37.608 3.592C36.008 4.80799 34.504 6.088 33.096 7.432C31.688 8.776 30.6 10.568 29.832 12.808C29.448 13.96 29.352 14.984 29.544 15.88C29.8 16.776 30.6 17.288 31.944 17.416C34.184 17.672 36.008 18.344 37.416 19.432C38.824 20.52 39.528 22.152 39.528 24.328C39.528 26.12 38.856 27.72 37.512 29.128C36.168 30.536 34.28 31.24 31.848 31.24C29.48 31.24 27.4 30.28 25.608 28.36C23.816 26.376 22.92 23.816 22.92 20.68C22.92 17.608 23.528 14.824 24.744 12.328C25.96 9.768 27.528 7.496 29.448 5.512C31.368 3.528 33.32 1.832 35.304 0.423996Z" fill="#96F0FF"></path></g><defs><clipPath id="clip0_581_3033"><rect width="40" height="32" fill="white"></rect></clipPath></defs></svg>