<svg xmlns="http://www.w3.org/2000/svg" width="40" height="32" viewBox="0 0 40 32" fill="none"><g clip-path="url(#clip0_581_3034)"><path d="M5.408 30.952C4.256 31.528 3.36 31.4 2.72 30.568C1.952 29.48 2.08 28.552 3.104 27.784C4.768 26.568 6.272 25.288 7.616 23.944C9.024 22.6 10.112 20.808 10.88 18.568C11.264 17.416 11.328 16.392 11.072 15.496C10.88 14.6 10.112 14.088 8.768 13.96C6.592 13.704 4.768 13.032 3.296 11.944C1.888 10.856 1.184 9.224 1.184 7.048C1.184 5.256 1.856 3.656 3.2 2.248C4.544 0.839994 6.432 0.135994 8.864 0.135994C11.232 0.135994 13.312 1.09599 15.104 3.016C16.896 4.936 17.792 7.49599 17.792 10.696C17.792 13.768 17.184 16.584 15.968 19.144C14.752 21.64 13.184 23.88 11.264 25.864C9.408 27.848 7.456 29.544 5.408 30.952ZM27.104 30.952C25.952 31.528 25.056 31.4 24.416 30.568C23.648 29.48 23.776 28.552 24.8 27.784C26.464 26.568 27.968 25.288 29.312 23.944C30.72 22.6 31.808 20.808 32.576 18.568C32.96 17.416 33.024 16.392 32.768 15.496C32.576 14.6 31.808 14.088 30.464 13.96C28.288 13.704 26.464 13.032 24.992 11.944C23.584 10.856 22.88 9.224 22.88 7.048C22.88 5.256 23.552 3.656 24.896 2.248C26.24 0.839994 28.128 0.135994 30.56 0.135994C32.928 0.135994 35.008 1.09599 36.8 3.016C38.592 4.936 39.488 7.49599 39.488 10.696C39.488 13.768 38.88 16.584 37.664 19.144C36.448 21.64 34.88 23.88 32.96 25.864C31.104 27.848 29.152 29.544 27.104 30.952Z" fill="#96F0FF"></path></g><defs><clipPath id="clip0_581_3034"><rect width="40" height="32" fill="white"></rect></clipPath></defs></svg>