<svg xmlns="http://www.w3.org/2000/svg" width="87" height="87" viewBox="0 0 87 87" fill="none"><path d="M45.7396 69.3755H42.1562C33.6159 69.3755 26.3299 66.3596 20.2979 60.3276C14.266 54.2956 11.25 47.0096 11.25 38.4692C11.25 29.9289 14.2809 22.6429 20.3427 16.6109C26.4045 10.579 33.7354 7.56299 42.3354 7.56299C46.5758 7.56299 50.5024 8.32445 54.1156 9.84736C57.7289 11.3703 60.8792 13.5054 63.5667 16.2526C66.2542 18.9997 68.3594 22.2398 69.8823 25.9724C71.4052 29.7049 72.1667 33.781 72.1667 38.2005C72.1667 46.0242 70.1362 53.3401 66.075 60.1484C62.0138 66.9567 56.7883 72.481 50.3979 76.7213C49.9799 77.02 49.532 77.1692 49.0542 77.1692C48.5763 77.1692 48.1284 77.0797 47.7104 76.9005C47.2924 76.7213 46.949 76.4377 46.6802 76.0494C46.4115 75.6612 46.2472 75.2283 46.1875 74.7505L45.7396 69.3755ZM51.1146 69.5546C56.0117 65.4338 59.849 60.5815 62.626 54.9974C65.4031 49.4133 66.7917 43.8143 66.7917 38.2005C66.7917 30.795 64.4774 24.7331 59.849 20.0151C55.2205 15.297 49.3826 12.938 42.3354 12.938C35.1688 12.938 29.092 15.4314 24.1052 20.4182C19.1185 25.4049 16.625 31.4221 16.625 38.4692C16.625 45.5164 19.1185 51.5335 24.1052 56.5203C29.092 61.507 35.1091 64.0005 42.1562 64.0005H51.1146V69.5546ZM42.3354 59.2526C43.2909 59.2526 44.0972 58.9242 44.7542 58.2672C45.4112 57.6101 45.7396 56.8039 45.7396 55.8484C45.7396 54.8929 45.4112 54.0867 44.7542 53.4297C44.0972 52.7727 43.2909 52.4442 42.3354 52.4442C41.3799 52.4442 40.5737 52.7727 39.9167 53.4297C39.2597 54.0867 38.9313 54.8929 38.9313 55.8484C38.9313 56.8039 39.2597 57.6101 39.9167 58.2672C40.5737 58.9242 41.3799 59.2526 42.3354 59.2526ZM33.6458 29.6005C34.243 29.8393 34.8253 29.8393 35.3927 29.6005C35.9601 29.3617 36.4528 28.9734 36.8708 28.4359C37.4083 27.6596 38.1399 27.0474 39.0656 26.5994C39.9914 26.1515 41.1409 25.9276 42.5146 25.9276C44.0674 25.9276 45.3961 26.3456 46.501 27.1817C47.606 28.0179 48.1583 29.1825 48.1583 30.6755C48.1583 31.8102 47.8448 32.9599 47.2177 34.1244C46.5906 35.289 45.5008 36.6477 43.9479 38.2005C42.5742 39.5742 41.574 40.7835 40.9469 41.8286C40.3198 42.8737 40.0062 43.8143 40.0062 44.6505C40.0062 45.3075 40.2003 45.8747 40.5885 46.3526C40.9768 46.8304 41.4992 47.0692 42.1562 47.0692C42.8133 47.0692 43.3656 46.8601 43.8135 46.4422C44.2615 46.0242 44.5451 45.4867 44.6646 44.8297C44.8438 44.1726 45.1872 43.456 45.6948 42.6797C46.2024 41.9033 46.9638 41.0075 47.9792 39.9922C49.7112 38.2602 50.9354 36.6627 51.6521 35.1994C52.3687 33.7362 52.7271 32.2283 52.7271 30.6755C52.7271 27.8685 51.7417 25.6289 49.7708 23.9567C47.8 22.2846 45.3813 21.4484 42.5146 21.4484C40.7826 21.4484 38.976 21.8515 37.0948 22.6578C35.2135 23.464 33.825 24.7033 32.9292 26.3755C32.5708 27.0325 32.4513 27.6744 32.5708 28.3015C32.6903 28.9286 33.0487 29.3617 33.6458 29.6005Z" fill="white"></path></svg>