<svg xmlns="http://www.w3.org/2000/svg" width="83" height="328" viewBox="0 0 83 328" fill="none"><path d="M49 6.59985L39.22 6.59985V3.47986H40.58V3.43985C39.5534 2.70652 39.04 1.76652 39.04 0.619858V0.499847H42.42C42.3934 0.899847 42.38 1.14652 42.38 1.23985C42.38 1.95985 42.5867 2.51319 43 2.89986C43.4 3.28652 43.9334 3.47986 44.6 3.47986H49V6.59985Z" fill="#FF0071"></path><path d="M49.18 13.5572C49.18 15.1305 48.7134 16.4105 47.78 17.3972C46.8334 18.3705 45.6134 18.8572 44.12 18.8572C42.6267 18.8572 41.4067 18.3705 40.46 17.3972C39.5134 16.4105 39.04 15.1305 39.04 13.5572C39.04 12.0105 39.5134 10.7439 40.46 9.75719C41.3934 8.77052 42.6134 8.27719 44.12 8.27719C45.6134 8.27719 46.8334 8.77052 47.78 9.75719C48.7134 10.7439 49.18 12.0105 49.18 13.5572ZM46.42 13.5572C46.42 12.9572 46.2067 12.4572 45.78 12.0572C45.34 11.6439 44.7867 11.4372 44.12 11.4372C43.44 11.4372 42.8867 11.6372 42.46 12.0372C42.0334 12.4372 41.82 12.9439 41.82 13.5572C41.82 14.1839 42.04 14.6972 42.48 15.0972C42.9067 15.4972 43.4534 15.6972 44.12 15.6972C44.7734 15.6972 45.32 15.4972 45.76 15.0972C46.2 14.6838 46.42 14.1705 46.42 13.5572Z" fill="#FF0071"></path><path d="M49.18 22.1501C49.18 23.0301 48.9067 23.7301 48.36 24.2501C47.8 24.7701 46.9867 25.0301 45.92 25.0301H41.74V26.1301H39.22V25.0301H36.08L35.76 21.8901H39.22V19.5301H41.74V21.8901H45.34C46.0733 21.8901 46.44 21.6435 46.44 21.1501C46.44 20.8168 46.3667 20.4968 46.22 20.1901L48.52 19.4101C48.96 20.1968 49.18 21.1101 49.18 22.1501Z" fill="#FF0071"></path><path d="M49.18 31.1395C49.18 32.6329 48.7134 33.8595 47.78 34.8195C46.8467 35.7795 45.6334 36.2595 44.14 36.2595C42.6067 36.2595 41.3734 35.7862 40.44 34.8395C39.5067 33.8795 39.04 32.6195 39.04 31.0595C39.04 29.2462 39.6067 27.8395 40.74 26.8395L42.74 28.8595C42.1267 29.3262 41.82 29.9729 41.82 30.7995C41.82 31.4795 42.0334 32.0329 42.46 32.4595C42.8734 32.8862 43.4267 33.0995 44.12 33.0995C44.8 33.0995 45.3534 32.8862 45.78 32.4595C46.1934 32.0195 46.4 31.4595 46.4 30.7795C46.4 29.9662 46.0934 29.2729 45.48 28.6995L47.48 26.7795C48.6134 27.7529 49.18 29.2062 49.18 31.1395Z" fill="#FF0071"></path><path d="M49.18 43.8257C49.18 46.1724 47.7933 47.3457 45.02 47.3457H39.22V44.2257H44.24C45.0266 44.2257 45.5866 44.1124 45.92 43.8857C46.2533 43.6457 46.42 43.259 46.42 42.7257C46.42 42.2324 46.22 41.8257 45.82 41.5057C45.4066 41.1724 44.82 41.0057 44.06 41.0057H39.22V37.8657H49V41.0057H47.9L47.88 41.0457C48.7466 41.7524 49.18 42.679 49.18 43.8257Z" fill="#FF0071"></path><path d="M49.18 55.1166C49.18 56.4766 48.7134 57.5899 47.78 58.4566C46.8467 59.3099 45.6267 59.7366 44.12 59.7366C42.64 59.7366 41.4267 59.3166 40.48 58.4766C39.52 57.6232 39.04 56.5566 39.04 55.2766C39.04 54.1166 39.4467 53.1832 40.26 52.4766V52.4566H34.28V49.3166H49V52.2966H47.96V52.3366C48.7734 52.9899 49.18 53.9166 49.18 55.1166ZM45.78 55.9966C46.2067 55.5966 46.42 55.0899 46.42 54.4766C46.42 53.8632 46.2134 53.3566 45.8 52.9566C45.3734 52.5432 44.8134 52.3366 44.12 52.3366C43.4534 52.3366 42.9 52.5366 42.46 52.9366C42.02 53.3366 41.8 53.8499 41.8 54.4766C41.8 55.0766 42.0134 55.5766 42.44 55.9766C42.8667 56.3766 43.4267 56.5766 44.12 56.5766C44.8 56.5766 45.3534 56.3832 45.78 55.9966Z" fill="#FF0071"></path><path d="M49.18 66.1939C49.18 67.7672 48.7134 69.0472 47.78 70.0339C46.8334 71.0072 45.6134 71.4939 44.12 71.4939C42.6267 71.4939 41.4067 71.0072 40.46 70.0339C39.5134 69.0472 39.04 67.7672 39.04 66.1939C39.04 64.6472 39.5134 63.3806 40.46 62.3939C41.3934 61.4072 42.6134 60.9139 44.12 60.9139C45.6134 60.9139 46.8334 61.4072 47.78 62.3939C48.7134 63.3806 49.18 64.6472 49.18 66.1939ZM46.42 66.1939C46.42 65.5939 46.2067 65.0939 45.78 64.6939C45.34 64.2806 44.7867 64.0739 44.12 64.0739C43.44 64.0739 42.8867 64.2739 42.46 64.6739C42.0334 65.0739 41.82 65.5806 41.82 66.1939C41.82 66.8206 42.04 67.3339 42.48 67.7339C42.9067 68.1339 43.4534 68.3339 44.12 68.3339C44.7734 68.3339 45.32 68.1339 45.76 67.7339C46.2 67.3206 46.42 66.8072 46.42 66.1939Z" fill="#FF0071"></path><path d="M49 78.26H39.22V75.14H40.58V75.1C39.5534 74.3667 39.04 73.4267 39.04 72.28V72.16H42.42C42.3934 72.56 42.38 72.8067 42.38 72.9C42.38 73.62 42.5867 74.1733 43 74.56C43.4 74.9467 43.9334 75.14 44.6 75.14H49V78.26Z" fill="#FF0071"></path><path d="M52.96 90.3303H39.22V87.2103H40.26V87.1703C39.4467 86.4637 39.04 85.537 39.04 84.3903C39.04 83.1103 39.5134 82.0503 40.46 81.2103C41.4067 80.357 42.6267 79.9303 44.12 79.9303C45.6267 79.9303 46.8467 80.3637 47.78 81.2303C48.7134 82.0837 49.18 83.1903 49.18 84.5503C49.18 85.6437 48.8 86.517 48.04 87.1703L48.06 87.2103H52.96V90.3303ZM46.42 85.1703C46.42 84.5703 46.2067 84.077 45.78 83.6903C45.3534 83.2903 44.8 83.0903 44.12 83.0903C43.4267 83.0903 42.8667 83.2903 42.44 83.6903C42.0134 84.077 41.8 84.577 41.8 85.1903C41.8 85.817 42.02 86.337 42.46 86.7503C42.9 87.1503 43.4534 87.3503 44.12 87.3503C44.8134 87.3503 45.3734 87.1437 45.8 86.7303C46.2134 86.317 46.42 85.797 46.42 85.1703Z" fill="#FF0071"></path><path d="M49 106.815H39.22V103.695H40.36V103.655C39.48 102.895 39.04 101.915 39.04 100.715C39.04 98.3814 40.4067 97.2147 43.14 97.2147H49V100.335H43.9C43.1267 100.335 42.5867 100.461 42.28 100.715C41.9734 100.968 41.82 101.361 41.82 101.895C41.82 102.455 42.0134 102.895 42.4 103.215C42.7734 103.535 43.3334 103.695 44.08 103.695H49V106.815Z" fill="#FF0071"></path><path d="M49.18 114.861C49.18 117.208 47.7933 118.381 45.02 118.381H39.22V115.261H44.24C45.0266 115.261 45.5866 115.148 45.92 114.921C46.2533 114.681 46.42 114.294 46.42 113.761C46.42 113.268 46.22 112.861 45.82 112.541C45.4066 112.208 44.82 112.041 44.06 112.041H39.22V108.901H49V112.041H47.9L47.88 112.081C48.7466 112.788 49.18 113.714 49.18 114.861Z" fill="#FF0071"></path><path d="M49 134.705H39.22V131.585H40.36V131.545C39.48 130.785 39.04 129.805 39.04 128.605C39.04 126.272 40.4067 125.105 43.14 125.105H49V128.225H43.9C43.1267 128.225 42.5867 128.352 42.28 128.605C41.9734 128.859 41.82 129.252 41.82 129.785C41.82 130.345 42.0134 130.785 42.4 131.105C42.7734 131.425 43.3334 131.585 44.08 131.585H49V134.705Z" fill="#FF0071"></path><path d="M49.18 141.663C49.18 143.236 48.7134 144.516 47.78 145.503C46.8334 146.476 45.6134 146.963 44.12 146.963C42.6267 146.963 41.4067 146.476 40.46 145.503C39.5134 144.516 39.04 143.236 39.04 141.663C39.04 140.116 39.5134 138.849 40.46 137.863C41.3934 136.876 42.6134 136.383 44.12 136.383C45.6134 136.383 46.8334 136.876 47.78 137.863C48.7134 138.849 49.18 140.116 49.18 141.663ZM46.42 141.663C46.42 141.063 46.2067 140.563 45.78 140.163C45.34 139.749 44.7867 139.543 44.12 139.543C43.44 139.543 42.8867 139.743 42.46 140.143C42.0334 140.543 41.82 141.049 41.82 141.663C41.82 142.289 42.04 142.803 42.48 143.203C42.9067 143.603 43.4534 143.803 44.12 143.803C44.7734 143.803 45.32 143.603 45.76 143.203C46.2 142.789 46.42 142.276 46.42 141.663Z" fill="#FF0071"></path><path d="M49.18 152.292C49.18 153.785 48.7134 155.012 47.78 155.972C46.8467 156.932 45.6334 157.412 44.14 157.412C42.6067 157.412 41.3734 156.939 40.44 155.992C39.5067 155.032 39.04 153.772 39.04 152.212C39.04 150.399 39.6067 148.992 40.74 147.992L42.74 150.012C42.1267 150.479 41.82 151.125 41.82 151.952C41.82 152.632 42.0334 153.185 42.46 153.612C42.8734 154.039 43.4267 154.252 44.12 154.252C44.8 154.252 45.3534 154.039 45.78 153.612C46.1934 153.172 46.4 152.612 46.4 151.932C46.4 151.119 46.0934 150.425 45.48 149.852L47.48 147.932C48.6134 148.905 49.18 150.359 49.18 152.292Z" fill="#FF0071"></path><path d="M49 169.237H39.22V166.117H40.58V166.077C39.5534 165.343 39.04 164.403 39.04 163.257V163.137H42.42C42.3934 163.537 42.38 163.783 42.38 163.877C42.38 164.597 42.5867 165.15 43 165.537C43.4 165.923 43.9334 166.117 44.6 166.117H49V169.237Z" fill="#FF0071"></path><path d="M49.18 177.051C49.18 178.397 48.7134 179.504 47.78 180.371C46.8467 181.237 45.6267 181.671 44.12 181.671C42.64 181.671 41.4267 181.251 40.48 180.411C39.52 179.557 39.04 178.491 39.04 177.211C39.04 176.104 39.4467 175.204 40.26 174.511L40.24 174.471H39.22V171.331H49V174.311H47.98L47.96 174.351C48.7734 174.991 49.18 175.891 49.18 177.051ZM46.42 176.391C46.42 175.817 46.2067 175.331 45.78 174.931C45.3534 174.531 44.8 174.331 44.12 174.331C43.4534 174.331 42.9 174.531 42.46 174.931C42.02 175.317 41.8 175.804 41.8 176.391C41.8 177.004 42.0134 177.511 42.44 177.911C42.8667 178.297 43.4267 178.491 44.12 178.491C44.8134 178.491 45.3734 178.297 45.8 177.911C46.2134 177.524 46.42 177.017 46.42 176.391Z" fill="#FF0071"></path><path d="M49 186.539H34.28V183.419H49V186.539Z" fill="#FF0071"></path><path d="M49.18 192.929C49.18 194.143 48.7734 195.069 47.96 195.709V195.749H49V198.709H34.28V195.589H40.26V195.549C39.4467 194.856 39.04 193.929 39.04 192.769C39.04 191.489 39.5134 190.429 40.46 189.589C41.4067 188.736 42.6267 188.309 44.12 188.309C45.6267 188.309 46.8467 188.743 47.78 189.609C48.7134 190.463 49.18 191.569 49.18 192.929ZM46.42 193.549C46.42 192.949 46.2067 192.456 45.78 192.069C45.3534 191.669 44.8 191.469 44.12 191.469C43.4267 191.469 42.8667 191.669 42.44 192.069C42.0134 192.456 41.8 192.956 41.8 193.569C41.8 194.196 42.02 194.716 42.46 195.129C42.9 195.529 43.4534 195.729 44.12 195.729C44.8134 195.729 45.3734 195.523 45.8 195.109C46.2134 194.696 46.42 194.176 46.42 193.549Z" fill="#FF0071"></path><path d="M49.18 206.523C49.18 207.87 48.7134 208.977 47.78 209.843C46.8467 210.71 45.6267 211.143 44.12 211.143C42.64 211.143 41.4267 210.723 40.48 209.883C39.52 209.03 39.04 207.963 39.04 206.683C39.04 205.577 39.4467 204.677 40.26 203.983L40.24 203.943H39.22V200.803H49V203.783H47.98L47.96 203.823C48.7734 204.463 49.18 205.363 49.18 206.523ZM46.42 205.863C46.42 205.29 46.2067 204.803 45.78 204.403C45.3534 204.003 44.8 203.803 44.12 203.803C43.4534 203.803 42.9 204.003 42.46 204.403C42.02 204.79 41.8 205.277 41.8 205.863C41.8 206.477 42.0134 206.983 42.44 207.383C42.8667 207.77 43.4267 207.963 44.12 207.963C44.8134 207.963 45.3734 207.77 45.8 207.383C46.2134 206.997 46.42 206.49 46.42 205.863Z" fill="#FF0071"></path><path d="M49 224.72H34.8V221.34H40.68V216.34H34.8V212.98H49V216.34H43.64V221.34H49V224.72Z" fill="#FF0071"></path><rect y="248" width="83" height="80" rx="40" fill="#FF0071"></rect><path d="M32.2129 288V281.894C32.231 280.693 32.4858 279.508 32.9627 278.407C33.4396 277.305 34.1292 276.308 34.9919 275.473C35.8547 274.639 36.8737 273.982 37.9905 273.542C39.1074 273.102 40.3001 272.886 41.5004 272.908C42.7007 272.886 43.8934 273.102 45.0102 273.542C46.1271 273.982 47.1461 274.639 48.0088 275.473C48.8716 276.308 49.5612 277.305 50.0381 278.407C50.5149 279.508 50.7698 280.693 50.7879 281.894V288" stroke="white" stroke-width="1.71" stroke-linecap="round" stroke-linejoin="round"></path><path d="M28.7301 284.517H31.052C31.3599 284.517 31.6551 284.64 31.8729 284.857C32.0906 285.075 32.2129 285.37 32.2129 285.678V292.644C32.2129 292.952 32.0906 293.247 31.8729 293.465C31.6551 293.683 31.3599 293.805 31.052 293.805H28.7301C28.1143 293.805 27.5237 293.56 27.0883 293.125C26.6528 292.689 26.4082 292.099 26.4082 291.483V286.839C26.4082 286.223 26.6528 285.633 27.0883 285.197C27.5237 284.762 28.1143 284.517 28.7301 284.517Z" fill="white" fill-opacity="0.3"></path><path d="M54.2711 293.805H51.9493C51.6414 293.805 51.3461 293.683 51.1284 293.465C50.9106 293.247 50.7883 292.952 50.7883 292.644V285.678C50.7883 285.37 50.9106 285.075 51.1284 284.857C51.3461 284.64 51.6414 284.517 51.9493 284.517H54.2711C54.8869 284.517 55.4775 284.762 55.913 285.197C56.3484 285.633 56.593 286.223 56.593 286.839V291.483C56.593 292.099 56.3484 292.689 55.913 293.125C55.4775 293.56 54.8869 293.805 54.2711 293.805Z" fill="white" fill-opacity="0.3"></path><path d="M46.1445 300.19C47.3761 300.19 48.5573 299.701 49.4282 298.83C50.299 297.959 50.7883 296.778 50.7883 295.546V290.322" stroke="white" stroke-width="1.71" stroke-linecap="round" stroke-linejoin="round"></path><path d="M46.1447 300.19C46.1447 300.571 46.0696 300.948 45.9237 301.301C45.7779 301.653 45.5641 301.973 45.2946 302.242C45.0251 302.512 44.7051 302.726 44.353 302.871C44.0009 303.017 43.6235 303.092 43.2423 303.092H39.7595C38.9898 303.092 38.2515 302.787 37.7073 302.242C37.163 301.698 36.8572 300.96 36.8572 300.19C36.8572 299.42 37.163 298.682 37.7073 298.138C38.2515 297.593 38.9898 297.288 39.7595 297.288H43.2423C44.0121 297.288 44.7503 297.593 45.2946 298.138C45.8389 298.682 46.1447 299.42 46.1447 300.19Z" fill="white" fill-opacity="0.3"></path><path d="M28.7301 284.517H31.052C31.3599 284.517 31.6551 284.64 31.8729 284.857C32.0906 285.075 32.2129 285.37 32.2129 285.678V292.644C32.2129 292.952 32.0906 293.247 31.8729 293.465C31.6551 293.683 31.3599 293.805 31.052 293.805H28.7301C28.1143 293.805 27.5237 293.56 27.0883 293.125C26.6528 292.689 26.4082 292.099 26.4082 291.483V286.839C26.4082 286.223 26.6528 285.633 27.0883 285.197C27.5237 284.762 28.1143 284.517 28.7301 284.517Z" stroke="white" stroke-width="1.71" stroke-linecap="round" stroke-linejoin="round"></path><path d="M54.2711 293.805H51.9493C51.6414 293.805 51.3461 293.683 51.1284 293.465C50.9106 293.247 50.7883 292.952 50.7883 292.644V285.678C50.7883 285.37 50.9106 285.075 51.1284 284.857C51.3461 284.64 51.6414 284.517 51.9493 284.517H54.2711C54.8869 284.517 55.4775 284.762 55.913 285.197C56.3484 285.633 56.593 286.223 56.593 286.839V291.483C56.593 292.099 56.3484 292.689 55.913 293.125C55.4775 293.56 54.8869 293.805 54.2711 293.805Z" stroke="white" stroke-width="1.71" stroke-linecap="round" stroke-linejoin="round"></path><path d="M46.1447 300.19C46.1447 300.571 46.0696 300.948 45.9237 301.301C45.7779 301.653 45.5641 301.973 45.2946 302.242C45.0251 302.512 44.7051 302.726 44.353 302.871C44.0009 303.017 43.6235 303.092 43.2423 303.092H39.7595C38.9898 303.092 38.2515 302.787 37.7073 302.242C37.163 301.698 36.8572 300.96 36.8572 300.19C36.8572 299.42 37.163 298.682 37.7073 298.138C38.2515 297.593 38.9898 297.288 39.7595 297.288H43.2423C44.0121 297.288 44.7503 297.593 45.2946 298.138C45.8389 298.682 46.1447 299.42 46.1447 300.19Z" stroke="white" stroke-width="1.71" stroke-linecap="round" stroke-linejoin="round"></path></svg>