<svg xmlns="http://www.w3.org/2000/svg" width="375" height="125" viewBox="0 0 375 125" fill="none"><g clip-path="url(#clip0_266_910)"><path d="M375 750.337V30C375 13.4315 361.569 0 345 0H297.275C280.706 0 267.275 13.4315 267.275 30V56.5164C267.275 73.085 253.843 86.5164 237.275 86.5164H-2.30933H-19.0907C-25.668 86.5164 -31 91.8484 -31 98.4258V892C-31 908.569 -17.5685 922 -0.999998 922H71.24C87.8085 922 101.24 908.569 101.24 892V810.337C101.24 793.769 114.671 780.337 131.24 780.337H345C361.569 780.337 375 766.906 375 750.337Z" fill="white"></path></g><defs><clipPath id="clip0_266_910"><rect width="375" height="125" fill="white"></rect></clipPath></defs></svg>