<svg xmlns="http://www.w3.org/2000/svg" width="1821" height="165" viewBox="0 0 1821 165" fill="none"><g clip-path="url(#clip0_2052_2803)"><path d="M1821 -636.061V114.396C1821 142.011 1798.61 164.396 1771 164.396H1736.5C1708.89 164.396 1686.5 142.011 1686.5 114.396V81.8965C1686.5 54.2822 1664.11 31.8965 1636.5 31.8965H182C154.386 31.8965 132 54.2822 132 81.8965V114.396C132 142.011 109.614 164.396 82 164.396H50C22.3858 164.396 0 142.011 0 114.397V-916.604C0 -944.218 22.3858 -966.604 50 -966.604H270.5C298.114 -966.604 320.5 -944.218 320.5 -916.604V-736.061C320.5 -708.446 342.886 -686.061 370.5 -686.061H1771C1798.61 -686.061 1821 -663.675 1821 -636.061Z" fill="#020C5C"></path></g><defs><clipPath id="clip0_2052_2803"><rect width="1821" height="164" fill="white" transform="matrix(1 0 0 -1 0 164.396)"></rect></clipPath></defs></svg>