<svg xmlns="http://www.w3.org/2000/svg" width="627" height="523" viewBox="0 0 627 523" fill="none"><g opacity="0.4" clip-path="url(#clip0_267_1438)"><path opacity="0.3" d="M283.726 177.814C285.654 178.364 287.702 178.329 289.611 177.715C291.52 177.101 293.205 175.934 294.451 174.363C295.697 172.792 296.45 170.887 296.613 168.888C296.777 166.89 296.344 164.888 295.369 163.136C294.395 161.384 292.923 159.961 291.139 159.046C289.355 158.131 287.339 157.765 285.347 157.995C283.355 158.225 281.475 159.041 279.947 160.339C278.418 161.637 277.308 163.359 276.758 165.287C276.036 167.872 276.363 170.637 277.668 172.982C278.972 175.327 281.149 177.064 283.726 177.814ZM406.868 329.492C408.796 330.041 410.844 330.007 412.753 329.392C414.662 328.778 416.347 327.612 417.593 326.04C418.839 324.469 419.592 322.564 419.755 320.566C419.919 318.568 419.486 316.566 418.511 314.814C417.537 313.062 416.065 311.638 414.281 310.723C412.497 309.808 410.481 309.443 408.489 309.673C406.497 309.903 404.618 310.719 403.089 312.016C401.56 313.314 400.45 315.036 399.9 316.964C399.178 319.55 399.505 322.315 400.81 324.66C402.114 327.005 404.291 328.741 406.868 329.492ZM183.245 63.7178C181.316 63.1682 179.268 63.2028 177.359 63.8172C175.45 64.4315 173.766 65.598 172.519 67.1691C171.273 68.7402 170.521 70.6454 170.357 72.6437C170.194 74.642 170.627 76.6437 171.601 78.3957C172.575 80.1476 174.048 81.5712 175.832 82.4863C177.616 83.4014 179.631 83.767 181.623 83.5368C183.616 83.3066 185.495 82.491 187.024 81.1931C188.553 79.8952 189.662 78.1732 190.213 76.245C190.934 73.6598 190.607 70.8949 189.303 68.5498C187.998 66.2047 185.822 64.4685 183.245 63.7178ZM270.738 15.736C268.81 15.1865 266.762 15.2211 264.853 15.8355C262.944 16.4498 261.259 17.6162 260.013 19.1873C258.767 20.7584 258.014 22.6635 257.851 24.6619C257.687 26.6602 258.12 28.662 259.095 30.4139C260.069 32.1659 261.541 33.5895 263.325 34.5046C265.109 35.4197 267.125 35.7852 269.117 35.5551C271.109 35.3249 272.989 34.5092 274.517 33.2113C276.046 31.9134 277.156 30.1915 277.706 28.2633C278.428 25.6781 278.101 22.9131 276.796 20.568C275.492 18.2229 273.315 16.4867 270.738 15.736ZM398.747 143.324C399.297 141.396 399.263 139.348 398.649 137.44C398.036 135.531 396.869 133.848 395.298 132.602C393.727 131.357 391.822 130.605 389.823 130.442C387.825 130.279 385.822 130.713 384.07 131.688C382.317 132.663 380.893 134.135 379.977 135.919C379.061 137.703 378.695 139.718 378.924 141.71C379.154 143.701 379.969 145.58 381.267 147.108C382.564 148.636 384.286 149.745 386.215 150.295C388.8 151.015 391.566 150.687 393.912 149.382C396.258 148.078 397.995 145.901 398.747 143.324ZM534.047 160.921C534.597 158.993 534.563 156.945 533.949 155.037C533.335 153.128 532.169 151.445 530.598 150.199C529.027 148.954 527.122 148.202 525.123 148.039C523.124 147.876 521.122 148.31 519.369 149.285C517.617 150.259 516.192 151.732 515.277 153.516C514.361 155.3 513.994 157.315 514.224 159.307C514.454 161.298 515.269 163.177 516.566 164.705C517.864 166.233 519.586 167.342 521.514 167.892C524.1 168.612 526.865 168.284 529.211 166.979C531.557 165.674 533.295 163.498 534.047 160.921ZM633.835 336.816C635.764 337.366 637.812 337.331 639.721 336.717C641.63 336.102 643.314 334.936 644.561 333.365C645.807 331.794 646.559 329.889 646.723 327.89C646.886 325.892 646.454 323.89 645.479 322.138C644.505 320.386 643.032 318.963 641.248 318.048C639.464 317.132 637.449 316.767 635.457 316.997C633.464 317.227 631.585 318.043 630.056 319.341C628.527 320.639 627.418 322.361 626.867 324.289C626.146 326.874 626.473 329.639 627.777 331.984C629.082 334.329 631.258 336.065 633.835 336.816ZM643.21 61.6366C643.76 59.7085 643.726 57.6606 643.112 55.7521C642.498 53.8436 641.332 52.1601 639.761 50.9146C638.19 49.669 636.285 48.9174 634.286 48.7546C632.288 48.5918 630.285 49.0252 628.533 50.0001C626.78 50.9749 625.356 52.4474 624.44 54.2313C623.524 56.0152 623.158 58.0304 623.387 60.0221C623.617 62.0138 624.432 63.8925 625.729 65.4206C627.027 66.9487 628.749 68.0577 630.678 68.6072C633.263 69.3275 636.029 68.9997 638.375 67.6948C640.721 66.3899 642.458 64.2132 643.21 61.6366ZM408.011 -65.4987C406.083 -66.0482 404.034 -66.0136 402.125 -65.3993C400.216 -64.785 398.532 -63.6185 397.286 -62.0474C396.039 -60.4763 395.287 -58.5711 395.123 -56.5728C394.96 -54.5745 395.393 -52.5728 396.367 -50.8208C397.342 -49.0688 398.814 -47.6453 400.598 -46.7302C402.382 -45.8151 404.397 -45.4494 406.39 -45.6796C408.382 -45.9098 410.261 -46.7254 411.79 -48.0234C413.319 -49.3213 414.429 -51.0433 414.979 -52.9714C415.7 -55.5567 415.373 -58.3216 414.069 -60.6667C412.764 -63.0118 410.588 -64.7479 408.011 -65.4987ZM609.343 -114.8C608.793 -112.872 608.827 -110.824 609.441 -108.915C610.055 -107.007 611.221 -105.323 612.792 -104.078C614.363 -102.832 616.268 -102.081 618.267 -101.918C620.265 -101.755 622.268 -102.188 624.02 -103.163C625.773 -104.138 627.197 -105.611 628.113 -107.395C629.029 -109.178 629.396 -111.194 629.166 -113.185C628.936 -115.177 628.121 -117.056 626.824 -118.584C625.526 -120.112 623.804 -121.221 621.876 -121.77C619.29 -122.491 616.524 -122.163 614.178 -120.858C611.832 -119.553 610.095 -117.376 609.343 -114.8ZM476.629 12.913C466.269 -1.36968 460.621 -18.5285 460.474 -36.1743C460.326 -53.82 465.686 -71.0745 475.807 -85.535C485.928 -99.9955 500.305 -110.942 516.938 -116.851C533.571 -122.761 551.632 -123.338 568.605 -118.502C571.191 -117.765 573.964 -118.086 576.314 -119.393C578.664 -120.7 580.399 -122.887 581.137 -125.473C581.875 -128.058 581.555 -130.831 580.249 -133.18C578.942 -135.53 576.755 -137.263 574.169 -138C553.142 -143.993 530.768 -143.281 510.16 -135.963C489.553 -128.646 471.738 -115.087 459.196 -97.1741C446.654 -79.2617 440.01 -57.887 440.187 -36.026C440.364 -14.1649 447.355 7.0947 460.186 24.7929C461.761 26.9725 464.138 28.437 466.793 28.8642C469.449 29.2914 472.166 28.6464 474.346 27.071C475.426 26.291 476.341 25.306 477.04 24.1723C477.74 23.0386 478.208 21.7785 478.42 20.4639C478.849 17.8087 478.204 15.0926 476.629 12.913ZM416.847 -118.451C416.181 -116.122 416.372 -113.632 417.386 -111.433C418.399 -109.234 420.167 -107.471 422.37 -106.463C424.572 -105.456 427.063 -105.272 429.39 -105.944C431.717 -106.615 433.727 -108.099 435.055 -110.125C450.579 -133.582 473.177 -151.484 499.567 -161.228C525.957 -170.973 554.764 -172.053 581.804 -164.313C658.11 -142.583 727.584 -101.704 783.624 -45.5593C784.558 -44.6174 785.669 -43.8687 786.893 -43.3561C788.117 -42.8434 789.43 -42.5768 790.757 -42.5716C792.084 -42.5663 793.399 -42.8224 794.628 -43.3253C795.856 -43.8282 796.973 -44.5681 797.916 -45.5026C798.858 -46.4371 799.608 -47.548 800.121 -48.7719C800.634 -49.9957 800.901 -51.3086 800.907 -52.6355C800.912 -53.9623 800.657 -55.2772 800.154 -56.5051C799.651 -57.7329 798.912 -58.8498 797.977 -59.7918C739.488 -118.383 666.976 -161.035 587.335 -183.694C579.166 -186.003 570.827 -187.666 562.397 -188.667C534.488 -191.842 506.242 -187.232 480.787 -175.348C455.332 -163.464 433.661 -144.77 418.172 -121.336C417.583 -120.495 417.146 -119.558 416.88 -118.567L416.847 -118.451ZM490.439 155.397C493.025 156.134 495.798 155.814 498.148 154.506C500.498 153.199 502.233 151.012 502.971 148.427C503.709 145.841 503.39 143.069 502.083 140.719C500.776 138.37 498.589 136.636 496.003 135.899C467.222 127.678 440.948 112.409 419.563 91.4724C398.177 70.5362 382.355 44.5951 373.529 15.9988C364.703 -12.5975 363.153 -42.9458 369.018 -72.2971C374.884 -101.649 387.98 -129.076 407.12 -152.095C408.014 -153.115 408.694 -154.304 409.121 -155.592C409.548 -156.879 409.713 -158.239 409.606 -159.591C409.499 -160.943 409.123 -162.26 408.499 -163.464C407.875 -164.668 407.016 -165.735 405.973 -166.602C404.93 -167.469 403.724 -168.118 402.426 -168.512C401.128 -168.905 399.764 -169.035 398.415 -168.893C397.066 -168.751 395.759 -168.341 394.571 -167.686C393.382 -167.031 392.337 -166.145 391.497 -165.08C370.227 -139.453 355.68 -108.93 349.171 -76.2739C342.663 -43.6174 344.398 -9.85672 354.219 21.9555C364.041 53.7678 381.639 82.6282 405.423 105.927C429.207 129.226 458.426 146.228 490.439 155.397ZM321.691 69.4105C322.881 71.7701 324.949 73.5683 327.452 74.4185C329.955 75.2687 332.692 75.1029 335.074 73.9568C337.456 72.8108 339.294 70.7761 340.192 68.29C341.09 65.8039 340.977 63.065 339.876 60.6624C316.129 10.7216 311.434 -46.1745 326.674 -99.3437C330.195 -111.626 334.705 -123.603 340.158 -135.158C340.773 -136.367 341.14 -137.687 341.237 -139.04C341.334 -140.393 341.159 -141.751 340.723 -143.035C340.287 -144.319 339.597 -145.503 338.696 -146.516C337.795 -147.53 336.7 -148.353 335.475 -148.936C334.251 -149.52 332.922 -149.852 331.567 -149.914C330.212 -149.976 328.858 -149.766 327.585 -149.296C326.312 -148.827 325.146 -148.107 324.156 -147.18C323.165 -146.253 322.37 -145.137 321.818 -143.899C315.828 -131.341 310.891 -118.307 307.058 -104.934C290.509 -47.0151 295.628 14.9402 321.459 69.3443L321.691 69.4105ZM260.093 -37.1199C262.783 -37.054 265.392 -38.0397 267.367 -39.8675C269.342 -41.6952 270.526 -44.2209 270.668 -46.9073C271.475 -69.0981 274.976 -91.1096 281.091 -112.459L281.82 -115.012C282.465 -117.586 282.122 -120.308 280.86 -122.642C279.598 -124.976 277.508 -126.752 275.001 -127.622C272.424 -128.351 269.665 -128.046 267.309 -126.772C264.953 -125.498 263.187 -123.356 262.386 -120.801L261.591 -118.015C255.071 -95.0988 251.284 -71.4931 250.307 -47.6894C250.215 -44.9933 251.192 -42.3703 253.024 -40.391C254.857 -38.4117 257.397 -37.2361 260.093 -37.1199ZM258.083 149.8C259.54 152.046 261.829 153.621 264.447 154.179C267.065 154.736 269.798 154.231 272.045 152.775C274.291 151.318 275.867 149.029 276.426 146.411C276.985 143.793 276.481 141.061 275.025 138.815C230.638 70.7912 213.678 -11.5272 227.561 -91.5693C228.025 -94.1192 227.492 -96.7497 226.071 -98.9167C224.65 -101.084 222.449 -102.621 219.926 -103.212C217.402 -103.802 214.747 -103.4 212.511 -102.088C210.275 -100.776 208.628 -98.6555 207.912 -96.1645L207.614 -95.1199C192.779 -10.0508 210.774 77.4667 257.967 149.767L258.083 149.8ZM310.197 204.684C309.683 206.486 309.678 208.395 310.182 210.2C310.686 212.005 311.679 213.635 313.052 214.91C352.349 251.264 399.705 277.79 451.24 292.314C453.826 293.051 456.599 292.73 458.949 291.423C461.299 290.116 463.034 287.929 463.772 285.343C464.51 282.758 464.19 279.985 462.884 277.636C461.577 275.286 459.39 273.553 456.804 272.816C408.3 259.143 363.725 234.185 326.725 199.982C325.455 198.8 323.902 197.965 322.215 197.557C320.529 197.148 318.765 197.18 317.094 197.649C315.423 198.117 313.901 199.007 312.672 200.234C311.444 201.46 310.552 202.981 310.08 204.651L310.197 204.684ZM205.768 133.888C204.576 134.522 203.527 135.394 202.686 136.449C201.845 137.505 201.23 138.722 200.879 140.025C200.143 142.583 200.442 145.327 201.71 147.666C233.466 206.743 279.92 256.634 336.588 292.523C337.713 293.28 338.979 293.804 340.31 294.063C341.641 294.322 343.011 294.311 344.338 294.03C345.665 293.75 346.922 293.206 348.035 292.43C349.148 291.655 350.094 290.664 350.817 289.517C351.539 288.369 352.024 287.088 352.242 285.75C352.461 284.411 352.408 283.043 352.087 281.725C351.766 280.408 351.184 279.169 350.374 278.081C349.565 276.993 348.546 276.078 347.376 275.392C293.658 241.36 249.622 194.061 219.514 138.057C218.23 135.696 216.068 133.936 213.496 133.156C210.924 132.376 208.148 132.639 205.768 133.888ZM175.879 52.5831C178.509 52.0013 180.805 50.4094 182.271 48.1507C183.737 45.892 184.257 43.1477 183.718 40.5101C176.24 5.64437 173.849 -30.1217 176.619 -65.6756C176.827 -68.3579 175.965 -71.0131 174.222 -73.0617C172.478 -75.1103 169.995 -76.3859 167.314 -76.6099C164.99 -76.7955 162.674 -76.1691 160.76 -74.8377C158.847 -73.5062 157.454 -71.5523 156.821 -69.3092C156.6 -68.6522 156.488 -67.9633 156.49 -67.2701C153.517 -29.7914 156.032 7.91875 163.956 44.6674C164.545 47.2914 166.139 49.5802 168.395 51.0441C170.651 52.5079 173.391 53.0305 176.029 52.5001L175.879 52.5831ZM463.276 339.417C476.225 337.353 488.084 330.935 496.894 321.223C505.703 311.512 510.937 299.087 511.731 286.002C512.525 272.917 508.831 259.955 501.259 249.255C493.687 238.556 482.691 230.76 470.086 227.155C427.596 215.02 388.655 192.837 356.554 162.48C324.453 132.122 300.136 94.4826 285.656 52.7418C284.721 50.2804 282.865 48.2792 280.481 47.1609C278.097 46.0426 275.371 45.8947 272.879 46.7484C270.387 47.6022 268.324 49.3908 267.126 51.7363C265.928 54.0819 265.689 56.8009 266.459 59.319C281.998 104.124 308.102 144.526 342.562 177.107C377.023 209.689 418.827 233.492 464.439 246.503C472.631 248.836 479.782 253.893 484.708 260.84C489.635 267.787 492.042 276.207 491.533 284.709C491.023 293.211 487.628 301.286 481.907 307.599C476.186 313.911 468.482 318.084 460.07 319.427C454.675 320.291 449.156 319.961 443.904 318.46C441.318 317.723 438.545 318.044 436.195 319.351C433.844 320.658 432.109 322.845 431.372 325.431C430.634 328.016 430.953 330.789 432.26 333.138C433.567 335.487 435.754 337.221 438.339 337.958C446.441 340.281 454.958 340.779 463.276 339.417ZM555.27 311.291C562.878 284.482 559.545 255.754 546.001 231.405C532.458 207.055 509.809 189.071 483.02 181.394C460.33 174.948 438.773 165.038 419.11 152.013C416.868 150.536 414.136 149.997 411.5 150.514C408.865 151.03 406.537 152.56 405.018 154.775C404.417 155.655 403.968 156.63 403.692 157.66C403.096 159.719 403.17 161.914 403.903 163.928C404.637 165.942 405.993 167.671 407.775 168.863C429.154 183.085 452.625 193.881 477.339 200.859C498.981 207.026 517.283 221.536 528.219 241.198C539.155 260.86 541.829 284.062 535.654 305.701C529.479 327.34 514.959 345.643 495.29 356.583C475.621 367.523 452.412 370.205 430.771 364.038C343.742 338.981 267.182 286.408 212.558 214.192C157.935 141.976 128.186 54.0036 127.767 -36.5508C127.77 -39.0003 126.887 -41.3679 125.28 -43.2169C123.674 -45.0658 121.453 -46.2713 119.027 -46.611C116.601 -46.9507 114.133 -46.4016 112.08 -45.065C110.026 -43.7285 108.525 -41.6948 107.853 -39.3389C107.598 -38.4375 107.459 -37.5071 107.44 -36.5704C107.838 58.3857 139.008 150.645 196.276 226.379C253.545 302.113 333.827 357.242 425.091 383.503C451.903 391.1 480.638 387.758 504.996 374.21C529.355 360.661 547.35 338.011 555.038 311.225L555.27 311.291ZM600.886 324.29C611.057 288.637 607.933 250.509 592.096 216.995C591.531 215.795 590.736 214.719 589.756 213.828C588.776 212.936 587.629 212.246 586.382 211.797C585.135 211.349 583.811 211.15 582.487 211.213C581.163 211.276 579.864 211.598 578.664 212.163C577.465 212.728 576.388 213.523 575.496 214.503C574.604 215.484 573.913 216.631 573.464 217.878C573.015 219.125 572.816 220.448 572.878 221.772C572.941 223.096 573.263 224.394 573.827 225.593C584.742 248.588 588.793 274.244 585.494 299.487C582.195 324.73 571.687 348.488 555.228 367.916C538.769 387.344 517.058 401.617 492.696 409.025C468.334 416.433 442.354 416.661 417.871 409.682C412.647 408.194 407.424 406.706 402.383 405.018C399.823 404.204 397.045 404.432 394.652 405.654C392.259 406.875 390.445 408.991 389.602 411.541L389.503 411.89C388.799 414.415 389.094 417.114 390.326 419.428C391.558 421.742 393.634 423.493 396.122 424.318C401.396 426.071 406.851 427.626 412.306 429.18C451.217 440.222 492.924 435.379 528.278 415.715C563.631 396.051 589.744 363.171 600.886 324.29ZM643.076 304.436C644.406 304.525 645.74 304.349 647.002 303.92C648.264 303.49 649.428 302.814 650.426 301.932C651.425 301.049 652.239 299.977 652.821 298.778C653.403 297.579 653.742 296.277 653.817 294.947C656.519 249.418 643.652 204.329 617.329 167.089C591.006 129.848 552.794 102.671 508.97 90.0228C483.873 82.9025 461.444 68.522 444.504 48.6891C427.564 28.8563 416.868 4.45663 413.763 -21.4417C413.493 -23.7611 412.428 -25.9152 410.749 -27.5376C409.07 -29.16 406.88 -30.1505 404.552 -30.3404C402.224 -30.5303 399.902 -29.9081 397.981 -28.5794C396.06 -27.2508 394.659 -25.2979 394.015 -23.053C393.627 -21.7749 393.542 -20.424 393.768 -19.1076C397.305 10.7522 409.609 38.8928 429.128 61.764C448.646 84.6352 474.503 101.212 503.439 109.405C542.818 120.786 577.154 145.215 600.809 178.683C624.465 212.15 636.035 252.667 633.622 293.584C633.467 296.263 634.377 298.895 636.154 300.906C637.931 302.916 640.431 304.144 643.109 304.32L643.076 304.436ZM607.912 410.5C608.806 409.48 609.487 408.291 609.914 407.003C610.341 405.716 610.506 404.356 610.399 403.004C610.292 401.652 609.916 400.335 609.292 399.131C608.668 397.927 607.809 396.86 606.766 395.993C605.723 395.126 604.517 394.477 603.219 394.083C601.921 393.69 600.557 393.56 599.208 393.702C597.859 393.844 596.551 394.254 595.363 394.909C594.175 395.564 593.13 396.45 592.289 397.515C567.775 426.766 534.658 447.543 497.654 456.889C495.926 457.332 494.344 458.218 493.064 459.461C491.785 460.703 490.853 462.259 490.361 463.973C489.899 465.684 489.86 467.481 490.246 469.211C490.912 471.818 492.579 474.057 494.885 475.443C497.192 476.829 499.953 477.249 502.568 476.612C543.729 466.185 580.554 443.037 607.796 410.467L607.912 410.5ZM572.03 500.171C613.935 477.519 648.392 443.23 671.245 401.44C688.464 369.999 698.654 335.199 701.11 299.442C703.567 263.685 698.232 227.824 685.474 194.334C672.716 160.845 652.838 130.525 627.215 105.469C601.591 80.4131 570.831 61.2178 537.06 49.2087C535.801 48.7652 534.467 48.5745 533.135 48.6474C531.802 48.7204 530.497 49.0557 529.294 49.634C528.091 50.2123 527.014 51.0224 526.125 52.0176C525.236 53.0128 524.552 54.1737 524.113 55.4336L523.947 56.0139C523.239 58.5007 523.505 61.1637 524.692 63.4605C525.878 65.7572 527.896 67.5151 530.335 68.3759C576.504 84.9072 616.11 115.876 643.28 156.691C670.451 197.505 683.739 245.992 681.174 294.961C679.158 328.855 669.728 361.896 653.551 391.755C632.599 430.119 600.99 461.603 562.54 482.407C561.348 483.041 560.299 483.912 559.458 484.968C558.617 486.024 558.002 487.241 557.651 488.544C557.097 490.467 557.125 492.511 557.731 494.419C558.337 496.326 559.494 498.011 561.056 499.261C562.619 500.512 564.517 501.272 566.511 501.445C568.505 501.619 570.506 501.199 572.262 500.237L572.03 500.171ZM693.016 109.212C691.901 107.669 690.375 106.471 688.611 105.755C686.847 105.039 684.917 104.834 683.041 105.164C681.166 105.494 679.421 106.345 678.007 107.62C676.593 108.895 675.566 110.542 675.044 112.373C674.612 113.846 674.525 115.399 674.79 116.911C675.055 118.423 675.665 119.854 676.572 121.091C691.841 142.159 704.045 165.284 712.823 189.778C713.734 192.301 715.611 194.358 718.039 195.497C720.468 196.637 723.25 196.764 725.774 195.853C728.298 194.941 730.356 193.064 731.497 190.636C732.637 188.207 732.766 185.425 731.855 182.902C722.407 156.615 709.292 131.796 692.9 109.178L693.016 109.212ZM548.053 -46.927C545.467 -47.6638 542.694 -47.3434 540.344 -46.0361C537.994 -44.7289 536.259 -42.5419 535.521 -39.9563C534.783 -37.3707 535.103 -34.5983 536.409 -32.249C537.716 -29.8997 539.903 -28.1659 542.489 -27.4291C623.212 -4.61656 691.785 48.8893 733.525 121.634C734.888 123.949 737.108 125.636 739.705 126.329C742.301 127.022 745.067 126.666 747.404 125.338C748.562 124.673 749.577 123.785 750.391 122.727C751.204 121.668 751.801 120.459 752.146 119.169C752.49 117.88 752.577 116.535 752.399 115.212C752.222 113.889 751.785 112.614 751.113 111.46C706.808 34.0854 633.914 -22.8229 548.086 -47.043L548.053 -46.927ZM561.07 -92.5381C546.385 -96.7225 530.638 -94.9029 517.292 -87.4797C503.946 -80.0564 494.095 -67.6376 489.904 -52.9552C485.714 -38.2727 487.529 -22.5294 494.95 -9.18851C502.37 4.15233 514.788 13.9978 529.472 18.1822C554.537 25.2838 578.467 35.9056 600.545 49.7299C601.67 50.4872 602.935 51.0107 604.267 51.2697C605.598 51.5286 606.968 51.5175 608.295 51.2371C609.622 50.9567 610.879 50.4127 611.992 49.6374C613.104 48.862 614.05 47.8711 614.773 46.7235C615.496 45.5758 615.981 44.2949 616.199 42.9565C616.417 41.6181 616.364 40.2496 616.043 38.9323C615.722 37.6149 615.14 36.3755 614.331 35.2875C613.522 34.1996 612.502 33.2853 611.333 32.5989C587.623 17.7635 561.938 6.34614 535.036 -1.31576C525.493 -4.03516 517.423 -10.4337 512.6 -19.1039C507.778 -27.774 506.598 -38.0055 509.322 -47.5476C512.045 -57.0896 518.447 -65.1606 527.121 -69.9849C535.794 -74.8092 546.028 -75.9917 555.571 -73.2723C634.107 -51.2118 703.023 -3.57233 751.395 62.0948C752.99 64.2633 755.381 65.7094 758.043 66.1148C760.705 66.5203 763.419 65.852 765.588 64.2568C767.758 62.6617 769.205 60.2704 769.612 57.609C770.018 54.9477 769.35 52.2343 767.756 50.0657C716.723 -19.2289 644.005 -69.4982 561.136 -92.7703L561.07 -92.5381ZM711.375 -71.669C693.499 -84.6464 674.648 -96.2277 654.991 -106.31C653.806 -106.92 652.511 -107.291 651.182 -107.401C649.853 -107.511 648.515 -107.358 647.245 -106.95C645.975 -106.543 644.797 -105.89 643.779 -105.027C642.762 -104.165 641.924 -103.111 641.314 -101.925C640.994 -101.313 640.728 -100.675 640.519 -100.018C639.897 -97.7776 640.059 -95.3925 640.98 -93.2582C641.9 -91.1239 643.524 -89.3689 645.58 -88.2847C691.945 -64.4645 733.383 -32.0899 767.708 7.1321C769.479 9.15107 771.979 10.3838 774.659 10.5592C777.34 10.7346 779.98 9.83834 782 8.06743C784.02 6.29653 785.254 3.79607 785.431 1.11622C785.607 -1.56362 784.711 -4.20339 782.941 -6.22236C761.548 -30.6149 737.494 -52.539 711.226 -71.5861L711.375 -71.669ZM798.562 -97.0234C776.453 -117.074 752.636 -135.156 727.382 -151.066C725.523 -152.236 724.099 -153.982 723.325 -156.038C722.552 -158.093 722.473 -160.346 723.1 -162.451C723.369 -163.39 723.753 -164.292 724.243 -165.137C724.949 -166.265 725.87 -167.243 726.955 -168.013C728.04 -168.784 729.266 -169.333 730.563 -169.628C731.861 -169.923 733.203 -169.959 734.514 -169.733C735.826 -169.507 737.079 -169.025 738.203 -168.313C764.46 -151.788 789.206 -132.978 812.152 -112.101C813.135 -111.211 813.932 -110.137 814.499 -108.939C815.066 -107.741 815.391 -106.443 815.456 -105.119C815.521 -103.795 815.325 -102.472 814.878 -101.224C814.432 -99.9755 813.744 -98.8276 812.853 -97.8452C811.963 -96.8629 810.888 -96.0653 809.69 -95.4982C808.492 -94.9311 807.193 -94.6054 805.869 -94.5399C804.545 -94.4744 803.221 -94.6702 801.973 -95.1162C800.725 -95.5623 799.577 -96.2498 798.595 -97.1395L798.562 -97.0234Z" fill="#96F0FF"></path></g><defs><clipPath id="clip0_267_1438"><rect width="627" height="523" fill="white"></rect></clipPath></defs></svg>