<svg xmlns="http://www.w3.org/2000/svg" width="412" height="420" viewBox="0 0 412 420" fill="none"><g clip-path="url(#clip0_2053_3139)"><path opacity="0.5" d="M249.42 151.457C249.071 153.023 249.193 154.657 249.772 156.153C250.35 157.65 251.36 158.941 252.672 159.864C253.985 160.787 255.541 161.3 257.145 161.338C258.748 161.376 260.327 160.938 261.681 160.079C263.036 159.22 264.105 157.978 264.753 156.511C265.402 155.044 265.601 153.417 265.325 151.837C265.049 150.256 264.311 148.793 263.203 147.632C262.096 146.471 260.67 145.664 259.104 145.313C257.006 144.857 254.813 145.245 253 146.396C251.187 147.546 249.901 149.364 249.42 151.457ZM133.963 256.815C133.613 258.381 133.736 260.015 134.315 261.511C134.893 263.008 135.903 264.299 137.215 265.222C138.528 266.145 140.084 266.658 141.688 266.696C143.291 266.735 144.87 266.297 146.224 265.437C147.579 264.578 148.648 263.336 149.296 261.869C149.945 260.402 150.143 258.775 149.868 257.195C149.592 255.614 148.854 254.151 147.746 252.99C146.639 251.829 145.213 251.022 143.647 250.671C141.549 250.215 139.356 250.604 137.543 251.754C135.73 252.904 134.444 254.722 133.963 256.815ZM335.908 65.934C336.258 64.3684 336.136 62.7341 335.557 61.2377C334.978 59.7413 333.969 58.4499 332.657 57.527C331.344 56.6041 329.788 56.0912 328.184 56.0529C326.581 56.0147 325.002 56.4528 323.647 57.312C322.293 58.1713 321.224 59.4129 320.576 60.88C319.927 62.3471 319.728 63.9738 320.004 65.5543C320.28 67.1348 321.018 68.5982 322.125 69.7594C323.233 70.9205 324.659 71.7273 326.225 72.0777C328.323 72.5344 330.516 72.1457 332.329 70.9956C334.142 69.8455 335.428 68.0267 335.908 65.934ZM378.272 133.599C378.622 132.033 378.5 130.399 377.921 128.903C377.342 127.406 376.333 126.115 375.02 125.192C373.708 124.269 372.151 123.756 370.548 123.718C368.944 123.68 367.365 124.118 366.011 124.977C364.657 125.836 363.588 127.078 362.939 128.545C362.291 130.012 362.092 131.639 362.368 133.219C362.644 134.8 363.382 136.263 364.489 137.424C365.596 138.585 367.023 139.392 368.588 139.743C370.686 140.199 372.88 139.811 374.693 138.66C376.505 137.51 377.791 135.692 378.272 133.599ZM282.28 241.731C283.845 242.082 285.479 241.96 286.975 241.382C288.471 240.803 289.762 239.794 290.684 238.482C291.606 237.17 292.119 235.613 292.156 234.009C292.194 232.405 291.755 230.826 290.896 229.471C290.036 228.117 288.794 227.047 287.327 226.398C285.86 225.749 284.234 225.549 282.654 225.824C281.074 226.1 279.611 226.838 278.45 227.945C277.29 229.052 276.483 230.478 276.133 232.044C275.678 234.142 276.067 236.336 277.218 238.149C278.368 239.963 280.187 241.25 282.28 241.731ZM274.474 350.607C276.039 350.958 277.673 350.836 279.169 350.258C280.665 349.679 281.956 348.67 282.878 347.358C283.8 346.046 284.313 344.489 284.35 342.885C284.388 341.282 283.95 339.702 283.09 338.347C282.23 336.993 280.989 335.923 279.521 335.274C278.054 334.625 276.428 334.425 274.848 334.701C273.268 334.976 271.805 335.714 270.644 336.821C269.484 337.928 268.677 339.354 268.328 340.92C267.872 343.018 268.261 345.212 269.412 347.026C270.562 348.839 272.381 350.126 274.474 350.607ZM138.596 438.432C138.246 439.997 138.368 441.632 138.947 443.128C139.526 444.625 140.535 445.916 141.847 446.839C143.16 447.762 144.716 448.275 146.32 448.313C147.923 448.351 149.502 447.913 150.856 447.054C152.211 446.195 153.28 444.953 153.928 443.486C154.577 442.019 154.776 440.392 154.5 438.812C154.224 437.231 153.486 435.768 152.379 434.607C151.271 433.445 149.845 432.639 148.279 432.288C146.181 431.831 143.988 432.22 142.175 433.37C140.362 434.521 139.076 436.339 138.596 438.432ZM358.814 433.21C360.379 433.561 362.013 433.439 363.509 432.861C365.005 432.282 366.296 431.273 367.218 429.961C368.14 428.649 368.653 427.092 368.69 425.488C368.728 423.884 368.289 422.305 367.43 420.95C366.57 419.596 365.328 418.526 363.861 417.877C362.394 417.228 360.768 417.028 359.188 417.304C357.607 417.579 356.145 418.317 354.984 419.424C353.823 420.531 353.017 421.957 352.667 423.523C352.211 425.621 352.601 427.815 353.752 429.628C354.902 431.442 356.721 432.729 358.814 433.21ZM449.494 239.486C449.844 237.921 449.721 236.287 449.143 234.79C448.564 233.294 447.554 232.002 446.242 231.079C444.929 230.157 443.373 229.644 441.769 229.605C440.166 229.567 438.587 230.005 437.233 230.864C435.878 231.724 434.81 232.965 434.161 234.432C433.513 235.899 433.314 237.526 433.589 239.107C433.865 240.687 434.604 242.151 435.711 243.312C436.818 244.473 438.245 245.28 439.81 245.63C441.908 246.087 444.101 245.698 445.914 244.548C447.727 243.398 449.013 241.579 449.494 239.486ZM498.169 398.013C496.603 397.662 494.969 397.784 493.473 398.363C491.977 398.941 490.687 399.95 489.764 401.262C488.842 402.575 488.33 404.131 488.292 405.735C488.254 407.339 488.693 408.918 489.552 410.273C490.412 411.628 491.654 412.697 493.121 413.346C494.588 413.996 496.215 414.195 497.795 413.92C499.375 413.644 500.838 412.907 501.998 411.8C503.159 410.693 503.965 409.266 504.315 407.7C504.771 405.602 504.381 403.408 503.231 401.595C502.08 399.781 500.261 398.494 498.169 398.013ZM390.036 297.913C400.965 288.978 414.409 283.675 428.495 282.743C442.582 281.81 456.611 285.294 468.628 292.709C480.645 300.125 490.052 311.103 495.54 324.115C501.027 337.127 502.322 351.525 499.244 365.304C498.775 367.403 499.159 369.604 500.312 371.42C501.465 373.237 503.291 374.522 505.391 374.992C507.49 375.462 509.689 375.078 511.505 373.926C513.321 372.774 514.605 370.947 515.074 368.848C518.889 351.777 517.287 333.939 510.491 317.818C503.695 301.697 492.043 288.095 477.157 278.905C462.271 269.715 444.892 265.395 427.44 266.546C409.988 267.698 393.331 274.263 379.788 285.328C378.12 286.687 377.06 288.653 376.841 290.793C376.623 292.934 377.263 295.074 378.622 296.743C379.295 297.57 380.124 298.255 381.062 298.761C382 299.267 383.028 299.584 384.088 299.692C386.228 299.912 388.368 299.272 390.036 297.913ZM492.194 244.098C490.304 243.674 488.324 243.942 486.614 244.852C484.904 245.763 483.578 247.257 482.875 249.063C482.173 250.868 482.14 252.866 482.784 254.694C483.428 256.522 484.706 258.058 486.385 259.025C505.838 270.341 521.179 287.563 530.181 308.191C539.183 328.818 541.376 351.776 536.442 373.73C522.611 435.679 493.17 493.056 450.915 540.408C450.206 541.198 449.66 542.12 449.307 543.121C448.954 544.122 448.801 545.183 448.859 546.243C448.916 547.304 449.181 548.342 449.639 549.3C450.098 550.258 450.74 551.116 451.53 551.826C452.32 552.535 453.242 553.082 454.243 553.436C455.244 553.789 456.305 553.942 457.365 553.885C458.425 553.828 459.464 553.563 460.421 553.105C461.379 552.647 462.237 552.005 462.946 551.215C507.041 501.794 537.759 441.908 552.178 377.253C553.645 370.622 554.588 363.885 554.998 357.105C556.245 334.668 551.258 312.321 540.591 292.539C529.924 272.757 513.992 256.312 494.56 245.024C493.861 244.592 493.093 244.285 492.289 244.119L492.194 244.098ZM276.872 315.523C276.403 317.622 276.787 319.823 277.939 321.639C279.092 323.456 280.919 324.741 283.018 325.211C285.117 325.681 287.317 325.297 289.133 324.145C290.949 322.993 292.233 321.166 292.702 319.067C297.938 295.699 308.921 274.01 324.655 255.962C340.389 237.915 360.377 224.079 382.809 215.71C405.242 207.34 429.409 204.7 453.123 208.029C476.837 211.358 499.347 220.551 518.617 234.775C519.473 235.442 520.454 235.93 521.502 236.212C522.55 236.494 523.644 236.563 524.719 236.415C525.794 236.267 526.828 235.906 527.761 235.352C528.694 234.798 529.506 234.063 530.151 233.19C530.795 232.317 531.258 231.323 531.512 230.268C531.766 229.213 531.807 228.118 531.631 227.047C531.456 225.976 531.068 224.951 530.49 224.032C529.912 223.113 529.156 222.32 528.267 221.697C506.815 205.893 481.766 195.684 455.382 191.994C428.999 188.303 402.115 191.248 377.16 200.562C352.205 209.876 329.967 225.264 312.457 245.336C294.947 265.409 282.716 289.531 276.872 315.523ZM337.756 176.773C335.926 177.833 334.585 179.568 334.022 181.606C333.458 183.644 333.717 185.823 334.743 187.672C335.768 189.522 337.478 190.896 339.505 191.499C341.532 192.101 343.714 191.884 345.583 190.894C384.373 169.62 429.599 163.243 472.769 172.96C482.741 175.205 492.516 178.253 501.997 182.075C502.991 182.511 504.062 182.743 505.147 182.758C506.232 182.773 507.309 182.571 508.314 182.163C509.32 181.755 510.233 181.15 511.001 180.383C511.769 179.616 512.375 178.704 512.785 177.699C513.194 176.694 513.399 175.617 513.385 174.532C513.372 173.447 513.142 172.375 512.708 171.38C512.274 170.385 511.646 169.487 510.86 168.739C510.074 167.991 509.146 167.407 508.131 167.023C497.824 162.819 487.187 159.478 476.328 157.034C429.304 146.491 380.057 153.442 337.798 176.585L337.756 176.773ZM419.996 122.655C420.068 124.807 420.976 126.846 422.527 128.338C424.078 129.831 426.15 130.66 428.302 130.649C446.063 130.27 463.805 132.049 481.139 135.947L483.212 136.411C485.297 136.807 487.456 136.408 489.261 135.292C491.067 134.177 492.39 132.425 492.969 130.383C493.432 128.291 493.061 126.101 491.934 124.278C490.808 122.455 489.015 121.144 486.938 120.622L484.676 120.116C466.072 115.967 447.043 114.032 427.986 114.351C425.829 114.402 423.779 115.303 422.282 116.858C420.786 118.414 419.965 120.497 419.996 122.655ZM270.611 129.683C268.885 130.95 267.732 132.851 267.408 134.968C267.083 137.085 267.613 139.244 268.88 140.971C270.147 142.698 272.048 143.851 274.165 144.177C276.282 144.502 278.441 143.973 280.167 142.706C332.448 104.113 397.412 86.7661 461.982 94.1573C464.04 94.4106 466.117 93.863 467.782 92.6278C469.447 91.3927 470.574 89.5645 470.928 87.5214C471.283 85.4783 470.839 83.3767 469.688 81.6513C468.538 79.9259 466.768 78.7086 464.745 78.2515L463.897 78.0616C395.267 70.1419 326.199 88.5566 270.632 129.589L270.611 129.683ZM229.182 173.84C227.719 173.513 226.194 173.597 224.776 174.083C223.358 174.569 222.102 175.438 221.147 176.593C193.925 209.658 174.927 248.707 165.707 290.538C165.237 292.638 165.622 294.838 166.774 296.654C167.927 298.471 169.754 299.756 171.853 300.226C173.952 300.696 176.151 300.312 177.968 299.16C179.784 298.008 181.067 296.181 181.537 294.082C190.217 254.71 208.092 217.956 233.701 186.825C234.586 185.755 235.181 184.476 235.43 183.11C235.678 181.745 235.572 180.338 235.12 179.025C234.668 177.712 233.887 176.537 232.851 175.612C231.815 174.688 230.559 174.045 229.203 173.746L229.182 173.84ZM280.904 87.1637C280.342 86.241 279.598 85.4435 278.716 84.8205C277.834 84.1975 276.833 83.7624 275.776 83.5422C273.699 83.0728 271.521 83.4381 269.712 84.5593C223.994 112.651 186.292 152.058 160.244 198.976C159.692 199.91 159.332 200.945 159.186 202.02C159.041 203.095 159.113 204.188 159.399 205.235C159.684 206.282 160.176 207.261 160.847 208.114C161.518 208.967 162.353 209.677 163.303 210.201C164.253 210.725 165.298 211.054 166.377 211.166C167.456 211.279 168.547 211.173 169.584 210.856C170.622 210.539 171.585 210.017 172.416 209.32C173.248 208.624 173.931 207.767 174.425 206.801C199.125 162.325 234.869 124.969 278.209 98.3353C280.035 97.2005 281.341 95.3928 281.845 93.3025C282.349 91.2122 282.011 89.0072 280.904 87.1637ZM344.461 59.5371C345.048 61.6104 346.425 63.3704 348.297 64.4373C350.169 65.5043 352.384 65.7926 354.466 65.24C381.968 57.657 410.424 54.0954 438.948 54.666C441.1 54.7083 443.181 53.8974 444.737 52.4104C446.293 50.9234 447.197 48.881 447.252 46.7291C447.293 44.8647 446.686 43.0436 445.534 41.5767C444.382 40.1098 442.757 39.088 440.936 38.6856C440.401 38.5391 439.846 38.4817 439.292 38.5155C409.221 37.8718 379.218 41.6221 350.233 49.648C348.164 50.24 346.41 51.6184 345.345 53.4882C344.28 55.3579 343.989 57.5703 344.535 59.6524L344.461 59.5371ZM128.641 302.327C130.888 312.574 136.562 321.749 144.725 328.337C152.889 334.925 163.054 338.531 173.541 338.561C184.029 338.591 194.211 335.041 202.407 328.5C210.603 321.958 216.322 312.815 218.619 302.582C226.349 268.084 242.268 235.958 265.032 208.917C287.796 181.876 316.735 160.715 349.405 147.223C351.327 146.362 352.84 144.788 353.623 142.832C354.406 140.876 354.398 138.692 353.601 136.741C352.804 134.79 351.281 133.225 349.352 132.377C347.423 131.528 345.24 131.463 343.265 132.194C308.197 146.674 277.134 169.389 252.703 198.417C228.271 227.445 211.191 261.933 202.905 298.965C201.42 305.616 197.711 311.56 192.39 315.816C187.069 320.071 180.455 322.383 173.641 322.369C166.827 322.355 160.221 320.015 154.915 315.738C149.609 311.46 145.92 305.5 144.459 298.843C143.52 294.574 143.528 290.151 144.485 285.886C144.954 283.787 144.57 281.587 143.417 279.77C142.265 277.954 140.438 276.669 138.339 276.199C136.239 275.729 134.04 276.112 132.224 277.265C130.408 278.417 129.124 280.243 128.655 282.343C127.174 288.921 127.169 295.746 128.641 302.327ZM155.354 374.503C177.118 379.341 199.909 375.352 218.731 363.411C237.553 351.469 250.871 332.549 255.765 310.798C259.866 292.378 266.786 274.703 276.28 258.397C277.357 256.538 277.661 254.331 277.126 252.25C276.592 250.169 275.263 248.38 273.424 247.269C272.693 246.829 271.893 246.516 271.058 246.343C269.386 245.962 267.636 246.122 266.061 246.802C264.487 247.481 263.169 248.643 262.299 250.122C251.927 267.854 244.389 287.099 239.956 307.16C236.03 324.73 225.286 340.018 210.088 349.66C194.889 359.303 176.481 362.511 158.913 358.578C141.345 354.645 126.056 343.894 116.409 328.689C106.763 313.484 103.549 295.072 107.475 277.502C123.469 206.835 161.923 143.259 217.079 96.2962C272.235 49.3331 341.124 21.5099 413.43 16.9933C415.387 16.8826 417.237 16.0678 418.64 14.6994C420.042 13.3311 420.903 11.5014 421.062 9.54795C421.221 7.59449 420.669 5.64914 419.506 4.07069C418.344 2.49225 416.65 1.38727 414.738 0.95963C414.006 0.797063 413.256 0.729021 412.507 0.757175C336.685 5.4609 264.437 34.6167 206.593 83.8545C148.75 133.092 108.426 199.76 91.6663 273.865C86.8367 295.63 90.833 318.426 102.779 337.256C114.726 356.085 133.647 369.412 155.396 374.315L155.354 374.503ZM147.079 411.537C176.024 418.014 206.333 413.758 232.369 399.561C233.301 399.055 234.124 398.37 234.79 397.546C235.457 396.722 235.955 395.774 236.256 394.757C236.557 393.74 236.654 392.674 236.543 391.619C236.432 390.565 236.114 389.542 235.608 388.61C235.101 387.678 234.416 386.855 233.592 386.188C232.768 385.52 231.82 385.022 230.803 384.721C229.786 384.419 228.72 384.322 227.666 384.433C226.611 384.543 225.589 384.861 224.657 385.367C206.796 395.147 186.491 399.567 166.178 398.098C145.864 396.629 126.403 389.333 110.126 377.085C93.8485 364.836 81.446 348.155 74.4043 329.039C67.3627 309.923 65.9805 289.184 70.4234 269.307C71.371 265.066 72.3185 260.826 73.4334 256.722C73.9657 254.64 73.6551 252.431 72.569 250.576C71.483 248.722 69.7093 247.37 67.6331 246.815L67.3505 246.752C65.3007 246.306 63.1585 246.666 61.3675 247.757C59.5765 248.848 58.274 250.587 57.7299 252.613C56.5729 256.905 55.5832 261.334 54.5935 265.763C47.5718 297.351 53.3658 330.438 70.7043 357.767C88.0428 385.096 115.51 404.433 147.079 411.537ZM164.885 444.317C164.875 445.383 165.076 446.441 165.478 447.429C165.88 448.417 166.473 449.315 167.224 450.072C167.975 450.829 168.869 451.43 169.853 451.839C170.838 452.249 171.893 452.459 172.959 452.457C209.448 452.513 244.866 440.153 273.394 417.41C301.922 394.666 321.864 362.891 329.942 327.305C334.47 306.931 344.92 288.353 359.978 273.907C375.036 259.461 394.03 249.792 414.571 246.115C416.411 245.793 418.083 244.842 419.301 243.426C420.519 242.01 421.209 240.216 421.253 238.348C421.297 236.48 420.693 234.654 419.543 233.181C418.393 231.708 416.769 230.679 414.946 230.268C413.907 230.017 412.824 230.012 411.784 230.253C388.098 234.457 366.19 245.584 348.825 262.23C331.459 278.875 319.413 300.293 314.206 323.782C306.935 355.76 289.009 384.312 263.371 404.751C237.733 425.19 205.907 436.303 173.115 436.265C170.968 436.265 168.908 437.113 167.384 438.625C165.86 440.137 164.996 442.191 164.979 444.338L164.885 444.317ZM78.547 421.13C79.4034 421.797 80.3845 422.286 81.4325 422.567C82.4805 422.849 83.5742 422.918 84.6492 422.77C85.7241 422.622 86.7585 422.261 87.6914 421.707C88.6243 421.153 89.4368 420.418 90.081 419.545C90.7253 418.672 91.1882 417.678 91.4425 416.623C91.6968 415.569 91.7373 414.473 91.5618 413.402C91.3862 412.331 90.9981 411.306 90.4202 410.387C89.8423 409.469 89.0865 408.675 88.1971 408.053C63.7022 389.824 45.5779 364.333 36.4041 335.209C35.971 333.85 35.1898 332.627 34.1384 331.663C33.0869 330.699 31.8016 330.026 30.41 329.712C29.0219 329.422 27.5844 329.474 26.2209 329.862C24.1693 330.514 22.4577 331.949 21.4575 333.855C20.4573 335.762 20.2492 337.986 20.8784 340.045C31.108 372.439 51.2965 400.782 78.5681 421.036L78.547 421.13ZM5.27006 396.613C25.2976 429.036 54.2757 454.973 88.7083 471.296C114.615 483.596 142.881 490.128 171.553 490.438C200.226 490.749 228.622 484.832 254.78 473.095C280.939 461.359 304.237 444.082 323.066 422.46C341.895 400.837 355.805 375.383 363.837 347.855C364.133 346.829 364.224 345.755 364.104 344.694C363.984 343.633 363.656 342.606 363.139 341.672C362.621 340.738 361.925 339.915 361.089 339.251C360.253 338.587 359.294 338.094 358.267 337.801L357.796 337.696C355.777 337.245 353.663 337.581 351.883 338.635C350.104 339.688 348.793 341.382 348.218 343.369C337.147 381.007 314.241 414.071 282.897 437.657C251.554 461.243 213.441 474.095 174.211 474.308C147.047 474.263 120.222 468.258 95.6268 456.716C64.018 441.753 37.4118 417.962 19.0197 388.213C18.4587 387.29 17.714 386.492 16.8321 385.869C15.9501 385.246 14.9496 384.811 13.8926 384.591C12.3309 384.237 10.6995 384.354 9.20423 384.926C7.70892 385.498 6.41653 386.5 5.48994 387.806C4.56335 389.112 4.04403 390.663 3.9974 392.263C3.95078 393.864 4.37897 395.443 5.22797 396.801L5.27006 396.613ZM323.116 475.188C324.297 474.226 325.183 472.952 325.673 471.51C326.164 470.068 326.238 468.517 325.888 467.034C325.538 465.551 324.777 464.197 323.694 463.127C322.61 462.056 321.247 461.312 319.761 460.98C318.564 460.702 317.32 460.705 316.124 460.986C314.929 461.268 313.815 461.821 312.868 462.603C296.746 475.771 278.84 486.587 259.683 494.728C257.71 495.573 256.153 497.166 255.355 499.159C254.558 501.151 254.584 503.379 255.429 505.353C256.273 507.327 257.867 508.884 259.86 509.683C261.852 510.481 264.08 510.456 266.053 509.611C286.612 500.851 305.83 489.231 323.137 475.093L323.116 475.188ZM441.128 352.195C441.597 350.096 441.213 347.896 440.061 346.079C438.908 344.262 437.081 342.978 434.982 342.508C432.883 342.038 430.683 342.421 428.867 343.573C427.051 344.725 425.767 346.552 425.298 348.651C410.806 414.179 371.238 471.419 315.065 508.116C313.279 509.312 312.034 511.162 311.6 513.268C311.167 515.374 311.579 517.567 312.748 519.372C313.333 520.266 314.088 521.036 314.971 521.637C315.854 522.238 316.847 522.658 317.893 522.874C318.939 523.09 320.018 523.097 321.066 522.894C322.115 522.692 323.113 522.284 324.003 521.694C383.756 482.733 425.842 421.885 441.222 352.216L441.128 352.195ZM478.159 360.485C480.823 348.564 478.642 336.07 472.097 325.754C465.552 315.437 455.178 308.142 443.257 305.474C431.337 302.805 418.847 304.982 408.534 311.524C398.222 318.067 390.932 328.44 388.268 340.362C383.753 360.709 376.375 380.312 366.353 398.584C365.8 399.518 365.44 400.553 365.295 401.628C365.15 402.703 365.222 403.797 365.507 404.844C365.792 405.89 366.285 406.869 366.956 407.722C367.626 408.575 368.461 409.285 369.411 409.809C370.361 410.334 371.407 410.662 372.486 410.774C373.565 410.887 374.655 410.781 375.693 410.464C376.73 410.147 377.693 409.625 378.525 408.928C379.356 408.232 380.039 407.375 380.534 406.41C391.288 386.787 399.22 365.745 404.098 343.905C405.829 336.158 410.567 329.416 417.269 325.164C423.971 320.912 432.088 319.498 439.835 321.232C447.582 322.966 454.324 327.707 458.578 334.412C462.832 341.117 464.249 349.236 462.517 356.983C448.525 420.729 413.658 477.972 363.444 519.639C361.786 521.013 360.741 522.99 360.54 525.134C360.339 527.279 360.998 529.416 362.373 531.075C363.747 532.734 365.724 533.779 367.868 533.981C370.012 534.183 372.149 533.524 373.807 532.151C426.796 488.19 463.587 427.79 478.347 360.527L478.159 360.485ZM468.433 481.497C477.972 466.62 486.351 451.029 493.496 434.864C493.929 433.889 494.165 432.838 494.191 431.771C494.218 430.704 494.034 429.643 493.65 428.647C493.266 427.652 492.69 426.741 491.954 425.968C491.218 425.195 490.337 424.575 489.362 424.143C488.859 423.915 488.337 423.732 487.802 423.596C485.984 423.202 484.087 423.442 482.425 424.276C480.762 425.11 479.436 426.487 478.665 428.18C461.781 466.311 437.837 500.903 408.096 530.13C406.565 531.637 405.696 533.691 405.68 535.84C405.663 537.989 406.501 540.056 408.009 541.588C409.517 543.12 411.571 543.99 413.719 544.007C415.868 544.024 417.935 543.186 419.466 541.679C437.96 523.466 454.36 503.242 468.359 481.382L468.433 481.497ZM492.71 549.962C507.702 531.378 521.045 511.52 532.586 490.615C533.434 489.076 534.763 487.858 536.369 487.146C537.976 486.433 539.771 486.266 541.481 486.669C542.244 486.841 542.982 487.106 543.679 487.458C544.613 487.97 545.436 488.661 546.102 489.491C546.768 490.322 547.262 491.276 547.558 492.299C547.854 493.321 547.944 494.392 547.825 495.45C547.705 496.507 547.377 497.531 546.86 498.461C534.875 520.196 520.994 540.829 505.379 560.12C504.714 560.946 503.893 561.632 502.962 562.141C502.032 562.649 501.01 562.968 499.956 563.082C498.902 563.195 497.835 563.099 496.818 562.8C495.8 562.501 494.852 562.004 494.026 561.339C493.2 560.673 492.514 559.851 492.005 558.921C491.497 557.99 491.177 556.968 491.063 555.913C490.95 554.859 491.045 553.792 491.344 552.775C491.642 551.757 492.139 550.809 492.804 549.983L492.71 549.962Z" fill="#8FD8FF"></path></g><defs><clipPath id="clip0_2053_3139"><rect width="412" height="420" fill="white"></rect></clipPath></defs></svg>