<svg xmlns="http://www.w3.org/2000/svg" width="318" height="274" viewBox="0 0 318 274" fill="none"><g clip-path="url(#clip0_2055_6835)"><mask id="mask0_2055_6835" style="mask-type:luminance" maskUnits="userSpaceOnUse" x="-317" y="-1" width="698" height="671"><path d="M380.047 0.0730563L-316.953 -0.0634766L-316.823 669.781L380.177 669.917L380.047 0.0730563Z" fill="white"></path></mask><g mask="url(#mask0_2055_6835)"><path d="M142.007 442.123C142.007 440.118 141.412 438.158 140.298 436.491C139.183 434.823 137.6 433.523 135.747 432.756C133.895 431.988 131.856 431.787 129.89 432.178C127.923 432.568 126.117 433.534 124.699 434.951C123.282 436.369 122.316 438.175 121.926 440.141C121.535 442.108 121.736 444.147 122.504 445.999C123.271 447.852 124.571 449.436 126.238 450.55C127.906 451.664 129.866 452.259 131.871 452.259C134.555 452.244 137.124 451.172 139.022 449.274C140.919 447.377 141.992 444.807 142.007 442.123ZM254.1 282.107C254.099 280.102 253.505 278.142 252.39 276.474C251.276 274.807 249.692 273.507 247.84 272.739C245.987 271.971 243.948 271.77 241.982 272.161C240.015 272.552 238.209 273.517 236.792 274.935C235.374 276.352 234.409 278.159 234.018 280.125C233.627 282.092 233.828 284.13 234.596 285.983C235.364 287.836 236.663 289.419 238.331 290.533C239.998 291.648 241.958 292.243 243.964 292.243C246.648 292.228 249.217 291.155 251.114 289.258C253.012 287.36 254.085 284.791 254.1 282.107ZM59.8407 570.041C59.8411 572.047 60.436 574.007 61.5503 575.674C62.6646 577.342 64.2483 578.642 66.101 579.409C67.9536 580.177 69.9921 580.378 71.9586 579.987C73.9252 579.596 75.7314 578.631 77.149 577.214C78.5666 575.796 79.5318 573.99 79.9226 572.023C80.3134 570.057 80.1122 568.018 79.3445 566.166C78.5768 564.313 77.2771 562.729 75.6097 561.615C73.9422 560.501 71.982 559.906 69.9768 559.905C67.2929 559.921 64.7236 560.993 62.8261 562.891C60.9286 564.788 59.856 567.358 59.8407 570.041ZM-10.2956 499.06C-10.2952 501.066 -9.70016 503.026 -8.58584 504.693C-7.47152 506.361 -5.88795 507.66 -4.03529 508.428C-2.18263 509.196 -0.144162 509.397 1.82238 509.006C3.78892 508.615 5.59525 507.65 7.01282 506.233C8.4304 504.815 9.3956 503.009 9.7864 501.042C10.1772 499.076 9.97598 497.037 9.20829 495.184C8.44059 493.332 7.14085 491.748 5.47342 490.634C3.80599 489.52 1.84581 488.925 -0.159333 488.924C-2.84326 488.94 -5.41257 490.012 -7.31005 491.91C-9.20754 493.807 -10.2803 496.376 -10.2956 499.06ZM77.2966 340.97C75.2914 340.97 73.3315 341.564 71.6645 342.678C69.9975 343.791 68.6984 345.375 67.9314 347.227C67.1644 349.079 66.964 351.118 67.3555 353.084C67.7471 355.051 68.713 356.858 70.1311 358.276C71.5493 359.694 73.356 360.66 75.3227 361.051C77.2894 361.443 79.3278 361.243 81.1801 360.476C83.0325 359.709 84.6155 358.41 85.7292 356.743C86.8429 355.076 87.4372 353.116 87.4368 351.11C87.4204 348.427 86.3467 345.857 84.4485 343.958C82.5502 342.06 79.9805 340.987 77.2966 340.97ZM57.1147 206.032C55.1096 206.032 53.1496 206.626 51.4826 207.739C49.8156 208.853 48.5164 210.436 47.7495 212.289C46.9825 214.141 46.7821 216.179 47.1737 218.146C47.5653 220.113 48.5312 221.919 49.9493 223.338C51.3674 224.756 53.174 225.722 55.1407 226.113C57.1074 226.505 59.1458 226.304 60.9982 225.537C62.8505 224.77 64.4337 223.471 65.5474 221.804C66.661 220.137 67.2552 218.177 67.2548 216.172C67.2385 213.488 66.1648 210.918 64.2666 209.02C62.3684 207.122 59.7987 206.048 57.1147 206.032ZM198.901 61.8321C198.9 59.8269 198.305 57.8667 197.191 56.1993C196.077 54.5319 194.493 53.232 192.64 52.4643C190.788 51.6966 188.749 51.4954 186.783 51.8862C184.816 52.277 183.01 53.2422 181.592 54.6598C180.175 56.0773 179.209 57.8837 178.819 59.8502C178.428 61.8168 178.629 63.8553 179.397 65.708C180.164 67.5606 181.464 69.1441 183.132 70.2584C184.799 71.3728 186.759 71.9678 188.764 71.9682C191.448 71.9529 194.018 70.8802 195.915 68.9827C197.813 67.0852 198.885 64.516 198.901 61.8321ZM-68.3 128.281C-70.3051 128.281 -72.2652 128.875 -73.9322 129.989C-75.5992 131.102 -76.8983 132.686 -77.6653 134.538C-78.4322 136.39 -78.6326 138.429 -78.241 140.395C-77.8495 142.362 -76.8835 144.169 -75.4654 145.587C-74.0473 147.005 -72.2407 147.971 -70.274 148.362C-68.3073 148.754 -66.2689 148.554 -64.4165 147.787C-62.5642 147.02 -60.981 145.721 -59.8674 144.054C-58.7537 142.387 -58.1595 140.427 -58.1599 138.421C-58.1762 135.737 -59.2499 133.168 -61.1481 131.27C-63.0463 129.371 -65.6161 128.298 -68.3 128.281ZM-126.061 389.328C-126.061 391.333 -125.466 393.293 -124.351 394.961C-123.237 396.628 -121.653 397.928 -119.801 398.696C-117.948 399.464 -115.91 399.665 -113.943 399.274C-111.977 398.883 -110.17 397.918 -108.753 396.5C-107.335 395.083 -106.37 393.277 -105.979 391.31C-105.588 389.343 -105.79 387.305 -106.557 385.452C-107.325 383.6 -108.625 382.016 -110.292 380.902C-111.959 379.787 -113.92 379.192 -115.925 379.192C-118.609 379.207 -121.178 380.28 -123.076 382.178C-124.973 384.075 -126.046 386.644 -126.061 389.328ZM-228.685 209.235C-226.68 209.235 -224.72 208.641 -223.053 207.527C-221.386 206.413 -220.087 204.83 -219.32 202.978C-218.553 201.126 -218.352 199.087 -218.744 197.121C-219.135 195.154 -220.101 193.347 -221.519 191.929C-222.937 190.511 -224.744 189.545 -226.711 189.153C-228.678 188.762 -230.716 188.962 -232.568 189.729C-234.421 190.496 -236.004 191.795 -237.117 193.462C-238.231 195.129 -238.825 197.089 -238.825 199.095C-238.809 201.778 -237.735 204.348 -235.837 206.246C-233.938 208.145 -231.369 209.218 -228.685 209.235ZM-69.4732 301.837C-80.367 315.718 -95.3193 325.854 -112.248 330.835C-129.177 335.816 -147.24 335.393 -163.921 329.626C-180.603 323.859 -195.073 313.035 -205.317 298.66C-215.561 284.285 -221.069 267.075 -221.073 249.427C-221.074 246.738 -222.142 244.159 -224.044 242.257C-225.946 240.356 -228.525 239.287 -231.213 239.287C-233.902 239.286 -236.481 240.354 -238.382 242.255C-240.283 244.155 -241.35 246.734 -241.35 249.423C-241.346 271.287 -234.525 292.609 -221.837 310.419C-209.149 328.23 -191.224 341.643 -170.559 348.792C-149.894 355.941 -127.516 356.469 -106.542 350.303C-85.5678 344.137 -67.0404 331.585 -53.5393 314.392C-51.8752 312.28 -51.1187 309.593 -51.4361 306.922C-51.7535 304.251 -53.1188 301.815 -55.2318 300.15C-56.278 299.326 -57.4764 298.715 -58.7583 298.354C-60.0402 297.993 -61.3806 297.887 -62.703 298.044C-65.3738 298.36 -67.8091 299.725 -69.4732 301.837ZM-179.406 395.352C-176.984 395.354 -174.642 394.487 -172.805 392.91C-170.968 391.332 -169.757 389.148 -169.393 386.754C-169.028 384.36 -169.534 381.914 -170.818 379.86C-172.103 377.806 -174.08 376.28 -176.393 375.559C-203.208 367.063 -226.62 350.241 -243.229 327.535C-259.837 304.829 -268.775 277.423 -268.747 249.297C-268.776 169.957 -248.517 91.936 -209.893 22.6475C-209.243 21.4906 -208.828 20.2171 -208.671 18.8995C-208.513 17.5819 -208.617 16.246 -208.976 14.9683C-209.335 13.6906 -209.942 12.4961 -210.762 11.4528C-211.583 10.4095 -212.601 9.53783 -213.758 8.88777C-214.915 8.23771 -216.189 7.82187 -217.506 7.66401C-218.824 7.50616 -220.16 7.60946 -221.437 7.96785C-222.715 8.32623 -223.909 8.93273 -224.952 9.7528C-225.995 10.5729 -226.866 11.5904 -227.516 12.7473C-267.821 85.0616 -288.953 166.491 -288.903 249.293C-288.882 257.782 -288.195 266.257 -286.846 274.639C-282.245 302.348 -270.066 328.247 -251.657 349.467C-233.248 370.687 -209.328 386.401 -182.544 394.869C-181.574 395.205 -180.553 395.369 -179.527 395.352L-179.406 395.352ZM63.7612 249.483C63.7607 246.794 62.6921 244.215 60.7905 242.313C58.8888 240.412 56.3099 239.343 53.6211 239.342C50.9323 239.342 48.3538 240.409 46.4529 242.31C44.552 244.211 43.4843 246.79 43.4848 249.479C43.4723 279.411 35.993 308.865 21.7242 335.172C7.45538 361.479 -13.1521 383.809 -38.2318 400.139C-63.3115 416.468 -92.071 426.282 -121.906 428.69C-151.74 431.099 -181.707 426.027 -209.093 413.933C-210.319 413.353 -211.649 413.025 -213.005 412.968C-214.36 412.91 -215.713 413.124 -216.984 413.598C-218.255 414.071 -219.418 414.794 -220.405 415.725C-221.391 416.655 -222.182 417.773 -222.73 419.014C-223.277 420.255 -223.571 421.592 -223.593 422.949C-223.616 424.305 -223.366 425.652 -222.86 426.911C-222.354 428.169 -221.601 429.314 -220.645 430.277C-219.689 431.24 -218.551 432.002 -217.296 432.518C-186.818 445.945 -153.477 451.563 -120.287 448.867C-87.0978 446.171 -55.1072 435.244 -27.2079 417.075C0.691269 398.906 23.6191 374.067 39.5023 344.806C55.3855 315.544 63.7231 282.782 63.7612 249.483ZM27.3482 435.342C29.291 433.551 30.453 431.068 30.5842 428.428C30.7155 425.788 29.8055 423.202 28.05 421.225C26.2946 419.248 23.8338 418.039 21.1968 417.857C18.5598 417.675 15.957 418.536 13.9483 420.253C-27.5654 456.786 -80.9928 476.903 -136.303 476.828C-149.08 476.81 -161.835 475.759 -174.442 473.683C-175.774 473.423 -177.144 473.432 -178.471 473.71C-179.799 473.987 -181.057 474.528 -182.172 475.3C-183.287 476.072 -184.237 477.059 -184.964 478.204C-185.691 479.348 -186.182 480.627 -186.408 481.965C-186.633 483.302 -186.588 484.671 -186.276 485.991C-185.964 487.311 -185.391 488.556 -184.59 489.651C-183.79 490.746 -182.778 491.671 -181.615 492.369C-180.452 493.067 -179.161 493.526 -177.818 493.717C-164.099 496.033 -150.211 497.207 -136.299 497.225C-76.0627 497.257 -17.8866 475.343 27.3482 435.584L27.3482 435.342ZM-58.2057 523.793C-58.8799 521.188 -60.5436 518.949 -62.8428 517.551C-65.1421 516.153 -67.8956 515.707 -70.5178 516.308C-92.0795 521.616 -114.207 524.287 -136.414 524.26L-139.07 524.26C-141.722 524.346 -144.246 525.421 -146.144 527.275C-148.042 529.129 -149.178 531.626 -149.327 534.275C-149.321 536.953 -148.271 539.523 -146.399 541.44C-144.528 543.356 -141.984 544.467 -139.307 544.536L-136.411 544.537C-112.585 544.522 -88.8453 541.691 -65.6863 536.102C-63.0683 535.451 -60.8137 533.793 -59.4128 531.488C-58.012 529.183 -57.5781 526.417 -58.2057 523.793ZM122.099 474.465C123.86 472.449 124.746 469.816 124.565 467.145C124.383 464.474 123.148 461.984 121.131 460.223C119.114 458.462 116.481 457.574 113.81 457.755C111.139 457.936 108.65 459.17 106.89 461.186C53.646 522.526 -20.8656 561.409 -101.646 570.01C-104.226 570.262 -106.609 571.497 -108.303 573.458C-109.997 575.419 -110.873 577.956 -110.748 580.545C-110.624 583.134 -109.509 585.577 -107.634 587.367C-105.76 589.158 -103.269 590.16 -100.677 590.166L-99.5904 590.166C-13.7144 581.103 65.5129 539.797 122.099 474.586L122.099 474.465ZM160.588 409.299C162.462 409.298 164.299 408.78 165.896 407.8C167.494 406.821 168.789 405.418 169.639 403.749C193.823 355.988 206.345 303.173 206.179 249.631C206.178 246.942 205.109 244.364 203.208 242.462C201.306 240.56 198.727 239.492 196.038 239.491C193.35 239.491 190.771 240.558 188.87 242.459C186.969 244.36 185.902 246.938 185.902 249.627C186.055 300.022 174.278 349.732 151.533 394.693C150.745 396.239 150.368 397.961 150.438 399.695C150.507 401.429 151.021 403.116 151.93 404.595C152.839 406.073 154.113 407.293 155.629 408.138C157.145 408.983 158.853 409.424 160.588 409.419L160.588 409.299ZM121.145 529.139C122.081 530.111 123.207 530.881 124.452 531.4C125.698 531.919 127.037 532.177 128.387 532.157C131.048 532.163 133.605 531.124 135.507 529.262C183.61 482.522 218.849 424.168 237.821 359.83C238.241 358.54 238.398 357.18 238.282 355.829C238.166 354.477 237.779 353.163 237.146 351.964C236.512 350.765 235.644 349.705 234.593 348.847C233.543 347.99 232.33 347.352 231.028 346.972C229.727 346.591 228.362 346.476 227.015 346.634C225.668 346.791 224.366 347.217 223.188 347.887C222.009 348.557 220.977 349.456 220.152 350.533C219.328 351.609 218.728 352.841 218.389 354.153C200.393 415.145 166.984 470.464 121.383 514.776C119.466 516.659 118.366 519.22 118.321 521.907C118.276 524.595 119.291 527.192 121.145 529.139ZM51.1527 580.178C49.8721 577.809 47.7117 576.038 45.1374 575.247C42.5632 574.456 39.7816 574.709 37.393 575.951C5.91473 592.704 -27.8243 604.812 -62.775 611.898C-65.4114 612.433 -67.7285 613.99 -69.2205 616.228C-70.7125 618.467 -71.2582 621.205 -70.7383 623.845C-70.2795 626.13 -69.042 628.186 -67.2368 629.661C-65.4316 631.136 -63.1707 631.939 -60.8399 631.933C-60.1474 631.966 -59.4543 631.884 -58.7882 631.692C-21.931 624.273 13.6436 611.513 46.8105 593.815C49.1722 592.529 50.9363 590.369 51.7252 587.798C52.5142 585.226 52.2654 582.448 51.032 580.057L51.1527 580.178ZM248.175 225.139C242.639 213.253 233.215 203.609 221.46 197.8C209.705 191.991 196.321 190.365 183.52 193.19C170.719 196.015 159.267 203.122 151.054 213.338C142.841 223.554 138.359 236.266 138.349 249.376C138.332 293.565 127.679 337.097 107.288 376.292C86.898 415.488 57.3703 449.195 21.2004 474.566C19.09 476.141 17.6744 478.474 17.2528 481.074C16.8312 483.673 17.4365 486.335 18.9409 488.497C20.4453 490.659 22.731 492.153 25.3152 492.661C27.8994 493.17 30.5797 492.655 32.7901 491.224C71.6161 463.993 103.31 427.811 125.192 385.737C147.074 343.662 158.501 296.933 158.505 249.501C158.501 240.983 161.404 232.72 166.733 226.077C172.063 219.435 179.5 214.81 187.816 212.969C196.132 211.127 204.828 212.178 212.468 215.948C220.107 219.719 226.232 225.983 229.831 233.704C232.142 238.656 233.338 244.053 233.334 249.516C233.335 252.205 234.404 254.784 236.305 256.685C238.207 258.587 240.786 259.655 243.475 259.656C246.163 259.657 248.742 258.589 250.643 256.688C252.544 254.787 253.611 252.209 253.611 249.52C253.623 241.092 251.766 232.765 248.175 225.139ZM195.899 144.385C168.032 144.421 141.319 155.505 121.618 175.206C101.916 194.908 90.8325 221.62 90.7964 249.488C90.8195 273.076 87.2008 296.524 80.0683 319.005C79.2623 321.566 79.4938 324.341 80.7131 326.734C81.9324 329.127 84.0421 330.946 86.5882 331.799C87.5995 332.136 88.6605 332.3 89.7262 332.283C91.8702 332.292 93.9612 331.619 95.6968 330.361C97.4323 329.103 98.7224 327.325 99.3803 325.285C107.194 300.825 111.14 275.293 111.073 249.613C111.068 227.11 120.003 205.53 135.912 189.622C151.821 173.713 173.4 164.778 195.903 164.782C218.406 164.787 239.989 173.73 255.904 189.645C271.819 205.56 280.762 227.143 280.767 249.646C280.537 340.21 250.975 428.252 196.507 500.586C142.04 572.92 65.5981 625.654 -21.3698 650.89C-23.7262 651.558 -25.7608 653.057 -27.0984 655.109C-28.4359 657.161 -28.9861 659.627 -28.6474 662.054C-28.3087 664.48 -27.104 666.702 -25.2556 668.31C-23.4071 669.919 -21.0397 670.805 -18.59 670.804C-17.653 670.803 -16.7201 670.682 -15.8142 670.443C75.3922 644.019 155.567 588.744 212.692 512.902C269.817 437.06 300.816 344.737 301.043 249.77C300.996 221.903 289.902 195.186 270.193 175.477C250.484 155.768 223.767 144.674 195.899 144.627L195.899 144.385ZM195.89 96.9531C158.815 96.9499 123.005 110.41 95.1191 134.831C94.1208 135.702 93.3039 136.762 92.7152 137.949C92.1265 139.137 91.7775 140.428 91.6881 141.751C91.5987 143.073 91.7706 144.401 92.1941 145.657C92.6176 146.913 93.2844 148.074 94.1563 149.072C95.0282 150.071 96.0882 150.888 97.2758 151.477C98.4634 152.067 99.7554 152.416 101.078 152.506C102.4 152.596 103.727 152.424 104.984 152.001C106.24 151.578 107.4 150.912 108.398 150.041C127.518 133.238 151.08 122.307 176.259 118.557C201.439 114.807 227.169 118.397 250.365 128.897C273.562 139.397 293.242 156.362 307.047 177.758C320.851 199.155 328.195 224.076 328.199 249.534C328.2 254.966 328.201 260.397 327.961 265.707C327.879 268.392 328.861 271.001 330.692 272.967C332.522 274.934 335.055 276.099 337.739 276.209L338.101 276.209C340.723 276.194 343.238 275.17 345.125 273.351C347.012 271.531 348.126 269.055 348.237 266.435C348.477 260.883 348.476 255.211 348.475 249.538C348.423 209.092 332.328 170.312 303.722 141.706C275.117 113.1 236.337 97.0057 195.89 96.9531ZM165.227 61.8255C164.948 60.5222 164.414 59.2871 163.654 58.1916C162.895 57.0962 161.926 56.1621 160.804 55.4435C159.681 54.725 158.427 54.2361 157.114 54.0053C155.802 53.7744 154.457 53.8062 153.157 54.0988C108.632 63.9858 68.8008 88.7248 40.2068 124.251C11.6127 159.777 -4.04316 203.978 -4.18868 249.59C-4.15339 275.677 -11.8319 301.19 -26.2587 322.92C-40.6856 344.649 -61.2167 361.626 -85.2704 371.715C-87.427 372.61 -89.2065 374.225 -90.3062 376.285C-91.4059 378.345 -91.7578 380.722 -91.3021 383.013C-90.8464 385.303 -89.6112 387.366 -87.8067 388.849C-86.0022 390.332 -83.7398 391.144 -81.4045 391.147C-80.0689 391.17 -78.7465 390.881 -77.5425 390.303C-49.7976 378.713 -26.1101 359.163 -9.46832 334.121C7.17349 309.079 16.0241 279.667 15.967 249.594C16.1128 208.603 30.1895 168.884 55.8866 136.958C81.5837 105.031 117.374 82.7929 157.385 73.8932C160.004 73.3075 162.285 71.7105 163.731 69.4502C165.177 67.1899 165.672 64.4494 165.107 61.8254L165.227 61.8255ZM276.869 66.5543C275.642 65.9746 274.312 65.6462 272.957 65.5886C271.602 65.5309 270.249 65.7452 268.978 66.2187C267.707 66.6922 266.544 67.4155 265.557 68.3457C264.57 69.2759 263.78 70.3944 263.232 71.6351C262.684 72.8758 262.391 74.2137 262.368 75.5699C262.346 76.9261 262.595 78.2732 263.102 79.5318C263.608 80.7903 264.361 81.9349 265.317 82.8979C266.272 83.861 267.411 84.6231 268.665 85.1393C303.518 100.693 332.581 126.842 351.716 159.864C352.616 161.404 353.902 162.683 355.448 163.572C356.994 164.462 358.745 164.932 360.528 164.935C362.3 164.91 364.04 164.455 365.597 163.609C367.922 162.254 369.618 160.037 370.318 157.438C371.018 154.84 370.665 152.07 369.336 149.73C348.02 113.006 315.661 83.9407 276.869 66.675L276.869 66.5543ZM372.942 76.4699C339.667 42.3837 297.242 18.6508 250.788 8.13403C215.83 0.197398 179.57 -0.0580721 144.51 7.3854C109.45 14.8289 76.4266 29.7939 47.7198 51.247C19.0129 72.7001 -4.69322 100.13 -21.7616 131.643C-38.83 163.155 -48.8539 198 -51.1412 233.77C-51.2226 235.102 -51.0402 236.437 -50.6046 237.698C-50.169 238.96 -49.4887 240.123 -48.6026 241.121C-47.7166 242.119 -46.6423 242.933 -45.4414 243.515C-44.2405 244.097 -42.9365 244.436 -41.6044 244.514L-41.001 244.514C-38.4152 244.513 -35.9273 243.527 -34.044 241.756C-32.1608 239.984 -31.0238 237.562 -30.8646 234.981C-27.6283 186.048 -8.7081 139.468 23.0906 102.146C54.8892 64.8244 97.8731 38.7489 145.668 27.7862C178.816 20.4304 213.176 20.4372 246.326 27.8059C288.965 37.4341 327.911 59.1969 358.462 90.4674C359.398 91.4398 360.524 92.2095 361.77 92.7288C363.015 93.2481 364.355 93.5059 365.704 93.4861C367.705 93.4915 369.664 92.9043 371.331 91.7985C372.999 90.6927 374.303 89.1178 375.077 87.2723C375.851 85.4268 376.061 83.3934 375.681 81.428C375.301 79.4627 374.348 77.6536 372.942 76.2286L372.942 76.4699ZM-36.2076 67.3377C-37.3859 68.8327 -38.1193 70.6294 -38.3238 72.5221C-38.5284 74.4147 -38.1959 76.327 -37.3644 78.0399C-36.5329 79.7529 -35.2358 81.1972 -33.622 82.2077C-32.0081 83.2182 -30.1425 83.7538 -28.2387 83.7535C-26.7035 83.7652 -25.1864 83.423 -23.8051 82.7535C-22.4238 82.0839 -21.2154 81.1052 -20.2738 79.893C-4.20096 59.4326 14.6907 41.3539 35.8379 26.1958C38.0142 24.6278 39.4783 22.2591 39.9078 19.611C40.3373 16.9628 39.6972 14.2522 38.1283 12.0752C36.5594 9.89828 34.1902 8.43325 31.5419 8.00268C28.8936 7.57211 26.1832 8.21124 24.0069 9.77929C1.31875 26.0738 -18.953 45.492 -36.2076 67.4586L-36.2076 67.3377ZM-146.606 249.562C-146.605 252.251 -145.537 254.83 -143.635 256.731C-141.734 258.633 -139.155 259.702 -136.466 259.702C-133.777 259.703 -131.199 258.635 -129.298 256.734C-127.397 254.833 -126.329 252.255 -126.33 249.566C-126.529 165.681 -93.8797 85.0642 -35.371 24.9749C-33.5178 23.029 -32.5045 20.4321 -32.5502 17.7448C-32.5959 15.0575 -33.6968 12.4955 -35.6151 10.6124C-36.5722 9.68122 -37.7039 8.94852 -38.945 8.45627C-40.1862 7.96403 -41.5123 7.7221 -42.8471 7.74427C-44.1819 7.76644 -45.4991 8.05232 -46.7228 8.5855C-47.9465 9.11869 -49.0527 9.88858 -49.9776 10.851C-112.236 74.6772 -146.972 160.383 -146.727 249.562L-146.606 249.562ZM-194.038 249.553C-194.035 264.821 -187.967 279.466 -177.168 290.264C-166.37 301.063 -151.725 307.131 -136.457 307.134C-121.188 307.137 -106.546 301.075 -95.7514 290.28C-84.957 279.486 -78.8945 264.844 -78.8974 249.575C-78.9419 223.523 -75.2897 197.598 -68.05 172.575C-67.6303 171.286 -67.4738 169.926 -67.5899 168.574C-67.7059 167.223 -68.0922 165.909 -68.7258 164.71C-69.3594 163.511 -70.2272 162.451 -71.2781 161.593C-72.3289 160.736 -73.5412 160.098 -74.8431 159.717C-76.1449 159.337 -77.5097 159.222 -78.8566 159.379C-80.2035 159.537 -81.505 159.963 -82.6839 160.633C-83.8627 161.302 -84.8949 162.202 -85.7193 163.279C-86.5436 164.355 -87.1433 165.586 -87.4827 166.899C-95.2473 193.768 -99.1831 221.6 -99.1738 249.571C-99.1719 259.494 -103.112 269.01 -110.127 276.025C-117.142 283.041 -126.658 286.981 -136.581 286.979C-146.504 286.977 -156.022 283.033 -163.04 276.015C-170.058 268.997 -174.001 259.48 -174.003 249.557C-174.326 167.982 -147.412 88.6438 -97.5278 24.1179C-95.8797 21.9896 -95.1449 19.2933 -95.485 16.6224C-95.825 13.9515 -97.212 11.5247 -99.341 9.87575C-101.47 8.22683 -104.166 7.4909 -106.837 7.82989C-109.508 8.16888 -111.934 9.55495 -113.582 11.6833C-166.225 79.763 -194.626 163.478 -194.28 249.553L-194.038 249.553ZM-215.189 99.2863C-222.766 120.037 -228.734 141.34 -233.039 163.009C-233.301 164.316 -233.302 165.663 -233.043 166.971C-232.784 168.279 -232.27 169.524 -231.53 170.634C-230.79 171.743 -229.839 172.697 -228.731 173.439C-227.622 174.181 -226.379 174.697 -225.071 174.959C-224.395 175.099 -223.708 175.179 -223.019 175.2C-220.694 175.185 -218.445 174.374 -216.645 172.904C-214.845 171.433 -213.602 169.391 -213.124 167.116C-202.932 115.996 -183.162 67.2685 -154.857 23.5032C-153.401 21.2468 -152.901 18.5041 -153.468 15.8784C-154.034 13.2527 -155.62 10.9591 -157.877 9.50222C-160.134 8.04534 -162.877 7.5444 -165.502 8.10975C-168.128 8.67509 -170.421 10.2604 -171.877 12.5168C-189.467 39.7789 -203.954 68.9233 -215.068 99.407L-215.189 99.2863ZM-263.481 22.3957C-276.699 49.1553 -287.557 77.0181 -295.931 105.667C-296.546 107.775 -297.835 109.624 -299.6 110.931C-301.365 112.238 -303.509 112.932 -305.705 112.907C-306.682 112.905 -307.655 112.783 -308.602 112.544C-309.88 112.175 -311.073 111.557 -312.112 110.725C-313.15 109.893 -314.014 108.865 -314.654 107.698C-315.293 106.531 -315.696 105.25 -315.839 103.927C-315.981 102.604 -315.861 101.267 -315.484 99.9908C-306.794 70.2086 -295.491 41.2529 -281.707 13.4608C-281.121 12.2722 -280.306 11.2108 -279.309 10.3372C-278.313 9.46356 -277.154 8.79478 -275.899 8.36915C-274.644 7.94351 -273.317 7.76932 -271.994 7.85647C-270.672 7.94362 -269.379 8.29044 -268.19 8.8771C-267.001 9.46377 -265.94 10.2788 -265.066 11.2757C-264.192 12.2726 -263.522 13.4318 -263.096 14.6871C-262.67 15.9424 -262.495 17.2692 -262.582 18.5918C-262.669 19.9145 -263.015 21.2071 -263.601 22.3957L-263.481 22.3957Z" fill="#333A73"></path></g></g><defs><clipPath id="clip0_2055_6835"><rect width="318" height="274" fill="white"></rect></clipPath></defs></svg>