<svg xmlns="http://www.w3.org/2000/svg" width="311" height="72" viewBox="0 0 311 72" fill="none"><rect width="311" height="72" rx="36" fill="#5E02DF"></rect><path d="M31.54 43V28.8H34.38V34.94H40.18V28.8H43V43H40.18V37.44H34.38V43H31.54ZM49.9313 43.18C48.5713 43.18 47.4513 42.7133 46.5713 41.78C45.7046 40.8467 45.2713 39.6333 45.2713 38.14C45.2713 36.6733 45.7046 35.4667 46.5713 34.52C47.4513 33.56 48.5513 33.08 49.8713 33.08C51.0846 33.08 52.0446 33.5067 52.7513 34.36L52.7913 34.34V33.22H55.4113V43H52.9113V41.84L52.8713 41.82C52.1646 42.7267 51.1846 43.18 49.9313 43.18ZM50.4313 40.82C51.1246 40.82 51.7113 40.5733 52.1913 40.08C52.6713 39.5867 52.9113 38.9467 52.9113 38.16C52.9113 37.3733 52.6713 36.72 52.1913 36.2C51.7246 35.68 51.1379 35.42 50.4313 35.42C49.7113 35.42 49.1113 35.6733 48.6313 36.18C48.1646 36.6733 47.9313 37.3333 47.9313 38.16C47.9313 38.9467 48.1646 39.5867 48.6313 40.08C49.0979 40.5733 49.6979 40.82 50.4313 40.82ZM63.4216 43.18C62.1416 43.18 61.1416 42.72 60.4216 41.8L60.3816 41.82V43H57.9016V28.28H60.5216V34.34H60.5416C61.2749 33.5 62.2616 33.08 63.5016 33.08C64.8349 33.08 65.9349 33.56 66.8016 34.52C67.6816 35.4667 68.1216 36.6733 68.1216 38.14C68.1216 39.6333 67.6816 40.8467 66.8016 41.78C65.9216 42.7133 64.7949 43.18 63.4216 43.18ZM61.1216 40.08C61.6149 40.5733 62.2282 40.82 62.9616 40.82C63.6949 40.82 64.2949 40.5733 64.7616 40.08C65.2282 39.5733 65.4616 38.9333 65.4616 38.16C65.4616 37.3333 65.2216 36.6733 64.7416 36.18C64.2616 35.6733 63.6616 35.42 62.9416 35.42C62.1949 35.42 61.5816 35.68 61.1016 36.2C60.6349 36.7067 60.4016 37.36 60.4016 38.16C60.4016 38.9467 60.6416 39.5867 61.1216 40.08ZM70.3067 43V28.28H72.9267V43H70.3067ZM79.7555 43.18C78.3955 43.18 77.2755 42.7133 76.3955 41.78C75.5288 40.8467 75.0955 39.6333 75.0955 38.14C75.0955 36.6733 75.5288 35.4667 76.3955 34.52C77.2755 33.56 78.3755 33.08 79.6955 33.08C80.9088 33.08 81.8688 33.5067 82.5755 34.36L82.6155 34.34V33.22H85.2355V43H82.7355V41.84L82.6955 41.82C81.9888 42.7267 81.0088 43.18 79.7555 43.18ZM80.2555 40.82C80.9488 40.82 81.5355 40.5733 82.0155 40.08C82.4955 39.5867 82.7355 38.9467 82.7355 38.16C82.7355 37.3733 82.4955 36.72 82.0155 36.2C81.5488 35.68 80.9621 35.42 80.2555 35.42C79.5355 35.42 78.9355 35.6733 78.4555 36.18C77.9888 36.6733 77.7555 37.3333 77.7555 38.16C77.7555 38.9467 77.9888 39.5867 78.4555 40.08C78.9221 40.5733 79.5221 40.82 80.2555 40.82ZM87.7258 43V33.22H90.3458V34.64H90.3858C91.1591 33.6 92.1391 33.08 93.3258 33.08H93.5258V35.94C93.3391 35.9267 93.1058 35.92 92.8258 35.92C92.0391 35.92 91.4258 36.16 90.9858 36.64C90.5591 37.1067 90.3458 37.72 90.3458 38.48V43H87.7258ZM104.804 43.18C103.337 43.18 102.131 42.7133 101.184 41.78C100.237 40.8467 99.7639 39.6333 99.7639 38.14C99.7639 36.6333 100.237 35.4133 101.184 34.48C102.131 33.5467 103.364 33.08 104.884 33.08C105.684 33.08 106.451 33.2333 107.184 33.54C107.917 33.8333 108.531 34.2667 109.024 34.84L107.304 36.46C106.744 35.7667 105.997 35.42 105.064 35.42C104.277 35.42 103.637 35.6733 103.144 36.18C102.664 36.6733 102.424 37.32 102.424 38.12C102.424 38.9333 102.664 39.5867 103.144 40.08C103.637 40.5733 104.277 40.82 105.064 40.82C106.024 40.82 106.791 40.4667 107.364 39.76L109.064 41.4C108.104 42.5867 106.684 43.18 104.804 43.18ZM115.53 43.18C113.984 43.18 112.73 42.7067 111.77 41.76C110.81 40.8133 110.33 39.6 110.33 38.12C110.33 36.6533 110.81 35.4467 111.77 34.5C112.73 33.5533 113.984 33.08 115.53 33.08C117.05 33.08 118.29 33.5467 119.25 34.48C120.224 35.4133 120.71 36.6267 120.71 38.12C120.71 39.6133 120.224 40.8333 119.25 41.78C118.29 42.7133 117.05 43.18 115.53 43.18ZM115.53 40.82C116.237 40.82 116.83 40.5667 117.31 40.06C117.804 39.5533 118.05 38.9067 118.05 38.12C118.05 37.32 117.81 36.6733 117.33 36.18C116.85 35.6733 116.25 35.42 115.53 35.42C114.784 35.42 114.17 35.68 113.69 36.2C113.224 36.7067 112.99 37.3467 112.99 38.12C112.99 38.8933 113.224 39.54 113.69 40.06C114.17 40.5667 114.784 40.82 115.53 40.82ZM122.765 43V33.22H125.385V34.48H125.425C126.212 33.5467 127.252 33.08 128.545 33.08C130.905 33.08 132.085 34.4533 132.085 37.2V43H129.465V37.86C129.465 36.9667 129.312 36.34 129.005 35.98C128.698 35.6067 128.225 35.42 127.585 35.42C126.905 35.42 126.365 35.6533 125.965 36.12C125.578 36.5733 125.385 37.2333 125.385 38.1V43H122.765ZM143.079 43.18C140.679 43.18 139.479 41.8267 139.479 39.12V33.22H142.079V38.44C142.079 39.32 142.213 39.94 142.479 40.3C142.759 40.6467 143.213 40.82 143.839 40.82C144.439 40.82 144.946 40.5733 145.359 40.08C145.786 39.5733 145.999 38.8733 145.999 37.98V33.22H148.639V43H145.999V41.84L145.959 41.82C145.213 42.7267 144.253 43.18 143.079 43.18ZM151.163 43V33.22H153.783V34.48H153.823C154.61 33.5467 155.65 33.08 156.943 33.08C159.303 33.08 160.483 34.4533 160.483 37.2V43H157.863V37.86C157.863 36.9667 157.71 36.34 157.403 35.98C157.097 35.6067 156.623 35.42 155.983 35.42C155.303 35.42 154.763 35.6533 154.363 36.12C153.977 36.5733 153.783 37.2333 153.783 38.1V43H151.163ZM172.158 43.18C170.798 43.18 169.678 42.7133 168.798 41.78C167.931 40.8467 167.498 39.6333 167.498 38.14C167.498 36.6733 167.931 35.4667 168.798 34.52C169.678 33.56 170.778 33.08 172.098 33.08C173.311 33.08 174.271 33.5067 174.978 34.36L175.018 34.34V33.22H177.638V43H175.138V41.84L175.098 41.82C174.391 42.7267 173.411 43.18 172.158 43.18ZM172.658 40.82C173.351 40.82 173.938 40.5733 174.418 40.08C174.898 39.5867 175.138 38.9467 175.138 38.16C175.138 37.3733 174.898 36.72 174.418 36.2C173.951 35.68 173.364 35.42 172.658 35.42C171.938 35.42 171.338 35.6733 170.858 36.18C170.391 36.6733 170.158 37.3333 170.158 38.16C170.158 38.9467 170.391 39.5867 170.858 40.08C171.324 40.5733 171.924 40.82 172.658 40.82ZM183.288 43.18C181.755 43.18 180.435 42.7 179.328 41.74L180.588 39.92C181.401 40.6667 182.308 41.04 183.308 41.04C183.681 41.04 183.968 40.9667 184.168 40.82C184.381 40.6733 184.488 40.48 184.488 40.24C184.488 40.04 184.361 39.8733 184.108 39.74C183.868 39.5933 183.408 39.4067 182.728 39.18C181.768 38.86 181.021 38.4667 180.488 38C179.968 37.52 179.708 36.8467 179.708 35.98C179.708 35.1133 180.041 34.4133 180.708 33.88C181.375 33.3467 182.221 33.08 183.248 33.08C184.568 33.08 185.755 33.4867 186.808 34.3L185.528 36.24C184.821 35.5467 184.041 35.2 183.188 35.2C182.948 35.2 182.735 35.26 182.548 35.38C182.361 35.5 182.268 35.68 182.268 35.92C182.268 36.2533 182.748 36.6 183.708 36.96C184.241 37.16 184.635 37.3133 184.888 37.42C185.141 37.5133 185.441 37.66 185.788 37.86C186.135 38.0467 186.375 38.2333 186.508 38.42C186.655 38.6067 186.781 38.8467 186.888 39.14C187.008 39.42 187.068 39.7533 187.068 40.14C187.068 41.0467 186.741 41.78 186.088 42.34C185.448 42.9 184.515 43.18 183.288 43.18ZM198.134 38.02C198.134 38.3267 198.114 38.64 198.074 38.96H191.214C191.374 39.5467 191.681 40.0067 192.134 40.34C192.588 40.6733 193.141 40.84 193.794 40.84C194.781 40.84 195.574 40.4733 196.174 39.74L197.874 41.32C196.914 42.56 195.494 43.18 193.614 43.18C192.108 43.18 190.874 42.7133 189.914 41.78C188.968 40.8467 188.494 39.62 188.494 38.1C188.494 36.62 188.954 35.4133 189.874 34.48C190.808 33.5467 192.001 33.08 193.454 33.08C194.828 33.08 195.948 33.5467 196.814 34.48C197.694 35.4 198.134 36.58 198.134 38.02ZM193.434 35.36C192.901 35.36 192.434 35.5133 192.034 35.82C191.648 36.1133 191.381 36.5333 191.234 37.08H195.534C195.241 35.9333 194.541 35.36 193.434 35.36ZM203.327 43.18C201.794 43.18 200.474 42.7 199.367 41.74L200.627 39.92C201.441 40.6667 202.347 41.04 203.347 41.04C203.721 41.04 204.007 40.9667 204.207 40.82C204.421 40.6733 204.527 40.48 204.527 40.24C204.527 40.04 204.401 39.8733 204.147 39.74C203.907 39.5933 203.447 39.4067 202.767 39.18C201.807 38.86 201.061 38.4667 200.527 38C200.007 37.52 199.747 36.8467 199.747 35.98C199.747 35.1133 200.081 34.4133 200.747 33.88C201.414 33.3467 202.261 33.08 203.287 33.08C204.607 33.08 205.794 33.4867 206.847 34.3L205.567 36.24C204.861 35.5467 204.081 35.2 203.227 35.2C202.987 35.2 202.774 35.26 202.587 35.38C202.401 35.5 202.307 35.68 202.307 35.92C202.307 36.2533 202.787 36.6 203.747 36.96C204.281 37.16 204.674 37.3133 204.927 37.42C205.181 37.5133 205.481 37.66 205.827 37.86C206.174 38.0467 206.414 38.2333 206.547 38.42C206.694 38.6067 206.821 38.8467 206.927 39.14C207.047 39.42 207.107 39.7533 207.107 40.14C207.107 41.0467 206.781 41.78 206.127 42.34C205.487 42.9 204.554 43.18 203.327 43.18ZM213.733 43.18C212.187 43.18 210.933 42.7067 209.973 41.76C209.013 40.8133 208.533 39.6 208.533 38.12C208.533 36.6533 209.013 35.4467 209.973 34.5C210.933 33.5533 212.187 33.08 213.733 33.08C215.253 33.08 216.493 33.5467 217.453 34.48C218.427 35.4133 218.913 36.6267 218.913 38.12C218.913 39.6133 218.427 40.8333 217.453 41.78C216.493 42.7133 215.253 43.18 213.733 43.18ZM213.733 40.82C214.44 40.82 215.033 40.5667 215.513 40.06C216.007 39.5533 216.253 38.9067 216.253 38.12C216.253 37.32 216.013 36.6733 215.533 36.18C215.053 35.6733 214.453 35.42 213.733 35.42C212.987 35.42 212.373 35.68 211.893 36.2C211.427 36.7067 211.193 37.3467 211.193 38.12C211.193 38.8933 211.427 39.54 211.893 40.06C212.373 40.5667 212.987 40.82 213.733 40.82ZM220.968 43V33.22H223.588V34.64H223.628C224.401 33.6 225.381 33.08 226.568 33.08H226.768V35.94C226.581 35.9267 226.348 35.92 226.068 35.92C225.281 35.92 224.668 36.16 224.228 36.64C223.801 37.1067 223.588 37.72 223.588 38.48V43H220.968Z" fill="white"></path><rect x="243" y="68" width="64" height="64" rx="32" transform="rotate(-90 243 68)" fill="white"></rect><path fill-rule="evenodd" clip-rule="evenodd" d="M267.5 36.0008C267.5 35.7521 267.599 35.5137 267.775 35.3379C267.95 35.162 268.189 35.0633 268.438 35.0633H279.299L275.274 31.0395C275.187 30.9524 275.117 30.8489 275.07 30.735C275.023 30.6211 274.999 30.499 274.999 30.3758C274.999 30.2525 275.023 30.1304 275.07 30.0165C275.117 29.9027 275.187 29.7992 275.274 29.712C275.361 29.6249 275.464 29.5557 275.578 29.5085C275.692 29.4614 275.814 29.4371 275.938 29.4371C276.061 29.4371 276.183 29.4614 276.297 29.5085C276.411 29.5557 276.514 29.6249 276.601 29.712L282.226 35.337C282.314 35.4241 282.383 35.5276 282.43 35.6415C282.477 35.7554 282.502 35.8775 282.502 36.0008C282.502 36.1241 282.477 36.2462 282.43 36.3601C282.383 36.474 282.314 36.5774 282.226 36.6645L276.601 42.2895C276.514 42.3767 276.411 42.4458 276.297 42.493C276.183 42.5402 276.061 42.5645 275.938 42.5645C275.814 42.5645 275.692 42.5402 275.578 42.493C275.464 42.4458 275.361 42.3767 275.274 42.2895C275.098 42.1135 274.999 41.8747 274.999 41.6258C274.999 41.5025 275.023 41.3804 275.07 41.2665C275.117 41.1527 275.187 41.0492 275.274 40.962L279.299 36.9383H268.438C268.189 36.9383 267.95 36.8395 267.775 36.6637C267.599 36.4879 267.5 36.2494 267.5 36.0008Z" fill="#5E02DF"></path></svg>