<svg xmlns="http://www.w3.org/2000/svg" width="30" height="31" viewBox="0 0 30 31" fill="none"><rect y="0.396484" width="30" height="30" rx="15" fill="#020C5C"></rect><path fill-rule="evenodd" clip-rule="evenodd" d="M9.5 15.3974C9.5 15.215 9.57244 15.0402 9.70137 14.9112C9.83031 14.7823 10.0052 14.7098 10.1875 14.7098H18.1532L15.201 11.759C15.1371 11.6951 15.0864 11.6192 15.0518 11.5356C15.0172 11.4521 14.9994 11.3626 14.9994 11.2722C14.9994 11.1818 15.0172 11.0923 15.0518 11.0088C15.0864 10.9252 15.1371 10.8494 15.201 10.7854C15.2649 10.7215 15.3408 10.6708 15.4243 10.6362C15.5078 10.6016 15.5974 10.5838 15.6878 10.5838C15.7782 10.5838 15.8677 10.6016 15.9512 10.6362C16.0347 10.6708 16.1106 10.7215 16.1745 10.7854L20.2997 14.9106C20.3637 14.9745 20.4145 15.0503 20.4492 15.1339C20.4838 15.2174 20.5017 15.3069 20.5017 15.3974C20.5017 15.4878 20.4838 15.5774 20.4492 15.6609C20.4145 15.7444 20.3637 15.8203 20.2997 15.8841L16.1745 20.0093C16.1106 20.0732 16.0347 20.1239 15.9512 20.1585C15.8677 20.1931 15.7782 20.2109 15.6878 20.2109C15.5974 20.2109 15.5078 20.1931 15.4243 20.1585C15.3408 20.1239 15.2649 20.0732 15.201 20.0093C15.0719 19.8802 14.9994 19.7051 14.9994 19.5225C14.9994 19.4321 15.0172 19.3426 15.0518 19.2591C15.0864 19.1756 15.1371 19.0997 15.201 19.0358L18.1532 16.0849H10.1875C10.0052 16.0849 9.83031 16.0125 9.70137 15.8835C9.57244 15.7546 9.5 15.5797 9.5 15.3974Z" fill="white"></path></svg>