<svg xmlns="http://www.w3.org/2000/svg" width="60" height="61" viewBox="0 0 60 61" fill="none"><path opacity="0.15" d="M13.0293 57.1903C13.0293 58.8379 26.1086 59.8676 36.5722 59.0438C41.4283 58.6615 44.4198 57.955 44.4198 57.1903C44.4198 55.5428 31.3405 54.513 20.8769 55.3368C16.0208 55.7192 13.0293 56.4257 13.0293 57.1903Z" fill="#45413C"></path><path d="M43.18 2.2572C41.2298 1.98619 39.4289 3.34643 39.1563 5.29631L36.3026 24.8013L33.449 5.35339C33.1496 2.6238 30.0076 1.24191 27.7934 2.86603C26.7054 3.66407 26.1609 5.00758 26.3861 6.33793L28.455 21.0914C26.2597 19.1803 22.8187 20.3623 22.2613 23.2191C22.2145 23.4584 22.1911 23.7015 22.1913 23.9452V27.3696C22.0123 24.4534 18.7435 22.8244 16.3074 24.4376C15.3144 25.0952 14.6876 26.1808 14.6147 27.3696V37.6571C14.5109 45.2708 20.299 51.6749 27.8843 52.3392C36.2438 52.8943 43.2804 46.1614 43.0943 37.7855C43.0943 25.6146 43.0943 29.681 46.2192 6.30938C46.5074 4.34905 45.1428 2.52932 43.18 2.2572Z" fill="#FFCEBF"></path><path d="M26.9128 9.93336C27.1948 7.09145 30.4473 5.62062 32.7675 7.2857C33.2812 7.6544 33.6922 8.14833 33.9614 8.7205L33.4763 5.38171C33.1769 2.65212 30.0349 1.27023 27.8207 2.89435C26.7327 3.69239 26.1882 5.0359 26.4135 6.36625L26.9128 9.93336Z" fill="#FFDCD1"></path><path d="M43.1788 2.25705C41.2287 1.98603 39.4278 3.34627 39.1551 5.29615L38.7129 8.34966C39.8514 5.71861 43.4112 5.30686 45.1203 7.60833C45.5488 8.1853 45.8012 8.87385 45.847 9.59093C45.9897 8.56371 46.1324 7.47928 46.2894 6.30923C46.5761 4.32429 45.1705 2.49312 43.1788 2.25705Z" fill="#FFDCD1"></path><path d="M33.4622 37.7861C29.9633 37.7861 27.127 40.6225 27.127 44.1213V45.9904" stroke="#45413C" stroke-width="0.38" stroke-linecap="round" stroke-linejoin="round"></path><path d="M43.18 2.2572C41.2298 1.98619 39.4289 3.34643 39.1563 5.29631L36.3026 24.8013L33.449 5.35339C33.1496 2.6238 30.0076 1.24191 27.7934 2.86603C26.7054 3.66407 26.1609 5.00758 26.3861 6.33793L28.455 21.0914C26.2597 19.1803 22.8187 20.3623 22.2613 23.2191C22.2145 23.4584 22.1911 23.7015 22.1913 23.9452V27.3696C22.0123 24.4534 18.7435 22.8244 16.3074 24.4376C15.3144 25.0952 14.6876 26.1808 14.6147 27.3696V37.6571C14.5109 45.2708 20.299 51.6749 27.8843 52.3392C36.2438 52.8943 43.2804 46.1614 43.0943 37.7855C43.0943 25.6146 43.0943 29.681 46.2192 6.30938C46.5074 4.34905 45.1428 2.52932 43.18 2.2572Z" stroke="#45413C" stroke-width="0.38" stroke-linecap="round" stroke-linejoin="round"></path><path d="M14.6426 23.6318H22.2335V35.8456H14.6426V23.6318Z" fill="#FFCEBF"></path><path d="M22.2188 20.1924H29.8095V35.8305H22.2188V20.1924Z" fill="#FFCEBF"></path><path d="M18.438 23.6602C16.3474 23.66 14.6505 25.3507 14.6426 27.4413V30.7944C14.6505 28.7038 16.3474 27.0131 18.438 27.0132C20.5263 27.0131 22.2192 28.7061 22.2192 30.7944V27.37C22.1803 25.3096 20.4987 23.6598 18.438 23.6602Z" fill="#FFDCD1"></path><path d="M26.0141 20.1924C23.9212 20.2003 22.2265 21.8949 22.2188 23.9878V27.4122C22.2421 25.3328 23.9345 23.6595 26.0141 23.6596C28.1047 23.6595 29.8016 25.3502 29.8095 27.4408V24.0164C29.8174 21.9123 28.1181 20.2003 26.0141 20.1924Z" fill="#FFDCD1"></path><path d="M14.6426 23.6318H22.2335V35.8456H14.6426V23.6318Z" stroke="#45413C" stroke-width="0.38" stroke-linecap="round" stroke-linejoin="round"></path><path d="M22.2188 20.1924H29.8095V35.8305H22.2188V20.1924Z" stroke="#45413C" stroke-width="0.38" stroke-linecap="round" stroke-linejoin="round"></path><path d="M43.0941 37.7862C43.0862 33.6996 39.7753 30.3887 35.6887 30.3809H24.1598C23.0746 30.3809 22.1971 31.2648 22.2051 32.3499C22.2051 35.3523 24.639 37.7862 27.6413 37.7862H33.4629" fill="#FFCEBF"></path><path d="M43.0941 37.7862C43.0862 33.6996 39.7753 30.3887 35.6887 30.3809H24.1598C23.0746 30.3809 22.1971 31.2648 22.2051 32.3499C22.2085 32.9836 22.3245 33.6116 22.5475 34.2048C22.9137 33.6761 23.5167 33.3613 24.1598 33.363H36.3165C39.2507 33.3706 41.9057 35.1035 43.0941 37.7862Z" fill="#FFDCD1"></path><path d="M43.0941 37.7862C43.0862 33.6996 39.7753 30.3887 35.6887 30.3809H24.1598C23.0746 30.3809 22.1971 31.2648 22.2051 32.3499C22.2051 35.3523 24.639 37.7862 27.6413 37.7862H33.4629" stroke="#45413C" stroke-width="0.38" stroke-linecap="round" stroke-linejoin="round"></path></svg>