<svg xmlns="http://www.w3.org/2000/svg" width="61" height="61" viewBox="0 0 61 61" fill="none"><path d="M35.1361 42.5844C35.1447 40.3475 33.3338 38.5296 31.0969 38.5297H35.1361C38.4606 38.5354 40.5446 34.9398 38.8871 32.058C38.1153 30.7159 36.6842 29.8896 35.1361 29.8923C38.4606 29.8866 40.5324 26.2842 38.8652 23.4079C38.0941 22.0774 36.6738 21.2573 35.1361 21.2548H54.415C57.309 21.2549 59.1178 18.1222 57.6709 15.6157C56.9993 14.4524 55.7582 13.7359 54.415 13.7359H25.7374C28.3921 13.7334 30.979 12.8965 33.1321 11.3435C35.6627 9.632 36.5389 6.31351 35.1827 3.57593C34.5622 2.33859 33.0332 1.87148 31.8271 2.55067L25.6132 5.96832C22.7292 7.54298 19.6679 8.76852 16.4941 9.61908C11.907 10.8923 7.96176 13.8348 5.43319 17.8681C3.41749 20.9952 2.33921 24.6339 2.32617 28.3543V34.7702C2.32617 41.291 7.61189 46.5771 14.1327 46.5769H31.0969C33.313 46.5855 35.119 44.8005 35.1361 42.5844Z" fill="#FFCEBF"></path><path d="M33.5189 16.6723H54.4135C55.9149 16.665 57.2742 17.559 57.8623 18.9405C58.0692 18.4761 58.1751 17.973 58.1729 17.4646C58.1644 15.3918 56.4862 13.7137 54.4135 13.7051H25.9844C27.9263 16.1131 29.4643 16.6723 33.5189 16.6723Z" fill="#FFDCD1"></path><path d="M16.4941 12.6013C19.6859 11.7183 22.7624 10.4616 25.6597 8.85731L31.8737 5.42417C33.0854 4.7537 34.6115 5.21786 35.2448 6.44942C35.4435 6.86228 35.5996 7.29433 35.7108 7.7388C36.0571 6.31939 35.892 4.82321 35.2448 3.51328C34.6115 2.28172 33.0854 1.81756 31.8737 2.48803L25.6597 5.90567C22.7639 7.50519 19.6867 8.75176 16.4941 9.61856C11.907 10.8918 7.96176 13.8342 5.43319 17.8676C3.41749 20.9947 2.33921 24.6335 2.32617 28.3538V31.3675C2.34106 27.6475 3.41897 24.0092 5.43319 20.8814C7.95597 16.8362 11.902 13.8823 16.4941 12.6013Z" fill="#FFDCD1"></path><path d="M35.1361 42.5844C35.1447 40.3475 33.3338 38.5296 31.0969 38.5297H35.1361C38.4606 38.5354 40.5446 34.9398 38.8871 32.058C38.1153 30.7159 36.6842 29.8896 35.1361 29.8923C38.4606 29.8866 40.5324 26.2842 38.8652 23.4079C38.0941 22.0774 36.6738 21.2573 35.1361 21.2548H54.415C57.309 21.2549 59.1178 18.1222 57.6709 15.6157C56.9993 14.4524 55.7582 13.7359 54.415 13.7359H25.7374C28.3921 13.7334 30.979 12.8965 33.1321 11.3435C35.6627 9.632 36.5389 6.31351 35.1827 3.57593C34.5622 2.33859 33.0332 1.87148 31.8271 2.55067L25.6132 5.96832C22.7292 7.54298 19.6679 8.76852 16.4941 9.61908C11.907 10.8923 7.96176 13.8348 5.43319 17.8681C3.41749 20.9952 2.33921 24.6339 2.32617 28.3543V34.7702C2.32617 41.291 7.61189 46.5771 14.1327 46.5769H31.0969C33.313 46.5855 35.119 44.8005 35.1361 42.5844Z" stroke="#45413C" stroke-width="0.38" stroke-linecap="round" stroke-linejoin="round"></path><path d="M35.1356 29.8926H31.8887" stroke="#45413C" stroke-width="0.38" stroke-linecap="round" stroke-linejoin="round"></path><path d="M35.1356 21.2549H31.8887" stroke="#45413C" stroke-width="0.38" stroke-linecap="round" stroke-linejoin="round"></path><path d="M25.7372 13.7354H22.8477" stroke="#45413C" stroke-width="0.38" stroke-linecap="round" stroke-linejoin="round"></path><path opacity="0.15" d="M7.5918 57.0007C7.5918 58.7946 27.0106 59.9157 42.5456 59.0187C49.7555 58.6026 54.1969 57.8332 54.1969 57.0007C54.1969 55.2069 34.778 54.0857 19.2431 54.9827C12.0333 55.399 7.5918 56.1682 7.5918 57.0007Z" fill="#45413C"></path></svg>