<svg xmlns="http://www.w3.org/2000/svg" width="61" height="61" viewBox="0 0 61 61" fill="none"><path opacity="0.15" d="M17.9902 57.2351C17.9902 58.8488 32.5472 59.8573 44.1927 59.0504C49.5975 58.6759 52.9269 57.9839 52.9269 57.2351C52.9269 55.6214 38.37 54.6129 26.7245 55.4197C21.3197 55.7942 17.9902 56.4861 17.9902 57.2351Z" fill="#45413C"></path><path d="M48.6778 20.5649L48.4962 25.1207L32.8166 9.4272C31.5509 8.08811 29.4814 7.91367 28.0093 9.02184C26.4012 10.3238 26.2775 12.7328 27.7438 14.1925L25.5218 11.9705C24.1147 10.5056 21.8146 10.3774 20.2534 11.677C18.6677 13.1076 18.604 15.5748 20.1137 17.0852L20.0858 17.0154C18.9862 15.8937 17.2784 15.6318 15.8933 16.3726C13.8902 17.514 13.5224 20.2484 15.1526 21.8785L19.3451 26.0709C18.0659 24.7937 15.9643 24.8974 14.8173 26.2946C13.8599 27.5778 14.0035 29.3722 15.1526 30.4869L32.6629 48.1508C37.8249 53.3374 46.2318 53.2996 51.347 48.0671C55.222 44.023 57.2461 38.5527 56.9368 32.9605L56.4197 16.0092C56.3612 15.2196 55.7023 14.6096 54.9105 14.6118C51.5717 14.6012 48.8204 17.2292 48.6778 20.5649Z" fill="#FFCEBF"></path><path d="M48.4979 25.1207L32.8183 9.4272C31.5526 8.08811 29.483 7.91367 28.011 9.02184C26.5246 10.2294 26.2994 12.4135 27.5079 13.899C27.6499 13.7034 27.8193 13.5292 28.011 13.3819C29.4761 12.2666 31.5451 12.429 32.8183 13.7593L46.3178 27.2727L48.4979 25.1207Z" fill="#FFDCD1"></path><path d="M56.5472 20.3698L56.4213 16.0097C56.3628 15.2202 55.7039 14.6101 54.9121 14.6123C51.5631 14.6101 48.8139 17.2605 48.6934 20.6074L48.5117 25.1631L48.6934 24.9675C48.821 21.6238 51.5661 18.9775 54.9121 18.9723C55.73 18.9637 56.4284 19.5606 56.5472 20.3698Z" fill="#FFDCD1"></path><path d="M48.6778 20.5649L48.4962 25.1207L32.8166 9.4272C31.5509 8.08811 29.4814 7.91367 28.0093 9.02184C26.4012 10.3238 26.2775 12.7328 27.7438 14.1925L25.5218 11.9705C24.1147 10.5056 21.8146 10.3774 20.2534 11.677C18.6677 13.1076 18.604 15.5748 20.1137 17.0852L20.0858 17.0154C18.9862 15.8937 17.2784 15.6318 15.8933 16.3726C13.8902 17.514 13.5224 20.2484 15.1526 21.8785L19.3451 26.0709C18.0659 24.7937 15.9643 24.8974 14.8173 26.2946C13.8599 27.5778 14.0035 29.3722 15.1526 30.4869L32.6629 48.1508C37.8249 53.3374 46.2318 53.2996 51.347 48.0671C55.222 44.023 57.2461 38.5527 56.9368 32.9605L56.4197 16.0092C56.3612 15.2196 55.7023 14.6096 54.9105 14.6118C51.5717 14.6012 48.8204 17.2292 48.6778 20.5649Z" stroke="#45413C" stroke-width="0.38" stroke-linecap="round" stroke-linejoin="round"></path><path d="M19.1641 26.043L27.6327 34.4976" stroke="#45413C" stroke-width="0.38" stroke-linecap="round" stroke-linejoin="round"></path><path d="M20.1133 17.0996L32.5647 29.5509" stroke="#45413C" stroke-width="0.38" stroke-linecap="round" stroke-linejoin="round"></path><path d="M27.7461 14.2207L37.8217 24.3104" stroke="#45413C" stroke-width="0.38" stroke-linecap="round" stroke-linejoin="round"></path><path d="M48.497 25.1211L43.508 30.11C40.2291 33.3853 40.2291 38.6993 43.508 41.9745" stroke="#45413C" stroke-width="0.38" stroke-linecap="round" stroke-linejoin="round"></path><path d="M35.6133 5.8916C37.8339 6.27075 39.9131 7.2356 41.6364 8.68651C43.344 10.203 44.6418 12.1256 45.4096 14.2763" stroke="#45413C" stroke-width="0.38" stroke-linecap="round" stroke-linejoin="round"></path><path d="M36.4102 2.16113C39.1468 2.60142 41.7146 3.76951 43.8447 5.54298C45.9569 7.406 47.5587 9.77735 48.4983 12.4325" stroke="#45413C" stroke-width="0.38" stroke-linecap="round" stroke-linejoin="round"></path><path d="M8.41668 27.5244C8.19537 29.7593 8.57661 32.0128 9.52067 34.0505C10.5446 36.089 12.0687 37.8343 13.9507 39.1234" stroke="#45413C" stroke-width="0.38" stroke-linecap="round" stroke-linejoin="round"></path><path d="M4.60256 27.3291C4.33622 30.0936 4.81896 32.8788 6.00008 35.3924C7.26547 37.9098 9.14461 40.0678 11.4642 41.6671" stroke="#45413C" stroke-width="0.38" stroke-linecap="round" stroke-linejoin="round"></path></svg>