<svg xmlns="http://www.w3.org/2000/svg" width="61" height="61" viewBox="0 0 61 61" fill="none"><path d="M35.9462 3.29224C33.8532 1.17308 30.2509 2.11431 29.4621 4.9866C29.096 6.31966 29.4688 7.74682 30.4403 8.73037C34.3801 12.7228 37.3276 17.5842 39.046 22.9235C36.7961 20.7328 33.9137 19.3059 30.8073 18.845C26.1641 18.046 21.4008 19.2678 17.7153 22.203C15.5208 24.1571 16.2151 27.7471 18.9796 28.7423C20.4134 29.2896 22.0304 29.0305 23.2213 28.0625C25.2185 26.7264 27.6855 26.2922 30.0189 26.8661C35.3876 28.0435 37.4686 34.5913 33.7646 38.6521C32.0455 40.5368 29.4516 41.3612 26.9599 40.8147C23.6645 40.0659 21.1719 37.3625 20.6926 34.0172C20.6282 32.0925 19.2593 30.46 17.3754 30.061C15.046 29.3747 12.696 31.0734 12.6172 33.5005C12.6172 43.1666 20.5974 54.6137 33.0097 52.8736C43.3692 51.4052 46.8768 48.4552 48.277 35.3767C49.1063 25.6154 45.0414 12.6456 35.9462 3.29224Z" fill="#FFCEBF"></path><path d="M30.8887 7.90077C32.4181 6.56661 34.721 6.64989 36.15 8.0912C42.891 15.0918 47.1837 24.0874 48.3855 33.7315C48.6575 24.2149 44.5517 12.1289 35.9596 3.29204C33.9346 1.11002 30.3067 1.93844 29.4296 4.7833C29.0225 6.10356 29.3506 7.54068 30.2905 8.55339C30.4643 8.31375 30.665 8.09477 30.8887 7.90077Z" fill="#FFDCD1"></path><path opacity="0.15" d="M16.0156 57.2921C16.0051 58.862 29.0269 59.8447 39.4552 59.0609C44.3035 58.6965 47.2892 58.022 47.2843 57.2921C47.295 55.7224 34.273 54.7397 23.8448 55.5234C18.9965 55.8878 16.0107 56.5623 16.0156 57.2921Z" fill="#45413C"></path><path d="M30.8342 18.8311C33.9115 19.3082 36.7632 20.734 38.9913 22.9096C37.4856 18.2318 35.0328 13.9141 31.7858 10.2255C30.5587 8.81908 28.3505 8.89129 27.2179 10.3749C26.3795 11.4905 26.4422 13.0419 27.3674 14.0865C28.6713 15.5541 29.8322 17.1429 30.8342 18.8311Z" fill="#FFCEBF"></path><path d="M26.9883 10.8236C28.0739 10.5548 29.2188 10.9171 29.952 11.7617C32.2307 14.3481 34.1219 17.2515 35.5668 20.381C36.8409 21.0547 38.0128 21.9061 39.0472 22.9097C37.5415 18.2318 35.0887 13.9142 31.8417 10.2255C30.6146 8.81901 28.4062 8.89134 27.2738 10.375C27.169 10.5182 27.0735 10.668 26.9883 10.8236Z" fill="#FFB59E"></path><path d="M30.8342 18.8311C33.9115 19.3082 36.7632 20.734 38.9913 22.9096C37.4856 18.2318 35.0328 13.9141 31.7858 10.2255C30.5587 8.81908 28.3505 8.89129 27.2179 10.3749C26.3795 11.4905 26.4422 13.0419 27.3674 14.0865C28.6713 15.5541 29.8322 17.1429 30.8342 18.8311Z" stroke="#45413C" stroke-width="0.38" stroke-linecap="round" stroke-linejoin="round"></path><path d="M30.8078 23.6709C33.9755 24.1333 40.7051 26.893 42.9211 29.041C41.1138 23.638 36.4389 19.6977 30.8078 18.8312C26.1647 18.0322 21.4013 19.2539 17.7158 22.1892C16.1973 23.5555 15.9897 25.8621 17.24 27.4776C20.4077 24.2827 25.7913 22.9369 30.8078 23.6709Z" fill="#FFDCD1"></path><path d="M39.0469 22.9102C42.0106 25.754 43.6932 29.6788 43.71 33.7862" stroke="#45413C" stroke-width="0.38" stroke-linecap="round" stroke-linejoin="round"></path><path d="M35.9462 3.29224C33.8532 1.17308 30.2509 2.11431 29.4621 4.9866C29.096 6.31966 29.4688 7.74682 30.4403 8.73037C34.3801 12.7228 37.3276 17.5842 39.046 22.9235C36.7961 20.7328 33.9137 19.3059 30.8073 18.845C26.1641 18.046 21.4008 19.2678 17.7153 22.203C15.5208 24.1571 16.2151 27.7471 18.9796 28.7423C20.4134 29.2896 22.0304 29.0305 23.2213 28.0625C25.2185 26.7264 27.6855 26.2922 30.0189 26.8661C35.3876 28.0435 37.4686 34.5913 33.7646 38.6521C32.0455 40.5368 29.4516 41.3612 26.9599 40.8147C23.6645 40.0659 21.1719 37.3625 20.6926 34.0172C20.6282 32.0925 19.2593 30.46 17.3754 30.061C15.046 29.3747 12.696 31.0734 12.6172 33.5005C12.6172 43.1666 20.5974 54.6137 33.0097 52.8736C43.3692 51.4052 46.8768 48.4552 48.277 35.3767C49.1063 25.6154 45.0414 12.6456 35.9462 3.29224Z" stroke="#45413C" stroke-width="0.38" stroke-linecap="round" stroke-linejoin="round"></path></svg>