<svg xmlns="http://www.w3.org/2000/svg" width="646" height="514" viewBox="0 0 646 514" fill="none"><g opacity="0.4" clip-path="url(#clip0_271_1510)"><path opacity="0.3" d="M281.864 425.173C279.868 425.369 277.976 426.152 276.425 427.423C274.874 428.695 273.734 430.397 273.151 432.316C272.567 434.235 272.566 436.283 273.146 438.202C273.727 440.121 274.864 441.825 276.413 443.098C277.962 444.37 279.853 445.155 281.848 445.352C283.844 445.55 285.853 445.151 287.622 444.206C289.391 443.262 290.841 441.814 291.787 440.046C292.734 438.278 293.135 436.269 292.94 434.273C292.663 431.603 291.345 429.151 289.272 427.447C287.198 425.744 284.537 424.927 281.864 425.173ZM111.687 329.206C109.691 329.402 107.798 330.185 106.247 331.456C104.696 332.728 103.557 334.431 102.974 336.349C102.39 338.268 102.388 340.316 102.969 342.235C103.55 344.154 104.686 345.858 106.235 347.131C107.784 348.403 109.676 349.188 111.671 349.385C113.666 349.583 115.676 349.184 117.445 348.239C119.214 347.295 120.663 345.847 121.61 344.079C122.556 342.311 122.957 340.302 122.762 338.306C122.486 335.637 121.168 333.184 119.094 331.48C117.021 329.777 114.359 328.96 111.687 329.206ZM417.18 494.484C419.175 494.288 421.068 493.505 422.619 492.234C424.17 490.962 425.309 489.26 425.893 487.341C426.477 485.422 426.478 483.374 425.897 481.455C425.317 479.536 424.18 477.832 422.631 476.559C421.082 475.287 419.191 474.502 417.195 474.305C415.2 474.107 413.191 474.506 411.422 475.451C409.653 476.395 408.203 477.843 407.257 479.611C406.31 481.379 405.909 483.388 406.104 485.384C406.381 488.054 407.699 490.506 409.772 492.21C411.846 493.913 414.507 494.73 417.18 494.484ZM353.371 571.203C355.366 571.007 357.259 570.224 358.81 568.953C360.361 567.681 361.5 565.978 362.084 564.06C362.667 562.141 362.669 560.093 362.088 558.174C361.508 556.255 360.371 554.551 358.822 553.278C357.273 552.006 355.382 551.221 353.386 551.024C351.391 550.826 349.382 551.225 347.613 552.17C345.844 553.114 344.394 554.562 343.448 556.33C342.501 558.098 342.1 560.107 342.295 562.103C342.572 564.772 343.89 567.225 345.963 568.929C348.037 570.632 350.698 571.449 353.371 571.203ZM187.498 499.432C187.693 501.428 188.475 503.321 189.746 504.871C191.017 506.422 192.719 507.56 194.637 508.143C196.556 508.726 198.604 508.727 200.523 508.145C202.442 507.564 204.146 506.427 205.419 504.877C206.692 503.328 207.478 501.435 207.676 499.44C207.874 497.444 207.476 495.435 206.532 493.667C205.588 491.898 204.141 490.449 202.373 489.503C200.606 488.557 198.597 488.156 196.602 488.352C193.932 488.63 191.479 489.949 189.775 492.023C188.071 494.097 187.253 496.759 187.498 499.432ZM55.1681 532.666C55.3631 534.662 56.1456 536.555 57.4164 538.105C58.6872 539.656 60.3894 540.795 62.3077 541.378C64.2259 541.96 66.2741 541.961 68.1932 541.38C70.1124 540.798 71.8164 539.661 73.0896 538.112C74.3628 536.562 75.1481 534.67 75.3461 532.674C75.5442 530.679 75.1461 528.67 74.2023 526.901C73.2585 525.132 71.8114 523.683 70.0438 522.737C68.2762 521.791 66.2675 521.391 64.2719 521.587C61.6024 521.864 59.1496 523.183 57.4453 525.257C55.7411 527.332 54.9229 529.994 55.1681 532.666ZM-102.161 405.606C-104.157 405.802 -106.05 406.585 -107.601 407.857C-109.152 409.128 -110.291 410.831 -110.874 412.75C-111.458 414.668 -111.46 416.717 -110.879 418.636C-110.298 420.555 -109.162 422.258 -107.613 423.531C-106.064 424.804 -104.172 425.588 -102.177 425.786C-100.182 425.983 -98.1724 425.584 -96.4033 424.64C-94.6343 423.695 -93.185 422.247 -92.2384 420.479C-91.2919 418.711 -90.8907 416.702 -91.0857 414.707C-91.3624 412.037 -92.6804 409.584 -94.7538 407.881C-96.8271 406.177 -99.4886 405.36 -102.161 405.606ZM-9.99204 665.06C-9.79705 667.056 -9.01461 668.949 -7.74382 670.499C-6.47301 672.05 -4.77079 673.189 -2.85251 673.772C-0.934235 674.354 1.11389 674.355 3.03307 673.774C4.95225 673.192 6.65624 672.055 7.92943 670.506C9.20262 668.956 9.98791 667.064 10.186 665.068C10.384 663.073 9.98595 661.064 9.04213 659.295C8.0983 657.526 6.6512 656.077 4.88361 655.131C3.11604 654.185 1.10733 653.785 -0.888229 653.981C-3.5578 654.258 -6.01059 655.577 -7.71482 657.651C-9.41904 659.726 -10.2373 662.388 -9.99204 665.06ZM255.441 697.11C257.436 696.914 259.329 696.131 260.88 694.86C262.431 693.588 263.571 691.885 264.154 689.967C264.738 688.048 264.739 686 264.158 684.081C263.578 682.162 262.441 680.458 260.892 679.185C259.343 677.913 257.452 677.128 255.457 676.931C253.461 676.733 251.452 677.132 249.683 678.077C247.914 679.021 246.464 680.469 245.518 682.237C244.571 684.005 244.17 686.014 244.365 688.01C244.642 690.68 245.96 693.132 248.033 694.836C250.107 696.539 252.768 697.356 255.441 697.11ZM86.2042 816.794C86.0092 814.798 85.2267 812.906 83.9559 811.355C82.6851 809.804 80.9829 808.666 79.0646 808.083C77.1464 807.5 75.0982 807.499 73.179 808.081C71.2599 808.662 69.5559 809.799 68.2827 811.349C67.0095 812.898 66.2242 814.791 66.0261 816.786C65.8281 818.782 66.2262 820.791 67.17 822.56C68.1138 824.328 69.5609 825.777 71.3285 826.723C73.0961 827.669 75.1048 828.07 77.1004 827.874C79.7699 827.596 82.2227 826.277 83.9269 824.203C85.6312 822.129 86.4494 819.467 86.2042 816.794ZM162.852 649.317C177.728 658.806 189.273 672.7 195.88 689.063C202.487 705.425 203.826 723.443 199.712 740.608C195.598 757.772 186.235 773.228 172.927 784.824C159.618 796.42 143.027 803.578 125.463 805.302C122.787 805.565 120.325 806.88 118.618 808.958C116.91 811.035 116.098 813.706 116.359 816.382C116.621 819.058 117.935 821.521 120.012 823.227C122.089 824.934 124.759 825.745 127.435 825.483C149.195 823.349 169.75 814.483 186.24 800.119C202.73 785.756 214.332 766.61 219.434 745.346C224.535 724.083 222.88 701.76 214.7 681.487C206.52 661.213 192.221 643.997 173.795 632.235C171.531 630.785 168.783 630.294 166.155 630.87C163.528 631.446 161.237 633.042 159.786 635.307C159.067 636.429 158.576 637.681 158.342 638.992C158.107 640.303 158.133 641.647 158.417 642.948C158.993 645.576 160.588 647.866 162.852 649.317ZM266.634 749.614C266.4 747.204 265.309 744.957 263.56 743.283C261.811 741.608 259.52 740.616 257.101 740.487C254.683 740.357 252.298 741.099 250.379 742.577C248.46 744.055 247.134 746.172 246.642 748.544C240.799 776.06 226.338 801 205.359 819.741C184.379 838.483 157.974 850.05 129.979 852.762C51.0201 860.522 -28.604 847.961 -101.326 816.273C-102.541 815.739 -103.849 815.45 -105.176 815.421C-106.502 815.393 -107.822 815.627 -109.058 816.108C-110.295 816.59 -111.425 817.31 -112.383 818.229C-113.341 819.147 -114.11 820.245 -114.644 821.46C-115.178 822.675 -115.468 823.983 -115.497 825.31C-115.525 826.637 -115.292 827.956 -114.811 829.193C-114.33 830.429 -113.61 831.559 -112.692 832.517C-111.774 833.475 -110.677 834.243 -109.462 834.777C-33.5646 867.843 49.5366 880.94 131.939 872.822C140.386 871.975 148.754 870.464 156.964 868.305C184.093 861.026 208.682 846.381 228.007 825.992C247.333 805.603 260.641 780.266 266.459 752.785C266.699 751.787 266.763 750.754 266.646 749.734L266.634 749.614ZM97.7645 521.818C95.0885 522.08 92.6259 523.395 90.9186 525.473C89.2113 527.551 88.399 530.222 88.6604 532.898C88.9219 535.574 90.2357 538.036 92.3128 539.743C94.3899 541.449 97.0603 542.261 99.7362 541.998C129.528 539.094 159.57 543.668 187.142 555.305C214.715 566.943 238.946 585.276 257.642 608.645C276.337 632.015 288.907 659.681 294.211 689.139C299.515 718.597 297.387 748.916 288.019 777.349C287.562 778.626 287.365 779.982 287.44 781.337C287.514 782.691 287.859 784.017 288.454 785.235C289.05 786.454 289.883 787.541 290.905 788.433C291.927 789.324 293.117 790.002 294.405 790.426C295.693 790.85 297.053 791.012 298.405 790.902C299.757 790.792 301.074 790.413 302.277 789.786C303.48 789.16 304.546 788.299 305.411 787.254C306.277 786.209 306.924 785.002 307.316 783.703C317.708 752.061 320.051 718.331 314.134 685.562C308.216 652.793 294.224 622.02 273.423 596.024C252.622 570.028 225.668 549.629 194.998 536.673C164.328 523.716 130.909 518.611 97.7645 521.818ZM286.288 539.947C284.315 538.188 281.731 537.274 279.091 537.4C276.451 537.527 273.966 538.685 272.169 540.624C270.373 542.564 269.409 545.131 269.485 547.773C269.561 550.415 270.671 552.922 272.576 554.754C312.98 592.51 338.208 643.723 343.523 698.777C344.75 711.495 344.946 724.292 344.109 737.042C343.98 738.392 344.122 739.754 344.528 741.049C344.934 742.343 345.594 743.543 346.471 744.577C347.348 745.612 348.423 746.46 349.633 747.073C350.843 747.685 352.164 748.049 353.517 748.143C354.87 748.237 356.228 748.059 357.511 747.62C358.795 747.181 359.977 746.489 360.99 745.585C362.002 744.682 362.823 743.585 363.404 742.359C363.986 741.134 364.317 739.804 364.376 738.449C365.344 724.569 365.159 710.634 363.822 696.786C357.984 636.833 330.506 581.069 286.528 539.924L286.288 539.947ZM382.654 616.475C380.127 617.4 378.061 619.274 376.893 621.699C375.726 624.123 375.551 626.907 376.404 629.458C383.788 650.4 388.602 672.162 390.74 694.266L390.998 696.909C391.342 699.54 392.658 701.947 394.688 703.656C396.718 705.365 399.314 706.251 401.965 706.141C404.63 705.874 407.085 704.579 408.81 702.53C410.535 700.481 411.393 697.84 411.201 695.17L410.92 692.287C408.583 668.576 403.452 645.225 395.634 622.721C394.731 620.179 392.86 618.097 390.43 616.927C387.999 615.757 385.205 615.595 382.654 616.475ZM315.992 441.835C313.814 440.279 311.107 439.653 308.466 440.094C305.826 440.535 303.468 442.007 301.912 444.186C300.356 446.365 299.729 449.073 300.169 451.713C300.609 454.354 302.08 456.711 304.258 458.266C370.494 505.279 416.453 575.648 432.884 655.206C433.386 657.748 434.847 660 436.964 661.495C439.081 662.99 441.691 663.614 444.256 663.238C446.82 662.862 449.143 661.514 450.742 659.474C452.342 657.434 453.096 654.857 452.849 652.277L452.744 651.196C435.356 566.611 386.527 491.786 316.112 441.823L315.992 441.835ZM247.385 409.879C247.202 408.014 246.507 406.236 245.376 404.742C244.246 403.248 242.724 402.095 240.979 401.412C191.09 381.997 137.306 374.681 84.035 380.064C81.3591 380.326 78.8966 381.641 77.1893 383.719C75.482 385.797 74.6697 388.468 74.9312 391.144C75.1927 393.82 76.5065 396.282 78.5836 397.988C80.6607 399.695 83.3308 400.506 86.0068 400.244C136.147 395.181 186.768 402.059 233.731 420.314C235.347 420.948 237.098 421.155 238.816 420.917C240.535 420.679 242.164 420.003 243.547 418.954C244.93 417.905 246.02 416.519 246.713 414.928C247.406 413.337 247.679 411.594 247.505 409.868L247.385 409.879ZM370.498 437.458C371.375 436.431 372.031 435.236 372.427 433.945C372.822 432.655 372.948 431.297 372.797 429.956C372.544 427.306 371.26 424.863 369.222 423.152C318.017 379.831 256.506 350.447 190.626 337.833C189.302 337.541 187.932 337.518 186.599 337.765C185.266 338.013 183.995 338.525 182.864 339.272C181.732 340.02 180.761 340.987 180.01 342.116C179.259 343.246 178.743 344.514 178.491 345.847C178.239 347.18 178.258 348.549 178.546 349.875C178.833 351.2 179.384 352.453 180.166 353.561C180.947 354.669 181.943 355.609 183.095 356.325C184.247 357.04 185.53 357.517 186.87 357.727C249.325 369.694 307.636 397.553 356.181 438.62C358.241 440.345 360.898 441.19 363.576 440.972C366.255 440.755 368.742 439.493 370.498 437.458ZM428.115 502.143C425.882 503.648 424.329 505.971 423.793 508.61C423.257 511.249 423.78 513.993 425.248 516.249C444.989 545.945 460.327 578.344 470.785 612.438C471.575 615.01 473.35 617.164 475.723 618.431C478.096 619.698 480.874 619.974 483.451 619.199C485.681 618.52 487.606 617.088 488.898 615.148C490.19 613.207 490.769 610.879 490.536 608.56C490.501 607.867 490.353 607.185 490.096 606.541C479.122 570.582 462.956 536.42 442.11 505.136C440.6 502.911 438.278 501.365 435.642 500.831C433.006 500.296 430.266 500.815 428.006 502.275L428.115 502.143ZM55.5671 340.654C44.2769 347.321 35.597 357.64 30.9613 369.905C26.3256 382.171 26.0113 395.649 30.0703 408.114C34.1292 420.578 42.3187 431.284 53.286 438.463C64.2532 445.641 77.3422 448.862 90.3908 447.595C134.371 443.306 178.734 449.667 219.729 466.141C260.725 482.615 297.149 508.718 325.924 542.244C327.697 544.191 330.157 545.372 332.785 545.539C335.413 545.705 338.004 544.843 340.009 543.135C342.014 541.427 343.278 539.007 343.532 536.385C343.787 533.764 343.013 531.147 341.373 529.086C310.489 493.098 271.39 465.08 227.384 447.402C183.378 429.724 135.758 422.906 88.551 427.523C80.074 428.357 71.5672 426.273 64.4369 421.616C57.3065 416.959 51.9794 410.008 49.3362 401.911C46.6929 393.815 46.8917 385.057 49.8997 377.087C52.9077 369.116 58.5449 362.409 65.8794 358.075C70.5818 355.294 75.837 353.577 81.2742 353.048C83.9502 352.786 86.4126 351.471 88.1199 349.393C89.8272 347.315 90.6394 344.644 90.378 341.968C90.1165 339.292 88.8027 336.83 86.7256 335.123C84.6485 333.417 81.9784 332.605 79.3024 332.868C70.9132 333.678 62.807 336.336 55.5671 340.654ZM-19.7085 400.549C-16.9572 428.281 -3.32351 453.786 18.2041 471.474C39.7316 489.162 67.3968 497.59 95.1354 494.911C118.609 492.589 142.298 493.906 165.367 498.814C167.994 499.367 170.734 498.866 172.996 497.419C175.259 495.972 176.864 493.696 177.465 491.078C177.702 490.039 177.761 488.967 177.641 487.908C177.441 485.774 176.567 483.758 175.146 482.153C173.725 480.549 171.83 479.438 169.735 478.982C144.63 473.588 118.835 472.15 93.2836 474.719C70.8884 476.916 48.541 470.126 31.1578 455.843C13.7745 441.56 2.77941 420.954 0.59111 398.558C-1.59719 376.162 5.20059 353.81 19.4891 336.42C33.7776 319.03 54.3864 308.026 76.7817 305.829C166.938 297.233 257.441 318.076 334.738 365.236C412.035 412.396 471.966 483.335 505.556 567.43C506.452 569.71 508.142 571.589 510.314 572.72C512.486 573.852 514.995 574.159 517.376 573.585C519.758 573.012 521.852 571.596 523.273 569.6C524.694 567.604 525.344 565.161 525.106 562.723C525.013 561.791 524.801 560.874 524.475 559.996C489.29 471.798 426.466 397.391 345.418 347.928C264.371 298.465 169.466 276.609 74.9299 285.637C47.1994 288.399 21.6911 302.044 3.99606 323.58C-13.699 345.116 -22.137 372.786 -19.4682 400.526L-19.7085 400.549ZM-66.914 405.18C-63.3046 442.079 -46.4193 476.407 -19.3974 501.781C-18.4327 502.69 -17.2985 503.399 -16.0595 503.869C-14.8204 504.34 -13.5007 504.561 -12.1758 504.521C-10.851 504.481 -9.54686 504.181 -8.3379 503.637C-7.12896 503.093 -6.03885 502.316 -5.12987 501.351C-4.22087 500.386 -3.51069 499.252 -3.04005 498.012C-2.56943 496.773 -2.3475 495.453 -2.38688 494.128C-2.42625 492.803 -2.72622 491.499 -3.26961 490.29C-3.81299 489.081 -4.58919 487.992 -5.55385 487.083C-24.1394 469.691 -37.3144 447.307 -43.5001 422.612C-49.6858 397.918 -48.6199 371.961 -40.4301 347.851C-32.2403 323.742 -17.274 302.503 2.67559 286.679C22.6251 270.855 46.7117 261.118 72.049 258.633C77.4543 258.103 82.8594 257.573 88.168 257.295C90.8481 257.114 93.3489 255.883 95.1275 253.869C96.9062 251.856 97.8189 249.222 97.6674 246.54L97.6322 246.179C97.361 243.572 96.0973 241.168 94.1025 239.468C92.1077 237.767 89.5347 236.899 86.9169 237.044C81.3681 237.346 75.7227 237.899 70.0772 238.453C29.8283 242.447 -7.19925 262.244 -32.8814 293.5C-58.5635 324.757 -70.8028 364.921 -66.914 405.18ZM-98.8867 439.12C-100.157 439.525 -101.334 440.177 -102.35 441.039C-103.366 441.902 -104.201 442.957 -104.807 444.145C-105.413 445.332 -105.777 446.627 -105.879 447.956C-105.981 449.285 -105.818 450.621 -105.4 451.886C-91.2219 495.235 -62.7195 532.467 -24.5761 557.463C13.5672 582.459 59.0828 593.734 104.492 589.434C130.452 586.857 156.592 592.013 179.624 604.254C202.656 616.494 221.552 635.274 233.937 658.23C235.038 660.289 236.819 661.903 238.976 662.796C241.133 663.69 243.533 663.809 245.769 663.132C248.004 662.455 249.936 661.025 251.236 659.084C252.536 657.144 253.124 654.813 252.9 652.489C252.793 651.157 252.376 649.869 251.684 648.727C237.445 622.244 215.68 600.574 189.136 586.452C162.591 572.329 132.456 566.387 102.532 569.374C61.7221 573.223 20.821 563.083 -13.4577 540.619C-47.7364 518.156 -73.3562 484.702 -86.1122 445.749C-86.9503 443.2 -88.7619 441.085 -91.1524 439.866C-93.5429 438.647 -96.3186 438.422 -98.8749 439.24L-98.8867 439.12ZM-105.059 327.549C-105.516 328.826 -105.713 330.182 -105.639 331.536C-105.564 332.89 -105.219 334.216 -104.624 335.435C-104.029 336.654 -103.196 337.741 -102.174 338.632C-101.152 339.524 -99.9616 340.201 -98.6734 340.626C-97.3852 341.05 -96.0251 341.212 -94.6731 341.102C-93.3212 340.992 -92.0048 340.613 -90.8016 339.986C-89.5984 339.359 -88.5326 338.498 -87.6673 337.453C-86.8019 336.409 -86.1544 335.201 -85.7629 333.902C-73.6796 297.7 -50.4869 266.228 -19.486 243.965C-18.0408 242.92 -16.894 241.515 -16.1593 239.89C-15.4246 238.265 -15.1276 236.477 -15.2979 234.702C-15.4958 232.94 -16.1183 231.253 -17.1121 229.786C-18.687 227.604 -21.0588 226.132 -23.713 225.689C-26.3671 225.245 -29.0894 225.866 -31.2892 227.418C-65.7613 252.21 -91.5351 287.247 -104.939 327.537L-105.059 327.549ZM-104.552 230.967C-135.233 267.405 -154.72 311.94 -160.66 359.198C-165.152 394.763 -161.873 430.876 -151.049 465.043C-140.225 499.211 -122.113 530.619 -97.9648 557.099C-73.8166 583.579 -44.2072 604.499 -11.1813 618.416C21.8445 632.333 57.5 638.914 93.3228 637.704C94.6563 637.656 95.9671 637.344 97.1801 636.788C98.3931 636.231 99.4844 635.441 100.391 634.462C101.298 633.483 102.003 632.334 102.466 631.082C102.928 629.83 103.139 628.499 103.086 627.166L103.027 626.566C102.775 623.992 101.551 621.612 99.6043 619.911C97.6581 618.209 95.1361 617.313 92.5521 617.406C43.537 618.953 -4.66544 604.662 -44.908 576.651C-85.1506 548.641 -115.29 508.402 -130.858 461.903C-141.409 429.63 -144.75 395.432 -140.647 361.722C-135.219 318.348 -117.355 277.467 -89.2099 244.014C-88.3333 242.988 -87.677 241.792 -87.2816 240.502C-86.8862 239.211 -86.7601 237.853 -86.9112 236.512C-87.1009 234.52 -87.8762 232.628 -89.1392 231.076C-90.4023 229.524 -92.0966 228.38 -94.0088 227.79C-95.9209 227.199 -97.9652 227.188 -99.8842 227.757C-101.803 228.327 -103.511 229.452 -104.792 230.99L-104.552 230.967ZM-73.7727 639.059C-72.17 640.086 -70.3104 640.641 -68.4068 640.66C-66.5032 640.679 -64.6324 640.162 -63.0087 639.168C-61.3849 638.173 -60.0738 636.742 -59.2254 635.037C-58.377 633.332 -58.0257 631.423 -58.2115 629.529C-58.3495 628 -58.8379 626.523 -59.6388 625.214C-60.4398 623.904 -61.5316 622.797 -62.8298 621.978C-84.759 607.975 -104.592 590.935 -121.739 571.365C-123.512 569.352 -126.012 568.126 -128.689 567.957C-131.366 567.787 -134.002 568.688 -136.016 570.462C-138.029 572.235 -139.256 574.736 -139.427 577.414C-139.597 580.091 -138.697 582.727 -136.925 584.74C-118.497 605.732 -97.1958 624.015 -73.6524 639.047L-73.7727 639.059ZM118.342 731.176C121.018 730.914 123.48 729.599 125.188 727.521C126.895 725.443 127.707 722.772 127.446 720.096C127.184 717.42 125.87 714.958 123.793 713.251C121.716 711.545 119.046 710.733 116.37 710.996C32.9036 719.368 -50.511 694.73 -116.015 642.354C-118.133 640.7 -120.816 639.944 -123.486 640.252C-126.156 640.559 -128.599 641.904 -130.286 643.997C-131.119 645.04 -131.738 646.238 -132.107 647.521C-132.476 648.804 -132.588 650.148 -132.436 651.474C-132.283 652.8 -131.871 654.083 -131.221 655.249C-130.571 656.415 -129.697 657.441 -128.649 658.268C-59.0599 714.011 29.6226 740.23 118.354 731.296L118.342 731.176ZM122.954 778.384C138.15 776.893 152.133 769.426 161.829 757.627C171.524 745.828 176.136 730.661 174.651 715.465C173.167 700.269 165.706 686.287 153.911 676.596C142.116 666.905 126.953 662.298 111.757 663.789C85.8339 666.371 59.6763 665.263 34.067 660.496C32.7429 660.204 31.3737 660.18 30.0402 660.428C28.7068 660.675 27.4364 661.187 26.3046 661.935C25.1728 662.682 24.2027 663.649 23.4516 664.778C22.7005 665.908 22.1837 667.177 21.9321 668.509C21.6805 669.842 21.6991 671.211 21.9868 672.537C22.2745 673.862 22.8255 675.116 23.607 676.224C24.3885 677.332 25.3847 678.271 26.5363 678.987C27.688 679.702 28.9716 680.179 30.3112 680.389C57.8091 685.498 85.8917 686.704 113.729 683.969C123.605 683 133.459 685.994 141.125 692.292C148.79 698.591 153.639 707.677 154.604 717.553C155.569 727.429 152.571 737.286 146.27 744.954C139.969 752.622 130.882 757.475 121.006 758.444C39.8509 766.713 -41.7322 747.658 -110.812 704.299C-113.091 702.866 -115.846 702.398 -118.471 702.996C-121.096 703.595 -123.376 705.212 -124.809 707.491C-126.243 709.771 -126.713 712.526 -126.115 715.151C-125.518 717.776 -123.902 720.056 -121.623 721.489C-48.7375 767.247 37.3467 787.355 122.978 778.624L122.954 778.384ZM-24.5361 814.075C-3.14616 819.595 18.6377 823.458 40.6222 825.631C41.9491 825.765 43.2893 825.635 44.5662 825.25C45.8432 824.865 47.0317 824.232 48.0641 823.387C49.0965 822.543 49.9526 821.503 50.5831 820.328C51.2137 819.152 51.6066 817.864 51.7391 816.537C51.8126 815.851 51.826 815.16 51.7797 814.471C51.5375 812.159 50.5118 810 48.8728 808.351C47.2338 806.703 45.0802 805.666 42.7695 805.411C-9.10043 800.249 -59.5222 785.321 -105.837 761.415C-108.225 760.186 -111.003 759.956 -113.561 760.775C-116.119 761.595 -118.247 763.397 -119.477 765.785C-120.707 768.173 -120.939 770.952 -120.12 773.51C-119.302 776.068 -117.501 778.195 -115.113 779.425C-86.2666 794.275 -55.8493 805.853 -24.4278 813.943L-24.5361 814.075ZM-96.3552 869.63C-68.4349 880.178 -39.6467 888.269 -10.318 893.812C-8.15974 894.219 -6.19428 895.321 -4.7214 896.95C-3.24853 898.579 -2.34901 900.646 -2.16027 902.834C-2.06665 903.807 -2.09323 904.787 -2.23911 905.753C-2.48186 907.061 -2.98086 908.308 -3.7074 909.423C-4.43394 910.537 -5.37365 911.497 -6.47249 912.248C-7.57132 912.998 -8.80752 913.524 -10.1101 913.794C-11.4126 914.065 -12.7557 914.075 -14.0621 913.825C-44.5493 908.078 -74.4686 899.65 -103.472 888.64C-104.712 888.172 -105.847 887.465 -106.814 886.558C-107.781 885.652 -108.559 884.564 -109.105 883.356C-109.651 882.148 -109.954 880.845 -109.996 879.52C-110.038 878.195 -109.819 876.875 -109.351 875.634C-108.883 874.394 -108.175 873.258 -107.268 872.291C-106.361 871.324 -105.272 870.545 -104.065 869.999C-102.857 869.452 -101.553 869.149 -100.229 869.106C-98.9037 869.064 -97.5835 869.282 -96.3434 869.75L-96.3552 869.63Z" fill="#96F0FF"></path></g><defs><clipPath id="clip0_271_1510"><rect width="671" height="617" fill="white" transform="translate(645.489 574.035) rotate(158.492)"></rect></clipPath></defs></svg>