<svg xmlns="http://www.w3.org/2000/svg" width="550" height="550" viewBox="0 0 550 550" fill="none"><g opacity="0.4" clip-path="url(#clip0_218_480)"><path d="M283.726 204.814C285.654 205.364 287.702 205.329 289.611 204.715C291.52 204.1 293.205 202.934 294.451 201.363C295.697 199.792 296.45 197.887 296.613 195.888C296.777 193.89 296.344 191.888 295.369 190.136C294.395 188.384 292.923 186.961 291.139 186.046C289.355 185.13 287.339 184.765 285.347 184.995C283.355 185.225 281.475 186.041 279.947 187.339C278.418 188.637 277.308 190.359 276.758 192.287C276.036 194.872 276.363 197.637 277.668 199.982C278.972 202.327 281.149 204.063 283.726 204.814ZM406.868 356.491C408.796 357.041 410.844 357.006 412.753 356.392C414.662 355.778 416.347 354.611 417.593 353.04C418.839 351.469 419.592 349.564 419.755 347.566C419.919 345.567 419.486 343.566 418.511 341.814C417.537 340.062 416.065 338.638 414.281 337.723C412.497 336.808 410.481 336.442 408.489 336.672C406.497 336.903 404.618 337.718 403.089 339.016C401.56 340.314 400.45 342.036 399.9 343.964C399.178 346.549 399.505 349.314 400.81 351.66C402.114 354.005 404.291 355.741 406.868 356.491ZM183.245 90.7175C181.316 90.168 179.268 90.2026 177.359 90.8169C175.45 91.4312 173.766 92.5977 172.519 94.1688C171.273 95.7399 170.521 97.6451 170.357 99.6434C170.194 101.642 170.627 103.643 171.601 105.395C172.576 107.147 174.048 108.571 175.832 109.486C177.616 110.401 179.631 110.767 181.623 110.537C183.616 110.306 185.495 109.491 187.024 108.193C188.553 106.895 189.662 105.173 190.213 103.245C190.934 100.66 190.607 97.8946 189.303 95.5495C187.998 93.2044 185.822 91.4683 183.245 90.7175ZM270.739 42.7357C268.81 42.1862 266.762 42.2209 264.853 42.8352C262.944 43.4496 261.259 44.6159 260.013 46.187C258.767 47.7582 258.014 49.6633 257.851 51.6616C257.687 53.6599 258.12 55.6617 259.095 57.4137C260.069 59.1657 261.541 60.5892 263.325 61.5044C265.109 62.4195 267.125 62.785 269.117 62.5548C271.109 62.3246 272.989 61.5089 274.517 60.211C276.046 58.9131 277.156 57.1913 277.706 55.2631C278.428 52.6779 278.101 49.9129 276.796 47.5678C275.492 45.2227 273.315 43.4865 270.739 42.7357ZM398.747 170.324C399.297 168.396 399.263 166.348 398.649 164.44C398.036 162.531 396.869 160.848 395.298 159.602C393.727 158.356 391.822 157.605 389.823 157.442C387.825 157.279 385.822 157.713 384.07 158.687C382.317 159.662 380.893 161.135 379.977 162.919C379.061 164.703 378.695 166.718 378.924 168.709C379.154 170.701 379.969 172.58 381.267 174.108C382.564 175.636 384.286 176.745 386.215 177.295C388.8 178.015 391.566 177.687 393.912 176.382C396.258 175.077 397.995 172.901 398.747 170.324ZM534.047 187.921C534.597 185.993 534.563 183.945 533.949 182.036C533.335 180.128 532.169 178.444 530.598 177.199C529.027 175.953 527.122 175.202 525.123 175.039C523.124 174.876 521.122 175.309 519.369 176.284C517.617 177.259 516.192 178.732 515.277 180.516C514.361 182.299 513.994 184.315 514.224 186.306C514.454 188.298 515.269 190.177 516.566 191.705C517.864 193.233 519.586 194.342 521.514 194.891C524.1 195.612 526.865 195.284 529.211 193.979C531.557 192.674 533.295 190.497 534.047 187.921ZM633.835 363.816C635.764 364.365 637.812 364.331 639.721 363.717C641.63 363.102 643.314 361.936 644.561 360.365C645.807 358.794 646.559 356.888 646.723 354.89C646.886 352.892 646.454 350.89 645.479 349.138C644.505 347.386 643.032 345.962 641.248 345.047C639.464 344.132 637.449 343.767 635.457 343.997C633.464 344.227 631.585 345.043 630.056 346.341C628.527 347.639 627.418 349.36 626.867 351.289C626.146 353.874 626.473 356.639 627.777 358.984C629.082 361.329 631.258 363.065 633.835 363.816ZM643.21 88.6364C643.76 86.7082 643.726 84.6604 643.112 82.7519C642.498 80.8434 641.332 79.1599 639.761 77.9143C638.19 76.6688 636.285 75.9171 634.286 75.7544C632.288 75.5916 630.285 76.025 628.533 76.9998C626.78 77.9747 625.356 79.4471 624.44 81.231C623.524 83.015 623.158 85.0302 623.387 87.0218C623.617 89.0135 624.432 90.8922 625.73 92.4204C627.027 93.9485 628.749 95.0575 630.678 95.607C633.263 96.3273 636.029 95.9995 638.375 94.6946C640.721 93.3897 642.458 91.2129 643.21 88.6364ZM408.011 -38.4989C406.083 -39.0485 404.034 -39.0139 402.125 -38.3995C400.216 -37.7852 398.532 -36.6187 397.286 -35.0476C396.039 -33.4765 395.287 -31.5713 395.123 -29.573C394.96 -27.5747 395.393 -25.573 396.367 -23.821C397.342 -22.0691 398.814 -20.6455 400.598 -19.7304C402.382 -18.8153 404.398 -18.4497 406.39 -18.6799C408.382 -18.9101 410.261 -19.7257 411.79 -21.0236C413.319 -22.3215 414.429 -24.0435 414.979 -25.9717C415.7 -28.5569 415.373 -31.3218 414.069 -33.6669C412.764 -36.012 410.588 -37.7482 408.011 -38.4989ZM609.343 -87.8C608.793 -85.8719 608.827 -83.8241 609.441 -81.9156C610.055 -80.0071 611.221 -78.3236 612.792 -77.078C614.363 -75.8325 616.268 -75.0808 618.267 -74.918C620.265 -74.7552 622.268 -75.1886 624.02 -76.1635C625.773 -77.1383 627.197 -78.6109 628.113 -80.3948C629.029 -82.1787 629.396 -84.1939 629.166 -86.1856C628.936 -88.1773 628.121 -90.0559 626.824 -91.584C625.526 -93.1121 623.804 -94.2212 621.876 -94.7707C619.29 -95.491 616.524 -95.1631 614.178 -93.8582C611.832 -92.5533 610.095 -90.3766 609.343 -87.8ZM476.629 39.9128C466.269 25.6301 460.621 8.47126 460.474 -9.1745C460.326 -26.8203 465.686 -44.0747 475.807 -58.5353C485.928 -72.9958 500.305 -83.9427 516.938 -89.8517C533.571 -95.7608 551.632 -96.3379 568.605 -91.5026C571.191 -90.7657 573.964 -91.0861 576.314 -92.3933C578.664 -93.7005 580.399 -95.8875 581.137 -98.4731C581.875 -101.059 581.555 -103.831 580.249 -106.18C578.942 -108.53 576.755 -110.264 574.169 -111.001C553.142 -116.993 530.768 -116.281 510.16 -108.963C489.553 -101.646 471.738 -88.0868 459.196 -70.1744C446.654 -52.2619 440.01 -30.8873 440.187 -9.02621C440.364 12.8349 447.355 34.0945 460.186 51.7927C461.761 53.9723 464.138 55.4367 466.793 55.8639C469.449 56.2912 472.166 55.6462 474.346 54.0708C475.426 53.2907 476.341 52.3057 477.04 51.172C477.739 50.0384 478.208 48.7783 478.421 47.4636C478.849 44.8085 478.204 42.0923 476.629 39.9128ZM416.847 -91.4508C416.181 -89.1222 416.372 -86.6324 417.386 -84.4331C418.399 -82.2338 420.167 -80.4708 422.37 -79.4637C424.572 -78.4566 427.063 -78.2721 429.39 -78.9438C431.717 -79.6156 433.727 -81.0989 435.055 -83.1249C450.579 -106.583 473.177 -124.484 499.567 -134.228C525.957 -143.973 554.764 -145.053 581.804 -137.313C658.11 -115.583 727.584 -74.7039 783.624 -18.5596C784.558 -17.6176 785.669 -16.8689 786.893 -16.3563C788.117 -15.8437 789.43 -15.5771 790.757 -15.5718C792.084 -15.5665 793.399 -15.8227 794.628 -16.3256C795.856 -16.8285 796.973 -17.5683 797.916 -18.5028C798.858 -19.4373 799.608 -20.5482 800.121 -21.7721C800.634 -22.996 800.901 -24.3088 800.907 -25.6357C800.912 -26.9626 800.657 -28.2774 800.154 -29.5053C799.651 -30.7332 798.912 -31.85 797.977 -32.792C739.488 -91.3828 666.976 -134.036 587.335 -156.695C579.166 -159.003 570.827 -160.666 562.397 -161.668C534.488 -164.842 506.242 -160.232 480.787 -148.348C455.332 -136.465 433.661 -117.77 418.172 -94.336C417.583 -93.4956 417.146 -92.5584 416.88 -91.5669L416.847 -91.4508ZM490.439 182.397C493.025 183.134 495.798 182.813 498.148 181.506C500.498 180.199 502.233 178.012 502.971 175.426C503.709 172.841 503.39 170.068 502.083 167.719C500.776 165.37 498.589 163.636 496.003 162.899C467.222 154.678 440.948 139.408 419.563 118.472C398.177 97.536 382.355 71.5949 373.529 42.9986C364.703 14.4022 363.153 -15.946 369.018 -45.2974C374.884 -74.6488 387.98 -102.076 407.12 -125.095C408.014 -126.116 408.694 -127.305 409.121 -128.592C409.548 -129.88 409.713 -131.239 409.606 -132.591C409.499 -133.943 409.123 -135.26 408.499 -136.464C407.875 -137.668 407.016 -138.735 405.973 -139.602C404.93 -140.469 403.724 -141.119 402.426 -141.512C401.128 -141.906 399.764 -142.035 398.415 -141.893C397.066 -141.752 395.759 -141.341 394.571 -140.686C393.382 -140.032 392.337 -139.146 391.497 -138.081C370.227 -112.453 355.68 -81.9306 349.171 -49.2741C342.663 -16.6177 344.398 17.143 354.219 48.9553C364.041 80.7675 381.639 109.628 405.423 132.927C429.207 156.226 458.426 173.228 490.439 182.397ZM321.691 96.4103C322.881 98.7699 324.949 100.568 327.452 101.418C329.955 102.268 332.692 102.103 335.074 100.957C337.456 99.8105 339.294 97.7758 340.192 95.2897C341.09 92.8036 340.977 90.0648 339.876 87.6621C316.129 37.7213 311.434 -19.1748 326.674 -72.3439C330.195 -84.626 334.705 -96.6034 340.158 -108.159C340.773 -109.368 341.14 -110.687 341.237 -112.04C341.334 -113.393 341.159 -114.752 340.723 -116.036C340.287 -117.32 339.597 -118.503 338.696 -119.517C337.795 -120.53 336.7 -121.353 335.475 -121.936C334.251 -122.52 332.922 -122.852 331.567 -122.914C330.212 -122.976 328.858 -122.766 327.585 -122.297C326.312 -121.827 325.146 -121.108 324.156 -120.181C323.165 -119.254 322.37 -118.138 321.818 -116.899C315.828 -104.341 310.891 -91.3077 307.058 -77.9337C290.509 -20.0153 295.628 41.94 321.458 96.3441L321.691 96.4103ZM260.093 -10.1202C262.783 -10.0542 265.392 -11.04 267.367 -12.8677C269.342 -14.6955 270.526 -17.2211 270.668 -19.9076C271.475 -42.0984 274.976 -64.1099 281.091 -85.4588L281.82 -88.0121C282.465 -90.5862 282.122 -93.3082 280.86 -95.6421C279.598 -97.976 277.508 -99.7527 275.001 -100.622C272.424 -101.351 269.665 -101.046 267.309 -99.7721C264.953 -98.4982 263.187 -96.356 262.386 -93.8009L261.591 -91.0156C255.071 -68.099 251.284 -44.4933 250.307 -20.6896C250.215 -17.9936 251.192 -15.3705 253.024 -13.3912C254.857 -11.4119 257.397 -10.2363 260.093 -10.1202ZM258.083 176.8C259.54 179.046 261.829 180.621 264.447 181.178C267.065 181.736 269.798 181.231 272.045 179.774C274.291 178.318 275.867 176.029 276.426 173.411C276.985 170.793 276.481 168.06 275.024 165.815C230.638 97.7909 213.678 15.4725 227.561 -64.5696C228.025 -67.1195 227.492 -69.75 226.071 -71.917C224.65 -74.084 222.449 -75.6216 219.926 -76.2119C217.402 -76.8021 214.747 -76.3998 212.511 -75.0881C210.275 -73.7764 208.628 -71.6557 207.912 -69.1647L207.614 -68.1202C192.779 16.9489 210.774 104.466 257.967 176.767L258.083 176.8ZM310.197 231.684C309.683 233.486 309.678 235.395 310.182 237.2C310.686 239.004 311.679 240.634 313.052 241.91C352.349 278.264 399.705 304.79 451.24 319.313C453.826 320.05 456.599 319.73 458.949 318.423C461.299 317.115 463.034 314.928 463.772 312.343C464.51 309.757 464.19 306.985 462.884 304.636C461.577 302.286 459.39 300.552 456.804 299.816C408.3 286.143 363.725 261.184 326.725 226.982C325.455 225.8 323.902 224.965 322.215 224.556C320.529 224.148 318.765 224.18 317.094 224.648C315.423 225.117 313.901 226.007 312.672 227.233C311.444 228.46 310.552 229.981 310.08 231.651L310.197 231.684ZM205.768 160.888C204.576 161.522 203.527 162.393 202.686 163.449C201.845 164.505 201.23 165.722 200.879 167.025C200.143 169.583 200.442 172.327 201.71 174.666C233.466 233.743 279.92 283.634 336.588 319.523C337.713 320.28 338.979 320.804 340.31 321.063C341.641 321.321 343.011 321.31 344.338 321.03C345.665 320.75 346.922 320.206 348.035 319.43C349.148 318.655 350.094 317.664 350.816 316.516C351.539 315.369 352.024 314.088 352.242 312.749C352.461 311.411 352.408 310.042 352.087 308.725C351.766 307.408 351.184 306.168 350.374 305.08C349.565 303.993 348.546 303.078 347.376 302.392C293.658 268.36 249.622 221.061 219.514 165.056C218.23 162.696 216.068 160.936 213.496 160.156C210.924 159.376 208.148 159.639 205.768 160.888ZM175.879 79.5829C178.509 79.0011 180.805 77.4091 182.271 75.1505C183.737 72.8918 184.257 70.1475 183.718 67.5098C176.24 32.6441 173.849 -3.1219 176.619 -38.6759C176.827 -41.3581 175.965 -44.0133 174.222 -46.062C172.478 -48.1106 169.995 -49.3861 167.314 -49.6102C164.99 -49.7957 162.674 -49.1694 160.76 -47.8379C158.847 -46.5065 157.454 -44.5525 156.821 -42.3095C156.6 -41.6524 156.488 -40.9635 156.49 -40.2703C153.517 -2.79161 156.032 34.9185 163.956 71.6672C164.545 74.2912 166.139 76.58 168.395 78.0438C170.651 79.5077 173.391 80.0303 176.029 79.4999L175.879 79.5829ZM463.276 366.416C476.225 364.352 488.084 357.935 496.894 348.223C505.703 338.511 510.937 326.087 511.731 313.002C512.525 299.917 508.831 286.954 501.259 276.255C493.687 265.555 482.691 257.759 470.086 254.154C427.596 242.02 388.655 219.837 356.554 189.479C324.453 159.122 300.136 121.482 285.656 79.7416C284.721 77.2802 282.865 75.279 280.481 74.1606C278.097 73.0423 275.371 72.8944 272.879 73.7482C270.387 74.6019 268.324 76.3905 267.126 78.7361C265.928 81.0817 265.689 83.8006 266.459 86.3187C281.998 131.124 308.102 171.525 342.562 204.107C377.023 236.688 418.827 260.491 464.439 273.503C472.631 275.835 479.782 280.893 484.708 287.84C489.635 294.787 492.042 303.207 491.533 311.709C491.023 320.211 487.628 328.286 481.907 334.598C476.186 340.911 468.482 345.084 460.07 346.427C454.675 347.291 449.156 346.961 443.904 345.46C441.318 344.723 438.545 345.043 436.195 346.351C433.844 347.658 432.109 349.845 431.372 352.43C430.634 355.016 430.953 357.788 432.26 360.138C433.567 362.487 435.754 364.221 438.339 364.958C446.441 367.28 454.958 367.779 463.276 366.416ZM555.27 338.291C562.878 311.481 559.545 282.754 546.001 258.404C532.458 234.055 509.809 216.071 483.02 208.394C460.33 201.948 438.773 192.037 419.11 179.013C416.868 177.536 414.136 176.997 411.5 177.514C408.865 178.03 406.537 179.56 405.018 181.774C404.417 182.655 403.968 183.63 403.692 184.659C403.096 186.719 403.17 188.914 403.903 190.928C404.637 192.942 405.993 194.67 407.775 195.863C429.154 210.085 452.625 220.881 477.339 227.859C498.981 234.026 517.283 248.536 528.219 268.198C539.155 287.859 541.829 311.062 535.654 332.701C529.479 354.34 514.959 372.643 495.29 383.583C475.621 394.523 452.412 397.205 430.771 391.038C343.742 365.981 267.182 313.408 212.558 241.192C157.935 168.976 128.186 81.0034 127.767 -9.55108C127.77 -12.0005 126.887 -14.3682 125.28 -16.2171C123.674 -18.0661 121.453 -19.2715 119.027 -19.6112C116.601 -19.9509 114.133 -19.4018 112.08 -18.0653C110.026 -16.7288 108.525 -14.695 107.853 -12.3392C107.598 -11.4377 107.459 -10.5073 107.44 -9.57064C107.838 85.3854 139.008 177.645 196.276 253.379C253.545 329.113 333.827 384.242 425.091 410.503C451.903 418.1 480.638 414.758 504.996 401.209C529.355 387.661 547.35 365.011 555.038 338.224L555.27 338.291ZM600.886 351.289C611.057 315.637 607.933 277.509 592.096 243.994C591.531 242.795 590.736 241.719 589.756 240.827C588.776 239.936 587.629 239.246 586.382 238.797C585.135 238.348 583.811 238.15 582.487 238.213C581.163 238.275 579.864 238.598 578.664 239.163C577.465 239.727 576.388 240.523 575.496 241.503C574.604 242.484 573.913 243.63 573.464 244.877C573.015 246.125 572.816 247.448 572.878 248.772C572.941 250.096 573.263 251.394 573.827 252.593C584.742 275.588 588.793 301.244 585.494 326.487C582.195 351.729 571.687 375.488 555.228 394.916C538.769 414.344 517.058 428.617 492.696 436.025C468.334 443.432 442.354 443.661 417.871 436.682C412.647 435.194 407.424 433.705 402.383 432.018C399.823 431.204 397.045 431.432 394.652 432.653C392.259 433.875 390.445 435.99 389.602 438.541L389.503 438.889C388.799 441.415 389.094 444.114 390.326 446.428C391.558 448.742 393.634 450.492 396.122 451.317C401.396 453.071 406.851 454.626 412.306 456.18C451.217 467.222 492.924 462.379 528.278 442.715C563.631 423.051 589.744 390.171 600.886 351.289ZM643.076 331.435C644.406 331.525 645.74 331.349 647.002 330.919C648.264 330.49 649.428 329.814 650.426 328.931C651.425 328.049 652.239 326.977 652.821 325.778C653.403 324.579 653.742 323.277 653.817 321.946C656.519 276.418 643.652 231.329 617.329 194.088C591.006 156.848 552.794 129.671 508.97 117.023C483.873 109.902 461.444 95.5217 444.504 75.6889C427.564 55.8561 416.868 31.4564 413.763 5.55808C413.493 3.23867 412.428 1.08455 410.749 -0.537864C409.07 -2.16027 406.88 -3.15069 404.552 -3.34063C402.224 -3.53056 399.902 -2.9083 397.981 -1.57966C396.06 -0.251027 394.659 1.70184 394.015 3.94675C393.627 5.22482 393.542 6.57578 393.768 7.89214C397.305 37.7519 409.609 65.8925 429.128 88.7637C448.646 111.635 474.503 128.212 503.439 136.404C542.818 147.786 577.154 172.215 600.809 205.683C624.465 239.15 636.035 279.667 633.622 320.584C633.467 323.263 634.377 325.895 636.154 327.906C637.931 329.916 640.431 331.143 643.109 331.319L643.076 331.435ZM607.912 437.5C608.806 436.48 609.487 435.291 609.914 434.003C610.341 432.716 610.506 431.356 610.399 430.004C610.292 428.652 609.916 427.335 609.292 426.131C608.668 424.927 607.809 423.86 606.766 422.993C605.723 422.126 604.517 421.477 603.219 421.083C601.921 420.69 600.557 420.56 599.208 420.702C597.859 420.844 596.551 421.254 595.363 421.909C594.175 422.564 593.13 423.45 592.289 424.514C567.775 453.766 534.658 474.543 497.654 483.889C495.926 484.331 494.344 485.218 493.064 486.461C491.785 487.703 490.853 489.258 490.361 490.972C489.899 492.684 489.86 494.481 490.246 496.211C490.912 498.818 492.579 501.057 494.885 502.443C497.192 503.828 499.953 504.249 502.568 503.612C543.729 493.184 580.554 470.037 607.796 437.467L607.912 437.5ZM572.03 527.171C613.935 504.519 648.392 470.229 671.245 428.44C688.464 396.999 698.654 362.199 701.11 326.442C703.567 290.685 698.232 254.823 685.474 221.334C672.716 187.844 652.838 157.525 627.215 132.469C601.591 107.413 570.831 88.2175 537.06 76.2085C535.801 75.765 534.467 75.5742 533.135 75.6472C531.802 75.7202 530.497 76.0554 529.294 76.6338C528.091 77.2121 527.015 78.0221 526.125 79.0173C525.236 80.0126 524.552 81.1735 524.113 82.4334L523.947 83.0136C523.239 85.5004 523.505 88.1635 524.692 90.4602C525.878 92.757 527.896 94.5148 530.335 95.3757C576.504 111.907 616.11 142.876 643.28 183.69C670.451 224.505 683.739 272.992 681.174 321.961C679.158 355.855 669.728 388.896 653.551 418.755C632.599 457.118 600.99 488.603 562.54 509.407C561.348 510.041 560.299 510.912 559.458 511.968C558.617 513.024 558.002 514.241 557.651 515.544C557.097 517.467 557.125 519.511 557.731 521.418C558.337 523.326 559.494 525.011 561.056 526.261C562.619 527.512 564.517 528.272 566.511 528.445C568.505 528.619 570.506 528.198 572.262 527.237L572.03 527.171ZM693.016 136.211C691.901 134.668 690.375 133.47 688.611 132.755C686.847 132.039 684.917 131.834 683.041 132.164C681.166 132.494 679.421 133.345 678.007 134.62C676.593 135.895 675.566 137.542 675.044 139.373C674.612 140.846 674.525 142.399 674.79 143.911C675.055 145.423 675.665 146.853 676.572 148.091C691.841 169.159 704.045 192.284 712.823 216.777C713.734 219.3 715.611 221.358 718.039 222.497C720.468 223.636 723.25 223.764 725.774 222.852C728.298 221.941 730.356 220.064 731.497 217.635C732.637 215.207 732.766 212.425 731.855 209.902C722.407 183.615 709.292 158.795 692.9 136.178L693.016 136.211ZM548.053 -19.9272C545.467 -20.6641 542.694 -20.3436 540.344 -19.0364C537.994 -17.7291 536.259 -15.5422 535.521 -12.9566C534.783 -10.371 535.103 -7.59855 536.409 -5.24922C537.716 -2.89989 539.903 -1.16617 542.489 -0.429304C623.212 22.3832 691.785 75.8891 733.525 148.633C734.888 150.949 737.108 152.636 739.705 153.329C742.301 154.022 745.067 153.666 747.404 152.337C748.562 151.672 749.577 150.785 750.391 149.726C751.204 148.668 751.801 147.459 752.146 146.169C752.49 144.879 752.577 143.534 752.399 142.211C752.222 140.888 751.785 139.613 751.113 138.46C706.808 61.0851 633.914 4.17689 548.086 -20.0432L548.053 -19.9272ZM561.07 -65.5383C546.385 -69.7227 530.638 -67.9032 517.292 -60.4799C503.946 -53.0567 494.095 -40.6378 489.904 -25.9554C485.714 -11.273 487.529 4.4704 494.95 17.8112C502.37 31.1521 514.788 40.9976 529.472 45.1819C554.537 52.2836 578.467 62.9053 600.545 76.7296C601.67 77.4869 602.935 78.0105 604.267 78.2694C605.598 78.5283 606.968 78.5173 608.295 78.2369C609.622 77.9565 610.879 77.4125 611.992 76.6371C613.104 75.8618 614.05 74.8708 614.773 73.7232C615.496 72.5756 615.981 71.2946 616.199 69.9563C616.417 68.6179 616.364 67.2494 616.043 65.932C615.722 64.6147 615.14 63.3752 614.331 62.2873C613.522 61.1994 612.502 60.2851 611.333 59.5987C587.623 44.7633 561.938 33.3459 535.036 25.684C525.493 22.9646 517.423 16.566 512.6 7.89588C507.778 -0.774265 506.598 -11.0058 509.322 -20.5478C512.045 -30.0899 518.447 -38.1608 527.121 -42.9851C535.794 -47.8095 546.028 -48.992 555.571 -46.2726C634.107 -24.212 703.023 23.4274 751.395 89.0945C752.99 91.2631 755.381 92.7091 758.043 93.1146C760.705 93.5201 763.419 92.8517 765.588 91.2566C767.758 89.6614 769.205 87.2701 769.612 84.6088C770.018 81.9474 769.35 79.2341 767.756 77.0655C716.723 7.77089 644.005 -42.4985 561.136 -65.7705L561.07 -65.5383ZM711.375 -44.6693C693.499 -57.6467 674.648 -69.2279 654.991 -79.3101C653.806 -79.9205 652.511 -80.2912 651.182 -80.4012C649.853 -80.5111 648.515 -80.358 647.245 -79.9507C645.975 -79.5435 644.797 -78.89 643.779 -78.0276C642.762 -77.1652 641.924 -76.1109 641.314 -74.9248C640.994 -74.3134 640.728 -73.6753 640.519 -73.0178C639.897 -70.7779 640.059 -68.3927 640.98 -66.2585C641.9 -64.1242 643.524 -62.3692 645.58 -61.2849C691.945 -37.4648 733.383 -5.09016 767.708 34.1319C769.479 36.1508 771.979 37.3836 774.659 37.559C777.34 37.7344 779.98 36.8381 782 35.0672C784.02 33.2963 785.254 30.7958 785.431 28.116C785.607 25.4361 784.711 22.7964 782.941 20.7774C761.548 -3.61515 737.494 -25.5392 711.226 -44.5864L711.375 -44.6693ZM798.562 -70.0236C776.453 -90.0738 752.636 -108.156 727.382 -124.066C725.523 -125.236 724.099 -126.982 723.325 -129.038C722.552 -131.094 722.473 -133.346 723.1 -135.451C723.369 -136.39 723.753 -137.292 724.243 -138.137C724.949 -139.265 725.87 -140.243 726.955 -141.014C728.04 -141.784 729.266 -142.333 730.563 -142.628C731.861 -142.923 733.203 -142.959 734.514 -142.733C735.826 -142.508 737.079 -142.025 738.203 -141.313C764.46 -124.789 789.206 -105.978 812.152 -85.101C813.135 -84.2113 813.932 -83.1368 814.499 -81.9389C815.066 -80.741 815.391 -79.4431 815.456 -78.1193C815.521 -76.7956 815.325 -75.4719 814.878 -74.2238C814.432 -72.9758 813.744 -71.8279 812.853 -70.8455C811.963 -69.8631 810.888 -69.0656 809.69 -68.4985C808.492 -67.9314 807.193 -67.6057 805.869 -67.5402C804.545 -67.4746 803.221 -67.6705 801.973 -68.1165C800.725 -68.5625 799.577 -69.25 798.595 -70.1397L798.562 -70.0236Z" fill="#96F0FF"></path></g><defs><clipPath id="clip0_218_480"><rect width="550" height="550" fill="white"></rect></clipPath></defs></svg>