<svg xmlns="http://www.w3.org/2000/svg" width="429" height="546" viewBox="0 0 429 546" fill="none"><g clip-path="url(#clip0_563_1288)"><g opacity="0.4"><path d="M59.506 461.165C59.8773 459.22 59.6561 457.212 58.8703 455.393C58.0845 453.575 56.7694 452.028 55.0914 450.95C53.4133 449.871 51.4477 449.308 49.443 449.332C47.4383 449.356 45.4847 449.966 43.8291 451.086C42.1735 452.205 40.8903 453.782 40.1418 455.619C39.3933 457.456 39.2131 459.469 39.6239 461.405C40.0348 463.34 41.0183 465.111 42.4501 466.492C43.8819 467.874 45.6977 468.805 47.6678 469.167C50.3078 469.636 53.0309 469.06 55.247 467.562C57.4632 466.064 58.9935 463.765 59.506 461.165ZM199.304 326.193C199.675 324.248 199.454 322.24 198.668 320.421C197.882 318.603 196.567 317.057 194.889 315.978C193.211 314.899 191.246 314.336 189.241 314.36C187.236 314.384 185.283 314.994 183.627 316.113C181.971 317.233 180.688 318.81 179.94 320.647C179.191 322.484 179.011 324.497 179.422 326.433C179.833 328.368 180.816 330.139 182.248 331.52C183.68 332.902 185.496 333.833 187.466 334.195C190.106 334.664 192.829 334.088 195.045 332.59C197.261 331.092 198.791 328.793 199.304 326.193ZM-44.9386 570.405C-45.3099 572.35 -45.0887 574.358 -44.3029 576.177C-43.5171 577.995 -42.202 579.541 -40.524 580.62C-38.8459 581.699 -36.8803 582.262 -34.8756 582.238C-32.8709 582.214 -30.9173 581.603 -29.2617 580.484C-27.6061 579.365 -26.3229 577.788 -25.5744 575.951C-24.8259 574.114 -24.6457 572.101 -25.0565 570.165C-25.4674 568.23 -26.4509 566.459 -27.8827 565.078C-29.3145 563.696 -31.1303 562.765 -33.1004 562.403C-35.7403 561.934 -38.4636 562.51 -40.6797 564.008C-42.8958 565.506 -44.426 567.805 -44.9386 570.405ZM-100.694 488.905C-101.065 490.85 -100.844 492.858 -100.058 494.677C-99.2723 496.495 -97.9573 498.042 -96.2792 499.12C-94.6012 500.199 -92.6356 500.762 -90.6309 500.738C-88.6262 500.714 -86.6725 500.104 -85.0169 498.985C-83.3613 497.866 -82.0781 496.288 -81.3296 494.451C-80.5811 492.614 -80.401 490.601 -80.8118 488.665C-81.2227 486.73 -82.2062 484.96 -83.638 483.578C-85.0698 482.196 -86.8855 481.265 -88.8556 480.903C-91.4955 480.434 -94.2188 481.011 -96.435 482.509C-98.6511 484.006 -100.181 486.305 -100.694 488.905ZM14.6742 351.381C12.7041 351.018 10.6682 351.241 8.82388 352.02C6.97952 352.8 5.40962 354.101 4.31268 355.759C3.21574 357.417 2.64092 359.358 2.66109 361.336C2.68126 363.314 3.29548 365.241 4.426 366.872C5.55651 368.503 7.15263 369.766 9.01244 370.501C10.8722 371.235 12.9122 371.409 14.8744 370.999C16.8366 370.59 18.6329 369.615 20.0361 368.2C21.4393 366.784 22.3866 364.99 22.7579 363.045C23.2393 360.439 22.6607 357.753 21.1474 355.569C19.6342 353.386 17.3083 351.881 14.6742 351.381ZM19.8571 216.863C17.887 216.501 15.851 216.724 14.0067 217.503C12.1623 218.282 10.5924 219.583 9.49548 221.241C8.39854 222.9 7.82384 224.84 7.84401 226.819C7.86418 228.797 8.47837 230.723 9.60888 232.355C10.7394 233.986 12.3354 235.249 14.1952 235.983C16.055 236.718 18.095 236.892 20.0572 236.482C22.0194 236.072 23.8158 235.098 25.219 233.682C26.6222 232.266 27.5694 230.472 27.9407 228.528C28.4222 225.922 27.8436 223.236 26.3303 221.052C24.8171 218.868 22.4912 217.363 19.8571 216.863ZM185.899 102.59C186.27 100.645 186.049 98.6362 185.263 96.8179C184.477 94.9996 183.162 93.4531 181.484 92.3743C179.806 91.2954 177.84 90.7324 175.836 90.7565C173.831 90.7807 171.877 91.3909 170.222 92.51C168.566 93.6291 167.283 95.2069 166.534 97.0437C165.786 98.8805 165.606 100.894 166.017 102.829C166.427 104.765 167.411 106.535 168.843 107.917C170.275 109.298 172.09 110.229 174.06 110.592C176.7 111.061 179.424 110.484 181.64 108.986C183.856 107.488 185.386 105.19 185.899 102.59ZM-88.9573 118.823C-90.9274 118.46 -92.9634 118.683 -94.8078 119.462C-96.6521 120.242 -98.222 121.543 -99.319 123.201C-100.416 124.859 -100.991 126.8 -100.97 128.778C-100.95 130.756 -100.336 132.683 -99.2056 134.314C-98.0751 135.945 -96.479 137.208 -94.6192 137.943C-92.7594 138.678 -90.7195 138.851 -88.7572 138.441C-86.795 138.032 -84.9987 137.058 -83.5955 135.642C-82.1922 134.226 -81.2451 132.432 -80.8738 130.487C-80.3923 127.881 -80.9709 125.195 -82.4842 123.011C-83.9974 120.828 -86.3233 119.323 -88.9573 118.823ZM-194.099 361.587C-194.471 363.532 -194.249 365.54 -193.463 367.359C-192.678 369.177 -191.363 370.724 -189.685 371.802C-188.007 372.881 -186.041 373.444 -184.036 373.42C-182.032 373.396 -180.078 372.786 -178.422 371.666C-176.767 370.547 -175.484 368.97 -174.735 367.133C-173.987 365.296 -173.806 363.283 -174.217 361.347C-174.628 359.412 -175.612 357.641 -177.043 356.26C-178.475 354.878 -180.291 353.947 -182.261 353.585C-184.901 353.116 -187.624 353.693 -189.84 355.19C-192.056 356.688 -193.587 358.987 -194.099 361.587ZM-261.55 168.398C-259.58 168.76 -257.544 168.537 -255.699 167.758C-253.855 166.978 -252.285 165.677 -251.188 164.019C-250.091 162.361 -249.516 160.42 -249.537 158.442C-249.557 156.464 -250.171 154.537 -251.301 152.906C-252.432 151.275 -254.028 150.012 -255.888 149.277C-257.748 148.542 -259.788 148.369 -261.75 148.779C-263.712 149.188 -265.508 150.163 -266.912 151.578C-268.315 152.994 -269.262 154.788 -269.633 156.733C-270.115 159.339 -269.536 162.025 -268.023 164.209C-266.51 166.392 -264.184 167.897 -261.55 168.398ZM-122.281 286.941C-135.558 298.438 -152.128 305.571 -169.685 307.347C-187.241 309.124 -204.911 305.454 -220.232 296.851C-235.554 288.247 -247.765 275.137 -255.166 259.347C-262.566 243.556 -264.788 225.871 -261.521 208.753C-261.023 206.145 -261.595 203.451 -263.111 201.263C-264.627 199.076 -266.963 197.574 -269.605 197.088C-272.247 196.603 -274.978 197.173 -277.198 198.674C-279.418 200.174 -280.945 202.482 -281.443 205.09C-285.492 226.297 -282.743 248.207 -273.577 267.771C-264.412 287.335 -249.286 303.579 -230.307 314.242C-211.327 324.904 -189.438 329.455 -167.687 327.259C-145.936 325.064 -125.405 316.232 -108.952 301.994C-106.926 300.245 -105.684 297.775 -105.501 295.128C-105.318 292.48 -106.208 289.871 -107.975 287.875C-108.851 286.887 -109.915 286.078 -111.107 285.497C-112.3 284.915 -113.597 284.571 -114.926 284.484C-117.609 284.309 -120.254 285.193 -122.281 286.941ZM-247.63 357.804C-245.251 358.242 -242.789 357.825 -240.692 356.626C-238.594 355.428 -237 353.528 -236.198 351.271C-235.396 349.015 -235.439 346.552 -236.321 344.328C-237.202 342.104 -238.862 340.267 -241 339.151C-265.773 326.072 -285.659 305.531 -297.768 280.512C-309.878 255.493 -313.58 227.299 -308.339 200.024C-293.661 123.068 -259.293 51.0519 -208.499 -9.18096C-207.647 -10.1858 -207.002 -11.346 -206.604 -12.5956C-206.205 -13.8451 -206.059 -15.1595 -206.175 -16.4635C-206.291 -17.7675 -206.666 -19.0355 -207.278 -20.1954C-207.891 -21.3554 -208.73 -22.3845 -209.746 -23.2238C-210.763 -24.0631 -211.937 -24.6963 -213.202 -25.0871C-214.468 -25.478 -215.8 -25.6188 -217.121 -25.5018C-218.443 -25.3847 -219.729 -25.012 -220.906 -24.4048C-222.082 -23.7976 -223.127 -22.9679 -223.98 -21.9631C-276.986 40.9011 -312.843 116.066 -328.142 196.383C-329.696 204.621 -330.591 212.964 -330.82 221.337C-331.435 249.043 -324.269 276.359 -310.115 300.262C-295.961 324.166 -275.37 343.723 -250.624 356.769C-249.733 357.27 -248.76 357.613 -247.749 357.782L-247.63 357.804ZM18.3335 260.205C18.8313 257.597 18.2595 254.903 16.7435 252.715C15.2275 250.528 12.8917 249.026 10.2499 248.54C7.60811 248.054 4.8767 248.625 2.65659 250.125C0.436482 251.626 -1.0905 253.934 -1.58839 256.542C-7.14911 285.571 -19.9575 312.789 -38.8538 335.729C-57.7501 358.669 -82.1371 376.608 -109.806 387.921C-137.475 399.233 -167.552 403.561 -197.313 400.514C-227.073 397.467 -255.577 387.14 -280.243 370.468C-281.341 369.685 -282.587 369.126 -283.908 368.826C-285.229 368.526 -286.598 368.489 -287.934 368.719C-289.271 368.949 -290.548 369.441 -291.69 370.165C-292.832 370.889 -293.816 371.831 -294.584 372.935C-295.352 374.04 -295.888 375.285 -296.162 376.596C-296.435 377.907 -296.44 379.259 -296.176 380.571C-295.912 381.883 -295.384 383.129 -294.623 384.236C-293.863 385.342 -292.885 386.287 -291.749 387.014C-264.291 405.535 -232.573 417.001 -199.462 420.375C-166.352 423.749 -132.894 418.924 -102.114 406.336C-71.3336 393.748 -44.2017 373.795 -23.1716 348.281C-2.14151 322.766 12.1235 292.495 18.3335 260.205ZM-51.8958 433.898C-49.6548 432.511 -48.053 430.313 -47.4347 427.776C-46.8164 425.239 -47.231 422.567 -48.5894 420.333C-49.9479 418.099 -52.1415 416.481 -54.6988 415.829C-57.2561 415.177 -59.9729 415.542 -62.2649 416.845C-109.826 444.787 -166.05 454.658 -220.382 444.605C-232.932 442.282 -245.27 438.96 -257.273 434.672C-258.533 434.179 -259.88 433.941 -261.236 433.971C-262.592 434.001 -263.929 434.298 -265.168 434.845C-266.406 435.393 -267.522 436.179 -268.449 437.158C-269.376 438.137 -270.095 439.288 -270.564 440.545C-271.034 441.802 -271.244 443.138 -271.182 444.474C-271.12 445.811 -270.787 447.121 -270.203 448.328C-269.62 449.535 -268.797 450.614 -267.784 451.501C-266.77 452.388 -265.587 453.066 -264.303 453.494C-251.252 458.216 -237.825 461.86 -224.159 464.388C-164.979 475.288 -103.756 464.532 -51.9405 434.132L-51.8958 433.898ZM-152.353 504.248C-152.532 501.6 -153.752 499.128 -155.752 497.357C-157.752 495.586 -160.375 494.657 -163.062 494.766C-185.232 496.024 -207.468 494.621 -229.283 490.589L-231.892 490.109C-234.514 489.714 -237.193 490.301 -239.402 491.757C-241.611 493.212 -243.189 495.429 -243.827 497.972C-244.317 500.57 -243.762 503.253 -242.279 505.449C-240.795 507.645 -238.501 509.181 -235.884 509.732L-233.038 510.255C-209.625 514.54 -185.775 516.078 -161.984 514.837C-159.291 514.678 -156.769 513.476 -154.965 511.493C-153.161 509.51 -152.222 506.906 -152.353 504.248ZM33.9503 488.941C36.0535 487.303 37.4129 484.909 37.7296 482.286C38.0463 479.662 37.2942 477.025 35.6389 474.953C33.9835 472.881 31.5605 471.545 28.9028 471.238C26.2451 470.931 23.5705 471.679 21.4673 473.317C-42.2175 523.202 -122.637 547.47 -203.602 541.234C-206.183 541.014 -208.754 541.781 -210.782 543.377C-212.81 544.973 -214.141 547.277 -214.498 549.81C-214.856 552.344 -214.213 554.914 -212.703 556.989C-211.193 559.064 -208.931 560.485 -206.386 560.958L-205.318 561.155C-119.261 567.861 -33.7591 542.095 33.928 489.058L33.9503 488.941ZM83.8466 432.681C85.688 433.019 87.5892 432.848 89.3402 432.186C91.0912 431.524 92.6238 430.398 93.7684 428.932C126.383 386.973 148.477 338.008 158.239 286.048C158.736 283.44 158.164 280.746 156.648 278.558C155.132 276.371 152.797 274.869 150.155 274.383C147.513 273.898 144.782 274.468 142.562 275.968C140.341 277.469 138.815 279.777 138.317 282.385C129.126 331.29 108.339 377.379 77.6572 416.882C76.5967 418.239 75.9067 419.841 75.6537 421.536C75.4006 423.23 75.593 424.959 76.2122 426.557C76.8313 428.155 77.8565 429.568 79.1895 430.661C80.5224 431.754 82.1184 432.49 83.8243 432.798L83.8466 432.681ZM22.8776 541.796C23.6171 542.908 24.5806 543.858 25.7085 544.586C26.8363 545.314 28.1044 545.806 29.4338 546.031C32.0479 546.517 34.753 545.969 36.9666 544.507C92.8945 507.855 138.335 457.616 168.903 398.638C169.554 397.464 169.96 396.172 170.096 394.841C170.233 393.509 170.097 392.165 169.697 390.888C169.296 389.61 168.64 388.426 167.766 387.404C166.893 386.383 165.82 385.546 164.611 384.942C163.403 384.338 162.083 383.98 160.731 383.89C159.378 383.799 158.02 383.977 156.738 384.414C155.455 384.851 154.274 385.538 153.265 386.433C152.255 387.328 151.438 388.414 150.861 389.626C121.874 445.534 78.7936 493.159 25.7743 527.909C23.5412 529.389 21.9857 531.674 21.4437 534.273C20.9018 536.871 21.4167 539.573 22.8776 541.796ZM-55.3538 578.669C-56.1729 576.14 -57.9675 574.032 -60.3502 572.801C-62.733 571.569 -65.5128 571.312 -68.09 572.086C-102.124 582.654 -137.519 588.309 -173.174 588.875C-175.863 588.919 -178.429 590.011 -180.309 591.913C-182.19 593.814 -183.234 596.371 -183.212 599.026C-183.185 601.325 -182.35 603.542 -180.85 605.299C-179.35 607.055 -177.277 608.242 -174.986 608.657C-174.312 608.814 -173.616 608.86 -172.926 608.793C-135.336 608.249 -98.0169 602.292 -62.1483 591.112C-59.5893 590.29 -57.4556 588.514 -56.2037 586.162C-54.9519 583.811 -54.6815 581.071 -55.4501 578.53L-55.3538 578.669ZM204.042 269.871C200.806 257.344 193.334 246.29 182.861 238.534C172.387 230.779 159.539 226.787 146.438 227.217C133.336 227.647 120.766 232.474 110.803 240.9C100.84 249.326 94.0798 260.848 91.6398 273.561C83.4322 316.417 64.8952 356.715 37.5952 391.051C10.2953 425.387 -24.9654 452.751 -65.207 470.832C-67.5725 471.978 -69.3959 473.986 -70.292 476.431C-71.1881 478.876 -71.0868 481.567 -70.0095 483.936C-68.9321 486.304 -66.9631 488.165 -64.5183 489.125C-62.0734 490.084 -59.3444 490.068 -56.9073 489.079C-13.7111 469.675 24.137 440.301 53.4362 403.442C82.7355 366.583 102.624 323.322 111.421 277.319C112.996 269.057 117.38 261.566 123.847 256.085C130.315 250.604 138.48 247.461 146.992 247.176C155.504 246.89 163.854 249.479 170.661 254.514C177.469 259.549 182.326 266.73 184.431 274.869C185.783 280.088 185.958 285.538 184.942 290.836C184.444 293.444 185.016 296.138 186.532 298.326C188.048 300.513 190.384 302.015 193.026 302.501C195.667 302.986 198.399 302.416 200.619 300.916C202.839 299.415 204.366 297.107 204.864 294.499C206.438 286.327 206.157 277.916 204.042 269.871ZM167.647 182.116C140.259 177.122 111.958 183.052 88.9486 198.605C65.9387 214.158 50.0971 238.066 44.896 265.088C40.5463 287.97 32.6443 310.06 21.4692 330.576C20.2025 332.915 19.9155 335.649 20.67 338.189C21.4245 340.73 23.1602 342.875 25.5036 344.162C26.4349 344.672 27.447 345.022 28.4973 345.198C30.6022 345.593 32.7815 345.318 34.72 344.411C36.6585 343.504 38.2556 342.012 39.2802 340.152C51.4919 317.839 60.1009 293.787 64.7955 268.868C68.9624 247.042 81.7415 227.725 100.322 215.166C118.902 202.606 141.761 197.834 163.87 201.899C185.98 205.964 205.528 218.533 218.216 236.841C230.903 255.148 235.689 277.695 231.522 299.521C214.509 387.318 169.143 467.374 102.218 527.702C35.2926 588.029 -49.59 625.382 -139.718 634.165C-142.158 634.388 -144.435 635.475 -146.129 637.223C-147.824 638.972 -148.821 641.265 -148.938 643.679C-149.055 646.094 -148.284 648.466 -146.766 650.36C-145.248 652.253 -143.086 653.54 -140.679 653.982C-139.758 654.149 -138.819 654.2 -137.884 654.132C-43.3712 644.962 45.6504 605.818 115.837 542.567C186.025 479.317 233.596 395.367 251.422 303.301C256.542 276.264 250.593 248.35 234.881 225.677C219.169 203.005 194.975 187.424 167.603 182.35L167.647 182.116ZM176.43 136.11C140.003 129.417 102.323 136.01 70.3965 154.663C69.254 155.329 68.255 156.209 67.4565 157.254C66.658 158.3 66.0756 159.49 65.7427 160.756C65.4097 162.023 65.3326 163.341 65.5158 164.636C65.6991 165.93 66.1391 167.176 66.8107 168.302C67.4823 169.428 68.3722 170.412 69.4299 171.198C70.4876 171.984 71.6922 172.556 72.975 172.882C74.2578 173.208 75.5935 173.281 76.906 173.097C78.2185 172.913 79.4821 172.477 80.6246 171.811C102.526 158.965 127.702 152.615 153.138 153.521C178.573 154.428 203.188 162.552 224.034 176.922C244.88 191.292 261.072 211.297 270.669 234.54C280.267 257.784 282.864 283.279 278.148 307.972C277.142 313.24 276.136 318.508 274.916 323.615C274.338 326.204 274.819 328.912 276.253 331.149C277.688 333.387 279.96 334.974 282.577 335.565L282.932 335.631C285.511 336.089 288.172 335.55 290.364 334.125C292.555 332.701 294.109 330.501 294.704 327.98C295.969 322.639 297.019 317.137 298.07 311.635C305.515 272.397 296.89 231.88 274.086 198.973C251.282 166.067 216.162 143.459 176.43 136.11ZM152.814 96.5069C152.782 95.1926 152.485 93.8982 151.942 92.6987C151.399 91.4992 150.62 90.4184 149.65 89.5189C148.681 88.6194 147.539 87.919 146.292 87.4582C145.045 86.9975 143.718 86.7856 142.386 86.8348C96.8059 88.3898 53.0837 105.196 18.4033 134.493C-16.277 163.79 -39.8529 203.835 -48.4508 248.048C-53.2518 273.356 -65.5254 296.715 -83.7284 315.187C-101.931 333.659 -125.251 346.42 -150.755 351.865C-153.04 352.344 -155.088 353.589 -156.55 355.388C-158.013 357.188 -158.799 359.43 -158.776 361.734C-158.753 364.038 -157.922 366.261 -156.423 368.025C-154.925 369.789 -152.853 370.985 -150.559 371.41C-149.251 371.673 -147.898 371.631 -146.608 371.288C-117.199 365.053 -90.3006 350.366 -69.3073 329.081C-48.314 307.796 -34.1658 280.866 -28.6475 251.688C-20.906 211.958 0.287455 175.975 31.4542 149.647C62.621 123.318 101.909 108.208 142.871 106.796C145.553 106.701 148.09 105.563 149.93 103.632C151.771 101.701 152.764 99.1321 152.695 96.4851L152.814 96.5069ZM261.631 121.239C260.534 120.455 259.288 119.897 257.967 119.596C256.646 119.296 255.277 119.26 253.94 119.489C252.604 119.719 251.327 120.211 250.185 120.935C249.043 121.659 248.059 122.601 247.291 123.706C246.523 124.81 245.986 126.055 245.712 127.366C245.439 128.678 245.434 130.029 245.699 131.341C245.963 132.653 246.491 133.899 247.251 135.006C248.011 136.112 248.989 137.057 250.126 137.784C281.487 159.158 305.196 189.764 317.877 225.246C318.475 226.902 319.502 228.374 320.856 229.515C322.209 230.657 323.843 231.429 325.595 231.754C327.341 232.049 329.134 231.921 330.821 231.382C333.356 230.487 335.434 228.643 336.603 226.249C337.773 223.855 337.939 221.105 337.067 218.595C322.93 179.131 296.524 145.102 261.609 121.356L261.631 121.239ZM354.19 148.192C327.814 109.128 290.529 78.4539 246.834 59.8712C213.958 45.8656 178.377 39.0747 142.549 39.9676C106.722 40.8605 71.5002 49.4159 39.3175 65.043C7.1349 80.6701 -21.2421 102.997 -43.854 130.48C-66.4659 157.964 -82.7739 189.951 -91.6517 224.232C-91.9785 225.509 -92.0468 226.836 -91.8526 228.138C-91.6584 229.44 -91.2055 230.691 -90.52 231.819C-89.8345 232.947 -88.9297 233.93 -87.8576 234.711C-86.7856 235.493 -85.5673 236.057 -84.2727 236.373L-83.6798 236.481C-81.1391 236.947 -78.5117 236.44 -76.333 235.062C-74.1543 233.684 -72.5881 231.539 -71.9533 229.065C-59.7032 182.189 -32.4787 140.425 5.68321 109.965C43.8452 79.5054 90.9125 61.9713 139.906 59.9632C173.839 58.8102 207.598 65.017 238.804 78.1457C278.914 95.1781 313.146 123.313 337.368 159.155C338.107 160.267 339.071 161.217 340.199 161.945C341.327 162.674 342.595 163.166 343.924 163.39C345.89 163.756 347.923 163.54 349.766 162.769C351.61 161.997 353.182 160.705 354.285 159.054C355.388 157.404 355.971 155.47 355.962 153.495C355.954 151.52 355.352 149.594 354.235 147.958L354.19 148.192ZM-46.1282 65.5049C-47.563 66.7422 -48.6166 68.3524 -49.1685 70.1512C-49.7203 71.95 -49.7481 73.8647 -49.2486 75.6761C-48.7491 77.4875 -47.7424 79.1224 -46.344 80.3937C-44.9455 81.665 -43.2118 82.5211 -41.3412 82.8644C-39.8349 83.1527 -38.2809 83.0946 -36.7995 82.6945C-35.3182 82.2943 -33.9495 81.5631 -32.7996 80.5573C-13.2146 63.6132 8.69857 49.4878 32.2865 38.602C34.7156 37.4739 36.5931 35.4407 37.506 32.9499C38.419 30.459 38.2925 27.7144 37.1545 25.3199C36.0165 22.9254 33.9601 21.0769 31.4379 20.1815C28.9156 19.286 26.134 19.4168 23.705 20.5449C-1.60768 32.2548 -25.1252 47.4303 -46.1506 65.622L-46.1282 65.5049ZM-188.378 222.322C-188.876 224.93 -188.304 227.624 -186.788 229.811C-185.272 231.999 -182.936 233.501 -180.295 233.986C-177.653 234.472 -174.921 233.902 -172.701 232.401C-170.481 230.9 -168.954 228.592 -168.456 225.984C-153.103 144.589 -106.08 72.2908 -37.4536 24.5684C-35.272 23.0156 -33.7951 20.6797 -33.3419 18.065C-32.8886 15.4504 -33.4955 12.7669 -35.0312 10.5943C-35.799 9.51845 -36.7751 8.6036 -37.9034 7.90221C-39.0316 7.20083 -40.2898 6.72689 -41.6054 6.50753C-42.921 6.28817 -44.2682 6.32776 -45.5694 6.62408C-46.8706 6.92039 -48.1002 7.4675 -49.1873 8.23404C-122.19 58.9042 -172.207 135.761 -188.497 222.3L-188.378 222.322ZM-234.981 213.754C-237.808 228.563 -234.561 243.862 -225.952 256.284C-217.343 268.706 -204.079 277.234 -189.078 279.992C-174.076 282.75 -158.566 279.512 -145.959 270.991C-133.352 262.469 -124.681 249.362 -121.853 234.552C-117.068 209.277 -108.674 184.791 -96.9223 161.828C-96.2708 160.653 -95.8649 159.362 -95.7285 158.031C-95.5921 156.699 -95.728 155.355 -96.1282 154.077C-96.5284 152.8 -97.1848 151.616 -98.0583 150.594C-98.9318 149.573 -100.005 148.735 -101.213 148.132C-102.422 147.528 -103.742 147.17 -105.094 147.079C-106.447 146.989 -107.805 147.167 -109.087 147.604C-110.369 148.041 -111.55 148.728 -112.56 149.623C-113.569 150.518 -114.387 151.604 -114.964 152.816C-127.573 177.475 -136.599 203.759 -141.775 230.89C-143.613 240.514 -149.248 249.033 -157.441 254.571C-165.634 260.109 -175.714 262.213 -185.464 260.421C-195.214 258.628 -203.834 253.086 -209.428 245.013C-215.023 236.94 -217.134 226.997 -215.296 217.373C-200.492 138.196 -159.342 66.1029 -98.3671 12.5212C-96.3533 10.7544 -95.1315 8.27182 -94.9705 5.61997C-94.8096 2.96811 -95.7225 0.364099 -97.5087 -1.61934C-99.2949 -3.60277 -101.808 -4.80313 -104.495 -4.95628C-107.182 -5.10943 -109.823 -4.2029 -111.837 -2.43605C-176.181 54.0947 -219.603 130.165 -235.218 213.71L-234.981 213.754ZM-227.908 64.1949C-239.2 82.9532 -249.013 102.539 -257.259 122.778C-257.759 123.999 -258.01 125.304 -257.998 126.62C-257.986 127.936 -257.712 129.235 -257.19 130.445C-256.669 131.655 -255.911 132.751 -254.96 133.671C-254.008 134.591 -252.882 135.316 -251.645 135.806C-251.007 136.063 -250.348 136.266 -249.674 136.41C-247.387 136.815 -245.027 136.435 -242.985 135.333C-240.944 134.231 -239.345 132.475 -238.453 130.355C-218.963 82.613 -190.506 38.9202 -154.582 1.58011C-152.733 -0.345619 -151.734 -2.91556 -151.804 -5.56439C-151.873 -8.21323 -153.007 -10.724 -154.954 -12.5443C-156.902 -14.3646 -159.504 -15.3454 -162.188 -15.2708C-164.873 -15.1963 -167.42 -14.0724 -169.268 -12.1467C-191.606 11.1204 -211.242 36.7732 -227.812 64.3337L-227.908 64.1949ZM-261.105 -19.0949C-279.053 4.47385 -294.886 29.5385 -308.425 55.814C-309.421 57.7477 -311.029 59.3082 -313.006 60.2575C-314.982 61.2068 -317.217 61.4929 -319.371 61.0719C-320.33 60.8941 -321.264 60.6003 -322.15 60.1973C-323.337 59.6087 -324.395 58.7939 -325.261 57.7998C-326.127 56.8058 -326.785 55.652 -327.198 54.405C-327.61 53.158 -327.768 51.8424 -327.663 50.5338C-327.557 49.2252 -327.191 47.9495 -326.585 46.7801C-312.526 19.4627 -296.053 -6.58163 -277.357 -31.0496C-276.561 -32.0967 -275.564 -32.9792 -274.423 -33.6467C-273.282 -34.3141 -272.019 -34.7537 -270.707 -34.94C-269.395 -35.1263 -268.059 -35.0559 -266.775 -34.7327C-265.492 -34.4095 -264.286 -33.8398 -263.227 -33.0563C-262.168 -32.2728 -261.275 -31.2907 -260.601 -30.1661C-259.927 -29.0416 -259.485 -27.7964 -259.299 -26.502C-259.113 -25.2076 -259.187 -23.8893 -259.517 -22.6221C-259.848 -21.3549 -260.428 -20.1637 -261.224 -19.1167L-261.105 -19.0949Z" fill="#086879"></path></g></g><defs><clipPath id="clip0_563_1288"><rect width="429" height="546" rx="50" fill="white"></rect></clipPath></defs></svg>