<svg xmlns="http://www.w3.org/2000/svg" width="24" height="23" viewBox="0 0 24 23" fill="none"><path d="M1.7002 8.36665C1.7002 10.2801 2.46032 12.1152 3.81336 13.4683C5.1664 14.8213 7.00151 15.5814 8.91499 15.5814C10.8285 15.5814 12.6636 14.8213 14.0166 13.4683C15.3697 12.1152 16.1298 10.2801 16.1298 8.36665C16.1298 6.45317 15.3697 4.61806 14.0166 3.26502C12.6636 1.91198 10.8285 1.15186 8.91499 1.15186C7.00151 1.15186 5.1664 1.91198 3.81336 3.26502C2.46032 4.61806 1.7002 6.45317 1.7002 8.36665Z" fill="white" fill-opacity="0.3"></path><path d="M11.9502 22.6433V13.4885C11.9502 12.9606 12.1599 12.4544 12.5331 12.0812C12.9063 11.708 13.4125 11.4983 13.9404 11.4983C14.4682 11.4983 14.9744 11.708 15.3476 12.0812C15.7209 12.4544 15.9306 12.9606 15.9306 13.4885V17.8669H19.1148C19.9594 17.8669 20.7693 18.2023 21.3665 18.7995C21.9636 19.3967 22.2991 20.2066 22.2991 21.0511V22.6433" fill="white"></path><path d="M11.9502 21.8472V13.4885C11.9502 12.9606 12.1599 12.4544 12.5331 12.0812C12.9063 11.708 13.4125 11.4983 13.9404 11.4983C14.2017 11.4983 14.4605 11.5498 14.702 11.6498C14.9434 11.7498 15.1628 11.8964 15.3476 12.0812C15.5324 12.266 15.679 12.4854 15.7791 12.7269C15.8791 12.9683 15.9306 13.2271 15.9306 13.4885V17.8669H19.1148C19.9594 17.8669 20.7693 18.2023 21.3665 18.7995C21.9636 19.3967 22.2991 20.2066 22.2991 21.0511V21.8472" stroke="white" stroke-width="1.71" stroke-linecap="round" stroke-linejoin="round"></path><path d="M8.91614 15.5823C7.44719 15.5821 6.01331 15.1335 4.80621 14.2964C3.59911 13.4593 2.67631 12.2737 2.16121 10.898C1.6461 9.52232 1.56323 8.02218 1.92368 6.59815C2.28412 5.17411 3.07071 3.89404 4.17827 2.92909C5.28582 1.96415 6.66156 1.36031 8.12155 1.19831C9.58154 1.03631 11.0562 1.32387 12.3483 2.02255C13.6405 2.72123 14.6886 3.79772 15.3524 5.1081C16.0163 6.41849 16.2643 7.9003 16.0633 9.35543" stroke="white" stroke-width="1.71" stroke-linecap="round"></path><path d="M10.9461 6.24592C10.8367 5.93506 10.6335 5.66581 10.3646 5.47532C10.0956 5.28482 9.77423 5.18247 9.44468 5.18237H8.21076C7.86072 5.18336 7.52334 5.31343 7.26324 5.5477C7.00314 5.78196 6.8386 6.10394 6.80114 6.45198C6.76367 6.80001 6.85591 7.14963 7.0602 7.43389C7.26448 7.71814 7.56644 7.91704 7.90826 7.99251L9.7838 8.40328C10.1676 8.48704 10.5068 8.70971 10.7364 9.02848C10.9659 9.34725 11.0695 9.73962 11.0272 10.1301C10.9849 10.5207 10.7998 10.8818 10.5074 11.1441C10.2149 11.4063 9.83589 11.5512 9.44308 11.5509H8.38112C8.05195 11.5511 7.73083 11.4492 7.46196 11.2593C7.19308 11.0694 6.98968 10.8008 6.87973 10.4906" stroke="white" stroke-width="1.71" stroke-linecap="round" stroke-linejoin="round"></path><path d="M8.91406 5.18248V3.59033" stroke="white" stroke-width="1.71" stroke-linecap="round" stroke-linejoin="round"></path><path d="M8.91406 13.1432V11.551" stroke="white" stroke-width="1.71" stroke-linecap="round" stroke-linejoin="round"></path></svg>