<svg xmlns="http://www.w3.org/2000/svg" width="597" height="98" viewBox="0 0 597 98" fill="none"><path d="M50.5 96.4C24.3 96.4 3 75.1 3 48.9C3 22.8 24.3 1.5 50.5 1.5C76.6 1.5 97.9 22.8 97.9 48.9C97.9 75.1 76.6 96.4 50.5 96.4ZM50.5 7.9C27.9 7.9 9.5 26.3 9.5 48.9C9.5 71.5 27.9 89.9 50.5 89.9C73.1 89.9 91.5 71.5 91.5 48.9C91.5 26.3 73.1 7.9 50.5 7.9Z" fill="white"></path><path d="M450.1 17.9C448.8 18 446.3 18.3 443.9 19.4C441.7 20.5 440.8 22.6 440.3 25.4L432.3 71.1H442.4L449.8 28.9C450.3 26.4 451.3 19.5 453.1 18C452.3 17.8 451.2 17.8 450.1 17.9Z" fill="white"></path><path d="M163.6 18.1C162.4 18.2 158.7 18.5 156.8 20.6C155.7 21.8 155.3 23 154.9 24.9L146.6 71H178.2L179.8 61.8H158.5L160.9 47.5H177.7L179.3 38.6H162.5L164.5 27H184.9L186.5 17.9H168C168 17.9 165.4 17.9 163.6 18.1Z" fill="white"></path><path d="M355.3 16.8C335.5 16.8 325.3 32.7 325.2 51.5C325.2 62.3 330.8 70.3 341.6 71.8C348.5 84.1 352.1 89.6 358.3 89.6C360.9 89.6 364.1 89.2 365.3 89V82.3H363.3C359 82.3 355.2 76.6 352.3 71.4C367.6 68.3 375.6 53.9 375.6 37.4C375.7 25.3 368.8 16.8 355.3 16.8ZM346.5 63.2C339.9 63.2 335.6 58.9 335.6 50.9C335.6 38.4 342.6 25.6 354.4 25.6C361 25.6 365.3 30 365.3 37.9C365.3 50.5 358.3 63.2 346.5 63.2Z" fill="white"></path><path d="M485.3 16.8C465.3 16.8 454.4 31.4 454.4 48.9C454.4 63.6 462.3 72.1 477.5 72.1C484 72.1 491.5 70.3 495.2 68.5L495.8 68.2C494.5 65.9 493.4 63.4 492.7 60.6C489.3 62 484.2 63.3 480 63.3C470.3 63.3 465 58.2 465 48.4C465 36 472.4 25.7 485.7 25.7C489.6 25.7 493.6 26.9 496.6 28.4C498 25.5 499.7 22.9 501.6 20.6L500.7 20.1C496 17.9 490.4 16.8 485.3 16.8Z" fill="white"></path><path d="M531.8 16.8C511.9 16.8 501.7 32.7 501.7 51.6C501.7 63.6 508.7 72.1 522.2 72.1C542.1 72.1 552.3 56.2 552.3 37.3C552.2 25.2 545.3 16.8 531.8 16.8ZM523 63.2C516.4 63.2 512.1 58.9 512.1 50.9C512.1 38.4 519.1 25.6 530.9 25.6C537.5 25.6 541.8 30 541.8 37.9C541.8 50.4 534.8 63.2 523 63.2Z" fill="white"></path><path d="M577 25.7C581.1 25.7 586.5 27.2 589.3 29L592.2 20.2C589.3 18.4 583.4 16.8 578.2 16.8C569.4 16.8 562.4 20.5 560.1 27.7C559.6 29.3 559.3 31.2 559.3 33.2C559.3 36 560.1 38.3 561.4 40.2C566.3 47.4 578 49.6 578 56.4C578 60.9 573.8 63.3 569 63.3C565.3 63.3 560.5 62.2 556.6 60.1C555.2 62.9 553.6 65.4 551.8 67.7L552.4 68.1C556.4 70.6 562.8 72.1 567.7 72.1C583 72.1 588.8 63.3 588.8 54.7C588.8 41.8 569.9 39.2 569.9 31.9C569.8 27.6 572.9 25.7 577 25.7Z" fill="white"></path><path d="M261 17.9L256 23.3H251.6L229.2 62C229.2 62 229.5 65.8 234.8 71L242.1 58.2H260.2L262.9 71H273.4L261 17.9ZM246.8 49.9L255.3 35L258.5 49.9H246.8Z" fill="white"></path><path d="M254.8 20.4L267 7.1L256.7 7L249.6 20.4H254.8Z" fill="white"></path><path d="M228.3 31.6C228.3 22.1 222.3 17.9 212.3 17.9H195.8L186.5 71H196.6L200.4 49.2H202.9C205.3 49.2 206.4 49.7 207.4 52.4L212.4 65.2C213.4 68 214.6 70 217.1 70.9C219.8 71.7 222.4 71.6 223.8 71.5C225 71.4 226.1 71.3 226.9 71.1C225.7 70.4 224.3 67.6 223.2 64.9C222.4 63.1 220 56.4 220 56.4L218.4 52.3C217.6 50.3 216.3 47.6 213.3 47C222.5 45.3 228.3 39.6 228.3 31.6ZM207 40.5H201.9L204.3 27.1H210C214.5 27.1 217.8 28.3 217.8 32.8C217.9 37.9 213 40.5 207 40.5Z" fill="white"></path><path d="M432.6 17.9C431.8 17.8 430.8 17.8 429.6 17.9C428.2 18 425.8 18.3 423.3 19.4C421.1 20.6 420.2 22.6 419.6 25.4L415.2 50.7C413.9 57.9 409.7 62.7 401.7 62.7C394.2 62.7 391.1 59.5 391.1 54.3C391.1 53.1 391.4 50.7 391.7 49.2L397.2 17.8H387L381.4 50C381.1 51.8 380.9 53.9 380.9 55.2C380.9 67.4 390.5 72 400.9 72C414.5 72 423.1 65.4 425.1 53.4L429.8 25.6C430.5 22.6 431.3 18.9 432.6 17.9Z" fill="white"></path><path d="M146.6 17.8C145.8 17.8 144.8 17.8 143.7 17.8C142.4 17.9 139.9 18.2 137.6 19.2C135.5 20.3 134.6 22.3 134 25.1L128.1 58.4C126.5 67.5 123.2 70 117.3 72.8L120.4 80.2C129.2 77.3 135.5 72.2 137.9 59L143.4 28.5C143.8 26 144.9 19.2 146.6 17.8Z" fill="white"></path><path d="M62.7 32.6C65.6 32.6 69.5 33.7 71.5 34.9L73.6 28.6C71.5 27.3 67.3 26.2 63.6 26.2C57.3 26.2 52.3 28.8 50.7 34C50.3 35.2 50.1 36.5 50.1 38C50.1 40 50.7 41.6 51.6 43C55.1 48.2 63.4 49.7 63.4 54.5C63.4 57.7 60.4 59.4 57 59.4C54.4 59.4 51 58.6 48.2 57.2C47.2 59.2 46.1 61 44.7 62.6L45.1 62.8C47.9 64.6 52.5 65.7 56 65.7C66.9 65.7 71 59.4 71 53.2C71 44 57.5 42.2 57.5 37C57.5 34 59.7 32.6 62.7 32.6Z" fill="white"></path><path d="M48.3 27C47.7 27 47 27 46.2 27C45.2 27.1 43.5 27.3 41.8 28C40.3 28.8 39.6 30.2 39.3 32.2L35.1 56C34 62.5 31.6 64.3 27.4 66.3L29.6 71.5C35.9 69.4 40.4 65.8 42.1 56.4L46.1 34.7C46.3 32.8 47 28 48.3 27Z" fill="white"></path><path d="M320 31.7C320 22.2 314 18 304 18H287.5L278.3 71H288.4L292.2 49.2H294.7C297.1 49.2 298.2 49.7 299.2 52.4L304.2 65.1C305.2 67.9 306.4 69.9 308.9 70.8C311.6 71.6 314.2 71.5 315.6 71.4C316.8 71.3 317.8 71.2 318.7 71C317.5 70.2 316.1 67.4 315 64.8C314.3 62.9 311.8 56.3 311.8 56.3L310.2 52.2C309.4 50.2 308.2 47.4 305.2 46.9C314.1 45.3 320 39.6 320 31.7ZM298.7 40.5H293.6L296 27.1H301.7C306.2 27.1 309.5 28.3 309.5 32.8C309.5 37.9 304.6 40.5 298.7 40.5Z" fill="white"></path></svg>