<svg xmlns="http://www.w3.org/2000/svg" width="152" height="1096" viewBox="0 0 152 1096" fill="none"><g clip-path="url(#clip0_257_727)"><path d="M-647.883 1096H114C130.569 1096 144 1082.57 144 1066V1045.05C144 1028.48 130.569 1015.05 114 1015.05H45.9518C29.3833 1015.05 15.9518 1001.62 15.9518 985.049L15.9518 109.446C15.9518 92.8779 29.3833 79.4465 45.9518 79.4465L114 79.4465C130.569 79.4465 144 66.015 144 49.4465V30C144 13.4315 130.569 0 114 0L-919 0C-935.568 0 -949 13.4314 -949 30V162.898C-949 179.467 -935.569 192.898 -919 192.898L-707.883 192.898C-691.314 192.898 -677.883 206.33 -677.883 222.898L-677.883 1066C-677.883 1082.57 -664.451 1096 -647.883 1096Z" fill="white"></path></g><defs><clipPath id="clip0_257_727"><rect width="1096" height="152" fill="white" transform="matrix(0 1 -1 0 152 0)"></rect></clipPath></defs></svg>