<svg xmlns="http://www.w3.org/2000/svg" width="295" height="47" viewBox="0 0 295 47" fill="none"><rect x="1" y="1" width="45" height="45" rx="22.5" stroke="white" stroke-width="2"></rect><path d="M27.7258 12.2979C25.8756 12.2979 24.1011 13.0329 22.7928 14.3412L19.0018 18.1322L28.8678 27.9982L32.6588 24.2071C33.967 22.8988 34.7021 21.1244 34.7021 19.2741C34.7021 17.4239 33.967 15.6495 32.6588 14.3412C31.3505 13.0329 29.576 12.2979 27.7258 12.2979Z" fill="white" fill-opacity="0.3"></path><path fill-rule="evenodd" clip-rule="evenodd" d="M19.0018 18.1321L14.3412 22.7927C13.0329 24.101 12.2979 25.8754 12.2979 27.7257C12.2979 29.5759 13.0329 31.3504 14.3412 32.6586C15.6495 33.9669 17.4239 34.702 19.2741 34.702C21.1244 34.702 22.8988 33.9669 24.2071 32.6586L28.8678 27.9981L19.0018 18.1321Z" fill="white"></path><path d="M22.7928 14.3412C24.1011 13.0329 25.8755 12.2979 27.7258 12.2979C29.576 12.2979 31.3505 13.0329 32.6588 14.3412C33.9671 15.6495 34.702 17.4239 34.702 19.2741C34.702 21.1244 33.9671 22.8988 32.6588 24.2071L24.2071 32.6587C22.8988 33.967 21.1244 34.7021 19.2741 34.7021C17.4239 34.7021 15.6495 33.967 14.3412 32.6587C13.0329 31.3505 12.2979 29.576 12.2979 27.7258C12.2979 25.8755 13.0329 24.1011 14.3412 22.7928L22.7928 14.3412Z" stroke="white" stroke-width="1.71" stroke-linecap="round" stroke-linejoin="round"></path><path d="M18.9982 18.1357L28.8642 28.0017" stroke="white" stroke-width="1.71" stroke-linecap="round" stroke-linejoin="round"></path><rect x="63" y="1" width="45" height="45" rx="22.5" stroke="white" stroke-width="2"></rect><rect x="125" y="1" width="45" height="45" rx="22.5" stroke="white" stroke-width="2"></rect><path fill-rule="evenodd" clip-rule="evenodd" d="M143.188 14.0134H140.169C139.712 14.0134 139.273 14.1951 138.95 14.5186C138.626 14.8421 138.444 15.2808 138.444 15.7382V32.9865C138.444 33.4439 138.626 33.8826 138.95 34.2061C139.273 34.5296 139.712 34.7113 140.169 34.7113H154.83C155.288 34.7113 155.726 34.5296 156.05 34.2061C156.373 33.8826 156.555 33.4439 156.555 32.9865V15.7382C156.555 15.2808 156.373 14.8421 156.05 14.5186C155.726 14.1951 155.288 14.0134 154.83 14.0134H151.812V14.8758C151.812 15.1023 151.767 15.3266 151.68 15.5359C151.594 15.7452 151.467 15.9353 151.307 16.0955C151.146 16.2556 150.956 16.3827 150.747 16.4694C150.538 16.556 150.313 16.6007 150.087 16.6007H144.912C144.455 16.6007 144.016 16.4189 143.693 16.0955C143.369 15.772 143.188 15.3333 143.188 14.8758V14.0134Z" fill="white" fill-opacity="0.3"></path><path d="M152.243 14.0134H154.83C155.288 14.0134 155.726 14.1951 156.05 14.5186C156.373 14.8421 156.555 15.2808 156.555 15.7382V32.9865C156.555 33.4439 156.373 33.8826 156.05 34.2061C155.726 34.5296 155.288 34.7113 154.83 34.7113H140.169C139.712 34.7113 139.273 34.5296 138.95 34.2061C138.626 33.8826 138.444 33.4439 138.444 32.9865V15.7382C138.444 15.2808 138.626 14.8421 138.95 14.5186C139.273 14.1951 139.712 14.0134 140.169 14.0134H142.756" stroke="white" stroke-width="1.71" stroke-linecap="round" stroke-linejoin="round"></path><path d="M150.087 12.2886H144.912C144.455 12.2886 144.016 12.4703 143.693 12.7938C143.369 13.1172 143.188 13.5559 143.188 14.0134V14.8758C143.188 15.3333 143.369 15.772 143.693 16.0954C144.016 16.4189 144.455 16.6006 144.912 16.6006H150.087C150.313 16.6006 150.538 16.556 150.747 16.4693C150.956 16.3827 151.146 16.2556 151.307 16.0954C151.467 15.9353 151.594 15.7451 151.68 15.5359C151.767 15.3266 151.812 15.1023 151.812 14.8758V14.0134C151.812 13.5559 151.63 13.1172 151.307 12.7938C150.983 12.4703 150.544 12.2886 150.087 12.2886Z" fill="white"></path><path d="M150.087 12.2886H144.912C144.455 12.2886 144.016 12.4703 143.693 12.7938C143.369 13.1172 143.188 13.5559 143.188 14.0134V14.8758C143.188 15.3333 143.369 15.772 143.693 16.0954C144.016 16.4189 144.455 16.6006 144.912 16.6006H150.087C150.313 16.6006 150.538 16.556 150.747 16.4693C150.956 16.3827 151.146 16.2556 151.307 16.0954C151.467 15.9353 151.594 15.7451 151.68 15.5359C151.767 15.3266 151.812 15.1023 151.812 14.8758V14.0134C151.812 13.5559 151.63 13.1172 151.307 12.7938C150.983 12.4703 150.544 12.2886 150.087 12.2886Z" stroke="white" stroke-width="1.71" stroke-linecap="round" stroke-linejoin="round"></path><path d="M146.297 20.4126C146.101 20.4126 145.912 20.4907 145.773 20.6298C145.634 20.7689 145.556 20.9576 145.556 21.1543V23.2361H143.474C143.277 23.2361 143.089 23.3143 142.949 23.4534C142.81 23.5925 142.732 23.7811 142.732 23.9778V26.3839C142.732 26.7927 143.065 27.1256 143.474 27.1256H145.556V29.2075C145.556 29.6162 145.889 29.9491 146.297 29.9491H148.704C148.9 29.9491 149.089 29.871 149.228 29.7319C149.367 29.5928 149.445 29.4042 149.445 29.2075V27.1222H151.527C151.724 27.1222 151.912 27.044 152.052 26.9049C152.191 26.7658 152.269 26.5772 152.269 26.3805V23.9778C152.268 23.7814 152.19 23.5932 152.051 23.4545C151.912 23.3158 151.724 23.2379 151.527 23.2379H149.445V21.1525C149.445 20.9561 149.366 20.7679 149.227 20.6292C149.088 20.4905 148.9 20.4126 148.704 20.4126H146.297Z" fill="white"></path><path d="M146.297 20.4126C146.101 20.4126 145.912 20.4907 145.773 20.6298C145.634 20.7689 145.556 20.9576 145.556 21.1543V23.2361H143.474C143.277 23.2361 143.089 23.3143 142.949 23.4534C142.81 23.5925 142.732 23.7811 142.732 23.9778V26.3839C142.732 26.7927 143.065 27.1256 143.474 27.1256H145.556V29.2075C145.556 29.6162 145.889 29.9491 146.297 29.9491H148.704C148.9 29.9491 149.089 29.871 149.228 29.7319C149.367 29.5928 149.445 29.4042 149.445 29.2075V27.1239H151.527C151.724 27.1239 151.912 27.046 152.051 26.9073C152.19 26.7685 152.268 26.5803 152.269 26.3839V23.9778C152.269 23.7811 152.191 23.5925 152.052 23.4534C151.912 23.3143 151.724 23.2361 151.527 23.2361H149.445V21.1543C149.445 20.9579 149.366 20.7697 149.227 20.6309C149.088 20.4922 148.9 20.4143 148.704 20.4143H146.297V20.4126Z" stroke="white" stroke-width="1.71" stroke-linecap="round" stroke-linejoin="round"></path><rect x="187" y="1" width="45" height="45" rx="22.5" stroke="white" stroke-width="2"></rect><path d="M220.712 20.9297L217.33 15.0789L212.882 17.6492V12.5085H206.118V17.6492L201.671 15.0789L198.289 20.9297L202.736 23.5001L198.289 26.0704L201.671 31.9212L206.118 29.3508V34.4915H212.882V29.3508L217.33 31.9212L220.712 26.0704L216.264 23.5001L220.712 20.9297Z" fill="white" fill-opacity="0.3"></path><path d="M220.712 20.9297L217.33 15.0789L212.882 17.6492V12.5085H206.118V17.6492L201.671 15.0789L198.289 20.9297L202.736 23.5001L198.289 26.0704L201.671 31.9212L206.118 29.3508V34.4915H212.882V29.3508L217.33 31.9212L220.712 26.0704L216.264 23.5001L220.712 20.9297Z" stroke="white" stroke-width="1.71" stroke-linecap="round" stroke-linejoin="round"></path><rect x="249" y="1" width="45" height="45" rx="22.5" stroke="white" stroke-width="2"></rect><path d="M278.407 14.1227C275.634 12.7911 273.657 14.4306 271.5 14.4306C269.343 14.4306 267.35 12.822 264.641 14.1227C260.725 16.0026 260.725 19.9293 260.725 22.1627C260.725 26.7972 264.796 33.1866 266.954 33.3891C269.112 33.5914 269.292 30.7546 271.5 30.7546C273.709 30.7546 273.888 33.5914 276.047 33.3891C278.469 33.1617 282.275 26.7972 282.275 22.1627C282.275 19.9293 282.275 15.9799 278.407 14.1227Z" fill="white" fill-opacity="0.3"></path><path d="M278.407 14.1222C275.634 12.7906 273.657 14.4301 271.5 14.4301C269.343 14.4301 267.35 12.8215 264.641 14.1222C260.725 16.0021 260.725 19.9288 260.725 22.1622C260.725 26.7967 264.796 33.186 266.954 33.3885C269.112 33.591 269.292 30.754 271.5 30.754C273.709 30.754 273.888 33.591 276.047 33.3885C278.469 33.1613 282.275 26.7967 282.275 22.1622C282.275 19.9288 282.275 15.9794 278.407 14.1222Z" stroke="white" stroke-width="1.71" stroke-linecap="round" stroke-linejoin="round"></path><path d="M268.913 18.4282C270.939 19.2069 272.064 19.1864 274.087 18.4282" stroke="white" stroke-width="1.71" stroke-linecap="round" stroke-linejoin="round"></path><g clip-path="url(#clip0_218_470)"><path d="M83.6035 23.9158C81.545 23.9158 79.5707 24.7335 78.1151 26.1891C76.6595 27.6447 75.8418 29.6189 75.8418 31.6775V32.5399H91.3186C91.44 31.4545 91.3309 30.3557 90.9985 29.3153C90.6661 28.2749 90.1179 27.3164 89.3897 26.5024C88.6615 25.6885 87.7697 25.0373 86.7727 24.5916C85.7756 24.1459 84.6957 23.9156 83.6035 23.9158Z" fill="white" fill-opacity="0.3"></path><path d="M83.6031 20.4661C84.1693 20.4661 84.7301 20.3546 85.2532 20.1379C85.7764 19.9212 86.2517 19.6036 86.6522 19.2032C87.0526 18.8028 87.3702 18.3274 87.5869 17.8042C87.8036 17.2811 87.9151 16.7204 87.9151 16.1541C87.9151 15.5878 87.8036 15.0271 87.5869 14.5039C87.3702 13.9808 87.0526 13.5054 86.6522 13.105C86.2517 12.7046 85.7764 12.387 85.2532 12.1703C84.7301 11.9536 84.1693 11.842 83.6031 11.842C82.4594 11.842 81.3627 12.2963 80.554 13.105C79.7453 13.9137 79.291 15.0105 79.291 16.1541C79.291 17.2977 79.7453 18.3945 80.554 19.2032C81.3627 20.0118 82.4594 20.4661 83.6031 20.4661Z" fill="white" fill-opacity="0.3"></path><path d="M83.6031 20.4661C84.1693 20.4661 84.7301 20.3546 85.2532 20.1379C85.7764 19.9212 86.2517 19.6036 86.6522 19.2032C87.0526 18.8028 87.3702 18.3274 87.5869 17.8042C87.8036 17.2811 87.9151 16.7204 87.9151 16.1541C87.9151 15.5878 87.8036 15.0271 87.5869 14.5039C87.3702 13.9808 87.0526 13.5054 86.6522 13.105C86.2517 12.7046 85.7764 12.387 85.2532 12.1703C84.7301 11.9536 84.1693 11.842 83.6031 11.842C82.4594 11.842 81.3627 12.2963 80.554 13.105C79.7453 13.9137 79.291 15.0105 79.291 16.1541C79.291 17.2977 79.7453 18.3945 80.554 19.2032C81.3627 20.0118 82.4594 20.4661 83.6031 20.4661Z" stroke="white" stroke-width="1.71" stroke-linecap="round" stroke-linejoin="round"></path><path d="M84.4607 32.5398H75.8418V31.605C75.8533 30.502 76.0993 29.4141 76.5633 28.4134C77.0274 27.4128 77.6989 26.5223 78.5334 25.801C79.368 25.0797 80.3463 24.5441 81.4036 24.2298C82.4609 23.9154 83.573 23.8296 84.666 23.9778" stroke="white" stroke-width="1.71" stroke-linecap="round" stroke-linejoin="round"></path><path d="M91.2044 23.0535C90.9757 23.0535 90.7563 23.1443 90.5946 23.3061C90.4328 23.4678 90.342 23.6872 90.342 23.9159V26.3427H87.9151C87.6864 26.3427 87.4671 26.4336 87.3053 26.5953C87.1436 26.757 87.0527 26.9764 87.0527 27.2051V30.0062C87.0527 30.235 87.1436 30.4543 87.3053 30.6161C87.4671 30.7778 87.6864 30.8686 87.9151 30.8686H90.342V33.2955C90.342 33.5242 90.4328 33.7436 90.5946 33.9053C90.7563 34.067 90.9757 34.1579 91.2044 34.1579H94.0055C94.2342 34.1579 94.4536 34.067 94.6153 33.9053C94.777 33.7436 94.8679 33.5242 94.8679 33.2955V30.8704H97.2947C97.5235 30.8704 97.7428 30.7795 97.9045 30.6178C98.0663 30.456 98.1571 30.2367 98.1571 30.008V27.2051C98.1571 26.9764 98.0663 26.757 97.9045 26.5953C97.7428 26.4336 97.5235 26.3427 97.2947 26.3427H94.8696V23.9142C94.8696 23.6854 94.7788 23.4661 94.617 23.3044C94.4553 23.1426 94.2359 23.0518 94.0072 23.0518H91.2027L91.2044 23.0535Z" fill="white"></path><path d="M91.2044 23.0535C90.9757 23.0535 90.7563 23.1443 90.5946 23.3061C90.4328 23.4678 90.342 23.6872 90.342 23.9159V26.3427H87.9151C87.6864 26.3427 87.4671 26.4336 87.3053 26.5953C87.1436 26.757 87.0527 26.9764 87.0527 27.2051V30.0062C87.0527 30.235 87.1436 30.4543 87.3053 30.6161C87.4671 30.7778 87.6864 30.8686 87.9151 30.8686H90.342V33.2955C90.342 33.5242 90.4328 33.7436 90.5946 33.9053C90.7563 34.067 90.9757 34.1579 91.2044 34.1579H94.0055C94.2342 34.1579 94.4536 34.067 94.6153 33.9053C94.777 33.7436 94.8679 33.5242 94.8679 33.2955V30.8704H97.2947C97.5235 30.8704 97.7428 30.7795 97.9045 30.6178C98.0663 30.456 98.1571 30.2367 98.1571 30.008V27.2051C98.1571 26.9764 98.0663 26.757 97.9045 26.5953C97.7428 26.4336 97.5235 26.3427 97.2947 26.3427H94.8696V23.9142C94.8696 23.6854 94.7788 23.4661 94.617 23.3044C94.4553 23.1426 94.2359 23.0518 94.0072 23.0518H91.2027L91.2044 23.0535Z" stroke="white" stroke-width="1.71" stroke-linecap="round" stroke-linejoin="round"></path></g><defs><clipPath id="clip0_218_470"><rect width="26" height="26" fill="white" transform="translate(74 10)"></rect></clipPath></defs></svg>