<svg xmlns="http://www.w3.org/2000/svg" width="61" height="60" viewBox="0 0 61 60" fill="none"><path d="M35.9462 2.89551C33.8532 0.776353 30.2509 1.71759 29.4621 4.58988C29.096 5.92293 29.4688 7.35009 30.4403 8.33365C34.3801 12.326 37.3276 17.1875 39.046 22.5268C36.7961 20.3361 33.9137 18.9091 30.8073 18.4483C26.1641 17.6493 21.4008 18.8711 17.7153 21.8063C15.5208 23.7603 16.2151 27.3503 18.9796 28.3456C20.4134 28.8929 22.0304 28.6338 23.2213 27.6658C25.2185 26.3296 27.6855 25.8955 30.0189 26.4694C35.3876 27.6468 37.4686 34.1946 33.7646 38.2554C32.0455 40.1401 29.4516 40.9644 26.9599 40.418C23.6645 39.6691 21.1719 36.9658 20.6926 33.6205C20.6282 31.6958 19.2593 30.0633 17.3754 29.6642C15.046 28.978 12.696 30.6767 12.6172 33.1038C12.6172 42.7699 20.5974 54.217 33.0097 52.4768C43.3692 51.0085 46.8768 48.0584 48.277 34.98C49.1063 25.2186 45.0414 12.2489 35.9462 2.89551Z" fill="#FFCEBF"></path><path d="M30.8897 7.50428C32.4191 6.17012 34.7219 6.25341 36.1509 7.69472C42.892 14.6953 47.1847 23.6909 48.3865 33.335C48.6585 23.8184 44.5526 11.7324 35.9606 2.89555C33.9356 0.713532 30.3077 1.54195 29.4306 4.38681C29.0235 5.70707 29.3516 7.1442 30.2915 8.15691C30.4653 7.91726 30.6659 7.69829 30.8897 7.50428Z" fill="#FFDCD1"></path><path opacity="0.15" d="M16.0166 56.8951C16.006 58.465 29.0279 59.4477 39.4561 58.6639C44.3045 58.2995 47.2902 57.625 47.2853 56.8951C47.296 55.3254 34.274 54.3427 23.8458 55.1265C18.9975 55.4908 16.0117 56.1654 16.0166 56.8951Z" fill="#45413C"></path><path d="M30.8352 18.4349C33.9125 18.912 36.7642 20.3378 38.9922 22.5134C37.4866 17.8355 35.0338 13.5179 31.7868 9.82921C30.5597 8.42284 28.3514 8.49505 27.2189 9.97868C26.3805 11.0942 26.4431 12.6457 27.3684 13.6902C28.6723 15.1579 29.8332 16.7467 30.8352 18.4349Z" fill="#FFCEBF"></path><path d="M26.9873 10.4271C28.073 10.1583 29.2178 10.5206 29.951 11.3652C32.2297 13.9516 34.1209 16.855 35.5658 19.9845C36.8399 20.6582 38.0118 21.5096 39.0462 22.5132C37.5405 17.8353 35.0877 13.5177 31.8407 9.82902C30.6136 8.42252 28.4052 8.49486 27.2728 9.97849C27.168 10.1217 27.0726 10.2715 26.9873 10.4271Z" fill="#FFB59E"></path><path d="M30.8352 18.4349C33.9125 18.912 36.7642 20.3378 38.9922 22.5134C37.4866 17.8355 35.0338 13.5179 31.7868 9.82921C30.5597 8.42284 28.3514 8.49505 27.2189 9.97868C26.3805 11.0942 26.4431 12.6457 27.3684 13.6902C28.6723 15.1579 29.8332 16.7467 30.8352 18.4349Z" stroke="#45413C" stroke-width="0.38" stroke-linecap="round" stroke-linejoin="round"></path><path d="M30.8078 23.2745C33.9755 23.7368 40.7051 26.4965 42.9211 28.6446C41.1138 23.2415 36.4389 19.3013 30.8078 18.4347C26.1647 17.6357 21.4013 18.8574 17.7158 21.7927C16.1973 23.1591 15.9897 25.4656 17.24 27.0811C20.4077 23.8862 25.7913 22.5404 30.8078 23.2745Z" fill="#FFDCD1"></path><path d="M39.0459 22.5132C42.0096 25.3571 43.6923 29.2818 43.709 33.3892" stroke="#45413C" stroke-width="0.38" stroke-linecap="round" stroke-linejoin="round"></path><path d="M35.9462 2.89551C33.8532 0.776353 30.2509 1.71759 29.4621 4.58988C29.096 5.92293 29.4688 7.35009 30.4403 8.33365C34.3801 12.326 37.3276 17.1875 39.046 22.5268C36.7961 20.3361 33.9137 18.9091 30.8073 18.4483C26.1641 17.6493 21.4008 18.8711 17.7153 21.8063C15.5208 23.7603 16.2151 27.3503 18.9796 28.3456C20.4134 28.8929 22.0304 28.6338 23.2213 27.6658C25.2185 26.3296 27.6855 25.8955 30.0189 26.4694C35.3876 27.6468 37.4686 34.1946 33.7646 38.2554C32.0455 40.1401 29.4516 40.9644 26.9599 40.418C23.6645 39.6691 21.1719 36.9658 20.6926 33.6205C20.6282 31.6958 19.2593 30.0633 17.3754 29.6642C15.046 28.978 12.696 30.6767 12.6172 33.1038C12.6172 42.7699 20.5974 54.217 33.0097 52.4768C43.3692 51.0085 46.8768 48.0584 48.277 34.98C49.1063 25.2186 45.0414 12.2489 35.9462 2.89551Z" stroke="#45413C" stroke-width="0.38" stroke-linecap="round" stroke-linejoin="round"></path></svg>