<svg xmlns="http://www.w3.org/2000/svg" width="113" height="114" viewBox="0 0 113 114" fill="none"><path d="M45.9069 75.7306H67.0944C68.0949 75.7306 68.9337 75.392 69.611 74.7147C70.2874 74.0384 70.6257 73.1998 70.6257 72.1993V55.7201C70.6257 54.7196 70.2874 53.8808 69.611 53.2035C68.9337 52.5272 68.0949 52.1889 67.0944 52.1889H65.9173V47.4806C65.9173 44.891 64.9952 42.674 63.1512 40.83C61.3072 38.986 59.0902 38.0639 56.5007 38.0639C53.9111 38.0639 51.6941 38.986 49.8501 40.83C48.0061 42.674 47.084 44.891 47.084 47.4806V52.1889H45.9069C44.9064 52.1889 44.0678 52.5272 43.3915 53.2035C42.7142 53.8808 42.3757 54.7196 42.3757 55.7201V72.1993C42.3757 73.1998 42.7142 74.0384 43.3915 74.7147C44.0678 75.392 44.9064 75.7306 45.9069 75.7306ZM50.6152 52.1889V47.4806C50.6152 45.911 51.2038 44.5967 52.3809 43.5373C53.5579 42.4779 54.9311 41.9483 56.5007 41.9483C58.0702 41.9483 59.4434 42.4784 60.6204 43.5385C61.7975 44.5995 62.3861 45.9134 62.3861 47.4806V52.1889H50.6152ZM56.5007 103.51C56.0833 103.51 55.6955 103.47 55.3377 103.392C54.9799 103.314 54.622 103.196 54.2642 103.039C43.3566 99.3506 34.7246 92.7394 28.3684 83.205C22.0121 73.6707 18.834 63.2099 18.834 51.8228V28.7649C18.834 27.2536 19.2609 25.8936 20.1147 24.6852C20.9676 23.4759 22.071 22.5993 23.4246 22.0555L54.0288 10.6378C54.8921 10.3239 55.716 10.167 56.5007 10.167C57.2853 10.167 58.1093 10.3239 58.9725 10.6378L89.5767 22.0555C90.9303 22.5993 92.034 23.4759 92.8878 24.6852C93.7407 25.8936 94.1673 27.2536 94.1673 28.7649V51.8228C94.1673 63.2099 90.9892 73.6707 84.6329 83.205C78.2767 92.7394 69.6447 99.3506 58.7371 103.039C58.3793 103.196 58.0214 103.314 57.6636 103.392C57.3058 103.47 56.918 103.51 56.5007 103.51ZM56.5007 96.5649C65.5249 93.5829 72.8817 87.9527 78.571 79.6738C84.2603 71.3949 87.1048 62.1157 87.1048 51.8358V28.7649L56.5007 17.2295L25.8965 28.7649V51.8358C25.8965 62.1157 28.741 71.3949 34.4303 79.6738C40.1197 87.9527 47.4764 93.5829 56.5007 96.5649Z" fill="white"></path></svg>