<svg xmlns="http://www.w3.org/2000/svg" width="149" height="24" viewBox="0 0 149 24" fill="none"><g clip-path="url(#clip0_178_539)"><path fill-rule="evenodd" clip-rule="evenodd" d="M44.0001 0.474854C43.6623 0.475003 43.3315 0.571117 43.0462 0.752002C42.761 0.932887 42.5329 1.1911 42.3887 1.49657L39.6664 6.99085C39.6592 7.00381 39.6524 7.01696 39.6459 7.03028C39.6327 7.03225 39.6195 7.03454 39.6064 7.03714L33.6116 7.92514C33.2716 7.95814 32.9482 8.08812 32.68 8.29961C32.4118 8.51109 32.2099 8.79518 32.0985 9.11808C31.9871 9.44098 31.9708 9.78909 32.0515 10.121C32.1322 10.4529 32.3066 10.7546 32.5539 10.9903L36.9424 15.2229L36.9527 15.2314C36.9589 15.2373 36.9636 15.2445 36.9663 15.2526C36.969 15.2607 36.9696 15.2693 36.9681 15.2777V15.2846L35.9224 21.4011V21.4029C35.865 21.7345 35.9017 22.0756 36.0284 22.3874C36.1551 22.6992 36.3667 22.9692 36.6391 23.1668C36.9115 23.3645 37.2339 23.4818 37.5696 23.5054C37.9054 23.529 38.241 23.4581 38.5384 23.3006L43.9384 20.4463C43.9579 20.4378 43.9789 20.4334 44.0001 20.4334C44.0214 20.4334 44.0424 20.4378 44.0619 20.4463L49.4618 23.2989C49.7591 23.4574 50.095 23.5292 50.4311 23.5062C50.7672 23.4831 51.0901 23.3661 51.3629 23.1685C51.6358 22.9709 51.8476 22.7006 51.9743 22.3884C52.101 22.0762 52.1375 21.7347 52.0796 21.4029L51.0338 15.2829V15.2777C51.0304 15.2709 51.0321 15.2606 51.0338 15.2537C51.0364 15.2452 51.0411 15.2375 51.0476 15.2314L51.0578 15.2229L55.4447 10.9886C55.6914 10.7528 55.8653 10.4512 55.9458 10.1196C56.0262 9.78795 56.0097 9.4402 55.8983 9.11763C55.787 8.79507 55.5853 8.51124 55.3174 8.29986C55.0496 8.08848 54.7266 7.95842 54.387 7.92514L48.3939 7.03714C48.3808 7.03454 48.3676 7.03225 48.3544 7.03028C48.3479 7.01696 48.341 7.00381 48.3338 6.99085L45.6116 1.49657C45.4673 1.1911 45.2393 0.932887 44.954 0.752002C44.6687 0.571117 44.3379 0.475003 44.0001 0.474854Z" fill="#F4BF4F"></path></g><g clip-path="url(#clip1_178_539)"><path fill-rule="evenodd" clip-rule="evenodd" d="M75.0001 0.474854C74.6623 0.475003 74.3315 0.571117 74.0462 0.752002C73.761 0.932887 73.5329 1.1911 73.3887 1.49657L70.6664 6.99085C70.6592 7.00381 70.6524 7.01696 70.6459 7.03028C70.6327 7.03225 70.6195 7.03454 70.6064 7.03714L64.6116 7.92514C64.2716 7.95814 63.9482 8.08812 63.68 8.29961C63.4118 8.51109 63.2099 8.79518 63.0985 9.11808C62.9871 9.44098 62.9708 9.78909 63.0515 10.121C63.1322 10.4529 63.3066 10.7546 63.5539 10.9903L67.9424 15.2229L67.9527 15.2314C67.9589 15.2373 67.9636 15.2445 67.9663 15.2526C67.969 15.2607 67.9696 15.2693 67.9681 15.2777V15.2846L66.9224 21.4011V21.4029C66.865 21.7345 66.9017 22.0756 67.0284 22.3874C67.1551 22.6992 67.3667 22.9692 67.6391 23.1668C67.9115 23.3645 68.2339 23.4818 68.5696 23.5054C68.9054 23.529 69.241 23.4581 69.5384 23.3006L74.9384 20.4463C74.9579 20.4378 74.9789 20.4334 75.0001 20.4334C75.0214 20.4334 75.0424 20.4378 75.0619 20.4463L80.4618 23.2989C80.7591 23.4574 81.095 23.5292 81.4311 23.5062C81.7672 23.4831 82.0901 23.3661 82.3629 23.1685C82.6358 22.9709 82.8476 22.7006 82.9743 22.3884C83.101 22.0762 83.1375 21.7347 83.0796 21.4029L82.0338 15.2829V15.2777C82.0304 15.2709 82.0321 15.2606 82.0338 15.2537C82.0364 15.2452 82.0411 15.2375 82.0476 15.2314L82.0578 15.2229L86.4447 10.9886C86.6914 10.7528 86.8653 10.4512 86.9458 10.1196C87.0262 9.78795 87.0097 9.4402 86.8983 9.11763C86.787 8.79507 86.5853 8.51124 86.3174 8.29986C86.0496 8.08848 85.7266 7.95842 85.387 7.92514L79.3939 7.03714C79.3808 7.03454 79.3676 7.03225 79.3544 7.03028C79.3479 7.01696 79.341 7.00381 79.3338 6.99085L76.6116 1.49657C76.4673 1.1911 76.2393 0.932887 75.954 0.752002C75.6687 0.571117 75.3379 0.475003 75.0001 0.474854Z" fill="#F4BF4F"></path></g><g clip-path="url(#clip2_178_539)"><path fill-rule="evenodd" clip-rule="evenodd" d="M106 0.474854C105.662 0.475003 105.332 0.571117 105.046 0.752002C104.761 0.932887 104.533 1.1911 104.389 1.49657L101.666 6.99085C101.659 7.00381 101.652 7.01696 101.646 7.03028C101.633 7.03225 101.62 7.03454 101.606 7.03714L95.6116 7.92514C95.2716 7.95814 94.9482 8.08812 94.68 8.29961C94.4118 8.51109 94.2099 8.79518 94.0985 9.11808C93.9871 9.44098 93.9708 9.78909 94.0515 10.121C94.1322 10.4529 94.3066 10.7546 94.5539 10.9903L98.9424 15.2229L98.9527 15.2314C98.9589 15.2373 98.9636 15.2445 98.9663 15.2526C98.969 15.2607 98.9696 15.2693 98.9681 15.2777V15.2846L97.9224 21.4011V21.4029C97.865 21.7345 97.9017 22.0756 98.0284 22.3874C98.1551 22.6992 98.3667 22.9692 98.6391 23.1668C98.9115 23.3645 99.2339 23.4818 99.5696 23.5054C99.9054 23.529 100.241 23.4581 100.538 23.3006L105.938 20.4463C105.958 20.4378 105.979 20.4334 106 20.4334C106.021 20.4334 106.042 20.4378 106.062 20.4463L111.462 23.2989C111.759 23.4574 112.095 23.5292 112.431 23.5062C112.767 23.4831 113.09 23.3661 113.363 23.1685C113.636 22.9709 113.848 22.7006 113.974 22.3884C114.101 22.0762 114.138 21.7347 114.08 21.4029L113.034 15.2829V15.2777C113.03 15.2709 113.032 15.2606 113.034 15.2537C113.036 15.2452 113.041 15.2375 113.048 15.2314L113.058 15.2229L117.445 10.9886C117.691 10.7528 117.865 10.4512 117.946 10.1196C118.026 9.78795 118.01 9.4402 117.898 9.11763C117.787 8.79507 117.585 8.51124 117.317 8.29986C117.05 8.08848 116.727 7.95842 116.387 7.92514L110.394 7.03714C110.381 7.03454 110.368 7.03225 110.354 7.03028C110.348 7.01696 110.341 7.00381 110.334 6.99085L107.612 1.49657C107.467 1.1911 107.239 0.932887 106.954 0.752002C106.669 0.571117 106.338 0.475003 106 0.474854Z" fill="#F4BF4F"></path></g><g clip-path="url(#clip3_178_539)"><path fill-rule="evenodd" clip-rule="evenodd" d="M137 0.474854C136.662 0.475003 136.332 0.571117 136.046 0.752002C135.761 0.932887 135.533 1.1911 135.389 1.49657L132.666 6.99085C132.659 7.00381 132.652 7.01696 132.646 7.03028C132.633 7.03225 132.62 7.03454 132.606 7.03714L126.612 7.92514C126.272 7.95814 125.948 8.08812 125.68 8.29961C125.412 8.51109 125.21 8.79518 125.098 9.11808C124.987 9.44098 124.971 9.78909 125.051 10.121C125.132 10.4529 125.307 10.7546 125.554 10.9903L129.942 15.2229L129.953 15.2314C129.959 15.2373 129.964 15.2445 129.966 15.2526C129.969 15.2607 129.97 15.2693 129.968 15.2777V15.2846L128.922 21.4011V21.4029C128.865 21.7345 128.902 22.0756 129.028 22.3874C129.155 22.6992 129.367 22.9692 129.639 23.1668C129.912 23.3645 130.234 23.4818 130.57 23.5054C130.905 23.529 131.241 23.4581 131.538 23.3006L136.938 20.4463C136.958 20.4378 136.979 20.4334 137 20.4334C137.021 20.4334 137.042 20.4378 137.062 20.4463L142.462 23.2989C142.759 23.4574 143.095 23.5292 143.431 23.5062C143.767 23.4831 144.09 23.3661 144.363 23.1685C144.636 22.9709 144.848 22.7006 144.974 22.3884C145.101 22.0762 145.138 21.7347 145.08 21.4029L144.034 15.2829V15.2777C144.03 15.2709 144.032 15.2606 144.034 15.2537C144.036 15.2452 144.041 15.2375 144.048 15.2314L144.058 15.2229L148.445 10.9886C148.691 10.7528 148.865 10.4512 148.946 10.1196C149.026 9.78795 149.01 9.4402 148.898 9.11763C148.787 8.79507 148.585 8.51124 148.317 8.29986C148.05 8.08848 147.727 7.95842 147.387 7.92514L141.394 7.03714C141.381 7.03454 141.368 7.03225 141.354 7.03028C141.348 7.01696 141.341 7.00381 141.334 6.99085L138.612 1.49657C138.467 1.1911 138.239 0.932887 137.954 0.752002C137.669 0.571117 137.338 0.475003 137 0.474854Z" fill="#F4BF4F"></path></g><g clip-path="url(#clip4_178_539)"><path fill-rule="evenodd" clip-rule="evenodd" d="M12.0001 0.474854C11.6623 0.475003 11.3315 0.571117 11.0462 0.752002C10.761 0.932887 10.5329 1.1911 10.3887 1.49657L7.66642 6.99085C7.65922 7.00381 7.65236 7.01696 7.64585 7.03028C7.63265 7.03225 7.61951 7.03454 7.60642 7.03714L1.61156 7.92514C1.27158 7.95814 0.948237 8.08812 0.679999 8.29961C0.411762 8.51109 0.209924 8.79518 0.0984992 9.11808C-0.0129254 9.44098 -0.0292461 9.78909 0.051479 10.121C0.132204 10.4529 0.306577 10.7546 0.553851 10.9903L4.94242 15.2229L4.95271 15.2314C4.95891 15.2373 4.96357 15.2445 4.96626 15.2526C4.96895 15.2607 4.9696 15.2693 4.96814 15.2777V15.2846L3.92242 21.4011V21.4029C3.86502 21.7345 3.90175 22.0756 4.02843 22.3874C4.15511 22.6992 4.36668 22.9692 4.6391 23.1668C4.91153 23.3645 5.23391 23.4818 5.56963 23.5054C5.90536 23.529 6.24099 23.4581 6.53842 23.3006L11.9384 20.4463C11.9579 20.4378 11.9789 20.4334 12.0001 20.4334C12.0214 20.4334 12.0424 20.4378 12.0619 20.4463L17.4618 23.2989C17.7591 23.4574 18.095 23.5292 18.4311 23.5062C18.7672 23.4831 19.0901 23.3661 19.3629 23.1685C19.6358 22.9709 19.8476 22.7006 19.9743 22.3884C20.101 22.0762 20.1375 21.7347 20.0796 21.4029L19.0338 15.2829V15.2777C19.0304 15.2709 19.0321 15.2606 19.0338 15.2537C19.0364 15.2452 19.0411 15.2375 19.0476 15.2314L19.0578 15.2229L23.4447 10.9886C23.6914 10.7528 23.8653 10.4512 23.9458 10.1196C24.0262 9.78795 24.0097 9.4402 23.8983 9.11763C23.787 8.79507 23.5853 8.51124 23.3174 8.29986C23.0496 8.08848 22.7266 7.95842 22.387 7.92514L16.3939 7.03714C16.3808 7.03454 16.3676 7.03225 16.3544 7.03028C16.3479 7.01696 16.341 7.00381 16.3338 6.99085L13.6116 1.49657C13.4673 1.1911 13.2393 0.932887 12.954 0.752002C12.6687 0.571117 12.3379 0.475003 12.0001 0.474854Z" fill="#F4BF4F"></path></g><defs><clipPath id="clip0_178_539"><rect width="24" height="24" fill="white" transform="translate(32)"></rect></clipPath><clipPath id="clip1_178_539"><rect width="24" height="24" fill="white" transform="translate(63)"></rect></clipPath><clipPath id="clip2_178_539"><rect width="24" height="24" fill="white" transform="translate(94)"></rect></clipPath><clipPath id="clip3_178_539"><rect width="24" height="24" fill="white" transform="translate(125)"></rect></clipPath><clipPath id="clip4_178_539"><rect width="24" height="24" fill="white"></rect></clipPath></defs></svg>