<svg xmlns="http://www.w3.org/2000/svg" width="91" height="92" viewBox="0 0 91 92" fill="none"><circle cx="46" cy="45.3955" r="25" fill="#086879"></circle><path d="M45.5 64.183C40.4309 64.183 36.1156 62.4024 32.5544 58.8411C28.9931 55.2799 27.2125 50.9646 27.2125 45.8955C27.2125 40.8264 28.9931 36.5111 32.5544 32.9499C36.1156 29.3886 40.4309 27.608 45.5 27.608C50.5691 27.608 54.8844 29.3886 58.4456 32.9499C62.0069 36.5111 63.7875 40.8264 63.7875 45.8955C63.7875 50.9646 62.0069 55.2799 58.4456 58.8411C54.8844 62.4024 50.5691 64.183 45.5 64.183ZM78.225 45.8955C78.225 42.8155 77.8078 39.8477 76.9737 36.9924C76.1396 34.137 74.9846 31.4902 73.5088 29.0518C73.0596 28.3459 72.8831 27.592 72.9794 26.7899C73.0756 25.9877 73.4766 25.3302 74.1825 24.8168C74.8884 24.3034 75.6262 24.127 76.3962 24.2874C77.1662 24.4477 77.7759 24.8809 78.225 25.5868C80.0859 28.5384 81.5135 31.7308 82.5081 35.1636C83.5028 38.5965 84 42.1739 84 45.8955C84 49.6171 83.5028 53.1945 82.5081 56.6274C81.5135 60.0602 80.0859 63.2527 78.225 66.2043C77.7759 66.9102 77.1503 67.3593 76.3481 67.5518C75.546 67.7443 74.7921 67.5839 74.0862 67.0705C73.3803 66.5571 72.9953 65.8995 72.9312 65.0974C72.8671 64.2952 73.0596 63.5414 73.5088 62.8355C74.9846 60.3971 76.1396 57.7343 76.9737 54.8468C77.8078 51.9593 78.225 48.9755 78.225 45.8955ZM45.5 13.1705C42.42 13.1705 39.4362 13.5876 36.5487 14.4218C33.6613 15.2559 30.9984 16.4109 28.56 17.8868C27.8541 18.3359 27.1003 18.5284 26.2981 18.4643C25.496 18.4001 24.8384 18.0151 24.325 17.3093C23.8116 16.6034 23.6512 15.8495 23.8437 15.0474C24.0362 14.2453 24.4854 13.6197 25.1912 13.1705C28.1429 11.3097 31.3353 9.88197 34.7681 8.88738C38.201 7.89279 41.7784 7.39551 45.5 7.39551C49.2859 7.39551 52.8953 7.89279 56.3281 8.88738C59.761 9.88197 62.9534 11.3097 65.905 13.1705C66.6109 13.6197 67.06 14.2453 67.2525 15.0474C67.445 15.8495 67.2846 16.6034 66.7712 17.3093C66.2578 18.0151 65.5841 18.4001 64.75 18.4643C63.9159 18.5284 63.1459 18.3359 62.44 17.8868C60.0016 16.4109 57.3547 15.2559 54.4994 14.4218C51.644 13.5876 48.6441 13.1705 45.5 13.1705ZM12.775 45.8955C12.775 48.9755 13.1921 51.9593 14.0262 54.8468C14.8604 57.7343 16.0154 60.3971 17.4912 62.8355C17.9404 63.5414 18.1329 64.2952 18.0687 65.0974C18.0046 65.8995 17.6196 66.5571 16.9137 67.0705C16.2079 67.5839 15.454 67.7443 14.6519 67.5518C13.8498 67.3593 13.2242 66.9102 12.775 66.2043C10.9142 63.2527 9.48646 60.0602 8.49188 56.6274C7.49729 53.1945 7 49.6171 7 45.8955C7 42.1739 7.49729 38.6127 8.49188 35.2118C9.48646 31.8109 10.9142 28.6346 12.775 25.683C13.2242 24.9771 13.8337 24.528 14.6037 24.3355C15.3737 24.143 16.1117 24.3034 16.8175 24.8168C17.5233 25.3302 17.9244 25.9877 18.0206 26.7899C18.1169 27.592 17.9404 28.3459 17.4912 29.0518C16.0154 31.4902 14.8604 34.137 14.0262 36.9924C13.1921 39.8477 12.775 42.8155 12.775 45.8955ZM45.5 78.6205C48.58 78.6205 51.5478 78.2034 54.4031 77.3692C57.2585 76.5351 59.9053 75.3801 62.3437 73.9043C63.0496 73.4552 63.8035 73.2786 64.6056 73.3749C65.4078 73.4711 66.0653 73.8721 66.5787 74.578C67.0921 75.2839 67.2525 76.0218 67.06 76.7918C66.8675 77.5618 66.4184 78.1714 65.7125 78.6205C62.7609 80.4814 59.5846 81.909 56.1837 82.9036C52.7828 83.8983 49.2216 84.3955 45.5 84.3955C41.7784 84.3955 38.2171 83.8983 34.8162 82.9036C31.4154 81.909 28.2391 80.4814 25.2875 78.6205C24.5816 78.1714 24.1325 77.5618 23.94 76.7918C23.7475 76.0218 23.9079 75.2839 24.4212 74.578C24.9346 73.8721 25.5922 73.4711 26.3944 73.3749C27.1965 73.2786 27.9504 73.4552 28.6562 73.9043C31.0946 75.3801 33.7415 76.5351 36.5969 77.3692C39.4522 78.2034 42.42 78.6205 45.5 78.6205Z" fill="#086879"></path><path d="M38.4963 53.5935C36.7216 53.5935 35.2916 52.9042 34.2063 51.5255C33.1356 50.1468 32.6003 48.2548 32.6003 45.8495C32.6003 43.5175 33.1283 41.6475 34.1843 40.2395C35.2549 38.8168 36.6923 38.1055 38.4963 38.1055C40.2709 38.1055 41.6936 38.7948 42.7643 40.1735C43.8496 41.5375 44.3923 43.4295 44.3923 45.8495C44.3923 48.1815 43.8643 50.0588 42.8083 51.4815C41.7523 52.8895 40.3149 53.5935 38.4963 53.5935ZM38.4963 50.7995C39.3909 50.7995 40.0876 50.3742 40.5863 49.5235C41.0849 48.6582 41.3343 47.4335 41.3343 45.8495C41.3343 44.2948 41.0849 43.0775 40.5863 42.1975C40.0876 41.3175 39.3909 40.8775 38.4963 40.8775C37.6163 40.8775 36.9196 41.3102 36.4063 42.1755C35.9076 43.0408 35.6583 44.2655 35.6583 45.8495C35.6583 47.3748 35.9076 48.5848 36.4063 49.4795C36.9196 50.3595 37.6163 50.7995 38.4963 50.7995ZM54.3399 53.5935C53.0346 53.5935 51.8979 53.2855 50.9299 52.6695C49.9766 52.0388 49.3092 51.2322 48.9279 50.2495L51.5019 49.1715C51.9419 50.3155 52.8146 50.8875 54.1199 50.8875C54.7506 50.8875 55.2786 50.7042 55.7039 50.3375C56.1439 49.9708 56.3639 49.4868 56.3639 48.8855C56.3639 48.2988 56.1439 47.8148 55.7039 47.4335C55.2639 47.0375 54.6479 46.8395 53.8559 46.8395H52.7999V44.4195H54.1199C54.7506 44.4195 55.2272 44.2508 55.5499 43.9135C55.8872 43.5762 56.0559 43.1508 56.0559 42.6375C56.0559 42.1095 55.8652 41.6768 55.4839 41.3395C55.1026 40.9875 54.6332 40.8115 54.0759 40.8115C53.0932 40.8115 52.3599 41.2368 51.8759 42.0875L49.4779 40.7895C49.8446 39.9828 50.4386 39.3375 51.2599 38.8535C52.0959 38.3548 53.0566 38.1055 54.1419 38.1055C55.5352 38.1055 56.6939 38.4722 57.6179 39.2055C58.5419 39.9242 59.0039 40.9068 59.0039 42.1535C59.0039 43.6495 58.3512 44.7788 57.0459 45.5415V45.6075C58.6446 46.3408 59.4439 47.5655 59.4439 49.2815C59.4439 50.5722 58.9599 51.6135 57.9919 52.4055C57.0386 53.1975 55.8212 53.5935 54.3399 53.5935Z" fill="white"></path></svg>