<svg xmlns="http://www.w3.org/2000/svg" width="1821" height="165" viewBox="0 0 1821 165" fill="none"><path d="M1821 800.854V50.3965C1821 22.7822 1798.61 0.396484 1771 0.396484H1736.5C1708.89 0.396484 1686.5 22.7822 1686.5 50.3965V82.8965C1686.5 110.511 1664.11 132.896 1636.5 132.896H182C154.386 132.896 132 110.511 132 82.8965V50.3965C132 22.7822 109.614 0.396484 82 0.396484H50C22.3858 0.396484 0 22.7822 0 50.3965V1081.4C0 1109.01 22.3858 1131.4 50 1131.4H270.5C298.114 1131.4 320.5 1109.01 320.5 1081.4V900.854C320.5 873.239 342.886 850.854 370.5 850.854H1771C1798.61 850.854 1821 828.468 1821 800.854Z" fill="#5E02DF"></path></svg>