<svg xmlns="http://www.w3.org/2000/svg" width="61" height="60" viewBox="0 0 61 60" fill="none"><path opacity="0.15" d="M13.5303 56.7943C13.5303 58.4419 26.6096 59.4716 37.0731 58.6478C41.9293 58.2655 44.9208 57.559 44.9208 56.7943C44.9208 55.1468 31.8414 54.117 21.3779 54.9408C16.5218 55.3232 13.5303 56.0297 13.5303 56.7943Z" fill="#45413C"></path><path d="M43.679 1.86096C41.7289 1.58995 39.928 2.95019 39.6553 4.90007L36.8016 24.405L33.948 4.95715C33.6486 2.22756 30.5067 0.84567 28.2924 2.46979C27.2044 3.26783 26.6599 4.61134 26.8852 5.94169L28.954 20.6952C26.7587 18.7841 23.3177 19.9661 22.7603 22.8228C22.7135 23.0621 22.6902 23.3052 22.6903 23.5489V26.9733C22.5113 24.0571 19.2425 22.4282 16.8064 24.0414C15.8134 24.6989 15.1866 25.7846 15.1137 26.9733V37.2608C15.01 44.8746 20.798 51.2787 28.3833 51.943C36.7428 52.4981 43.7794 45.7651 43.5934 37.3893C43.5934 25.2183 43.5934 29.2848 46.7182 5.91314C47.0065 3.95281 45.6418 2.13308 43.679 1.86096Z" fill="#FFCEBF"></path><path d="M27.4138 9.53736C27.6957 6.69546 30.9483 5.22462 33.2685 6.88971C33.7822 7.2584 34.1932 7.75233 34.4624 8.3245L33.9773 4.98571C33.6779 2.25613 30.5359 0.874234 28.3217 2.49836C27.2337 3.29639 26.6892 4.6399 26.9144 5.97025L27.4138 9.53736Z" fill="#FFDCD1"></path><path d="M43.6788 1.86105C41.7287 1.59004 39.9278 2.95028 39.6551 4.90016L39.2129 7.95366C40.3514 5.32261 43.9112 4.91086 45.6203 7.21234C46.0488 7.7893 46.3012 8.47785 46.347 9.19494C46.4897 8.16771 46.6324 7.08329 46.7894 5.91324C47.0761 3.92829 45.6705 2.09713 43.6788 1.86105Z" fill="#FFDCD1"></path><path d="M33.9622 37.3892C30.4633 37.3892 27.627 40.2255 27.627 43.7244V45.5934" stroke="#45413C" stroke-width="0.38" stroke-linecap="round" stroke-linejoin="round"></path><path d="M43.679 1.86096C41.7289 1.58995 39.928 2.95019 39.6553 4.90007L36.8016 24.405L33.948 4.95715C33.6486 2.22756 30.5067 0.84567 28.2924 2.46979C27.2044 3.26783 26.6599 4.61134 26.8852 5.94169L28.954 20.6952C26.7587 18.7841 23.3177 19.9661 22.7603 22.8228C22.7135 23.0621 22.6902 23.3052 22.6903 23.5489V26.9733C22.5113 24.0571 19.2425 22.4282 16.8064 24.0414C15.8134 24.6989 15.1866 25.7846 15.1137 26.9733V37.2608C15.01 44.8746 20.798 51.2787 28.3833 51.943C36.7428 52.4981 43.7794 45.7651 43.5934 37.3893C43.5934 25.2183 43.5934 29.2848 46.7182 5.91314C47.0065 3.95281 45.6418 2.13308 43.679 1.86096Z" stroke="#45413C" stroke-width="0.38" stroke-linecap="round" stroke-linejoin="round"></path><path d="M15.1426 23.2349H22.7335V35.4486H15.1426V23.2349Z" fill="#FFCEBF"></path><path d="M22.7188 19.7964H30.3095V35.4345H22.7188V19.7964Z" fill="#FFCEBF"></path><path d="M18.938 23.2634C16.8474 23.2633 15.1505 24.954 15.1426 27.0446V30.3977C15.1505 28.307 16.8474 26.6164 18.938 26.6165C21.0263 26.6164 22.7192 28.3094 22.7192 30.3977V26.9732C22.6803 24.9129 20.9987 23.2631 18.938 23.2634Z" fill="#FFDCD1"></path><path d="M26.5141 19.7964C24.4212 19.8043 22.7265 21.4989 22.7188 23.5918V27.0162C22.7421 24.9368 24.4345 23.2635 26.5141 23.2636C28.6047 23.2635 30.3016 24.9542 30.3095 27.0448V23.6204C30.3174 21.5163 28.6181 19.8043 26.5141 19.7964Z" fill="#FFDCD1"></path><path d="M15.1426 23.2349H22.7335V35.4486H15.1426V23.2349Z" stroke="#45413C" stroke-width="0.38" stroke-linecap="round" stroke-linejoin="round"></path><path d="M22.7188 19.7964H30.3095V35.4345H22.7188V19.7964Z" stroke="#45413C" stroke-width="0.38" stroke-linecap="round" stroke-linejoin="round"></path><path d="M43.5941 37.3892C43.5862 33.3026 40.2753 29.9918 36.1887 29.9839H24.6598C23.5746 29.9839 22.6971 30.8678 22.7051 31.953C22.7051 34.9553 25.139 37.3892 28.1413 37.3892H33.9629" fill="#FFCEBF"></path><path d="M43.5941 37.3892C43.5862 33.3026 40.2753 29.9918 36.1887 29.9839H24.6598C23.5746 29.9839 22.6971 30.8678 22.7051 31.953C22.7085 32.5866 22.8245 33.2147 23.0475 33.8079C23.4137 33.2791 24.0167 32.9643 24.6598 32.966H36.8165C39.7507 32.9737 42.4057 34.7065 43.5941 37.3892Z" fill="#FFDCD1"></path><path d="M43.5941 37.3892C43.5862 33.3026 40.2753 29.9918 36.1887 29.9839H24.6598C23.5746 29.9839 22.6971 30.8678 22.7051 31.953C22.7051 34.9553 25.139 37.3892 28.1413 37.3892H33.9629" stroke="#45413C" stroke-width="0.38" stroke-linecap="round" stroke-linejoin="round"></path></svg>