<svg xmlns="http://www.w3.org/2000/svg" width="61" height="60" viewBox="0 0 61 60" fill="none"><path opacity="0.15" d="M17.7402 56.8384C17.7402 58.452 32.2972 59.4606 43.9427 58.6537C49.3475 58.2792 52.6769 57.5872 52.6769 56.8384C52.6769 55.2247 38.12 54.2162 26.4745 55.0229C21.0697 55.3974 17.7402 56.0894 17.7402 56.8384Z" fill="#45413C"></path><path d="M48.4288 20.1689L48.2472 24.7247L32.5676 9.0312C31.3019 7.69212 29.2323 7.51767 27.7603 8.62585C26.1521 9.92778 26.0285 12.3368 27.4948 13.7965L25.2728 11.5745C23.8657 10.1096 21.5656 9.98141 20.0044 11.281C18.4187 12.7116 18.355 15.1788 19.8647 16.6892L19.8367 16.6194C18.7372 15.4977 17.0294 15.2358 15.6443 15.9766C13.6412 17.118 13.2733 19.8524 14.9036 21.4825L19.096 25.6749C17.8169 24.3977 15.7153 24.5014 14.5683 25.8986C13.6109 27.1818 13.7545 28.9762 14.9036 30.0909L32.4139 47.7548C37.5759 52.9414 45.9827 52.9036 51.0979 47.6711C54.973 43.627 56.997 38.1568 56.6878 32.5645L56.1707 15.6132C56.1121 14.8236 55.4532 14.2136 54.6615 14.2158C51.3227 14.2052 48.5713 16.8332 48.4288 20.1689Z" fill="#FFCEBF"></path><path d="M48.2469 24.7247L32.5673 9.0312C31.3016 7.69212 29.2321 7.51767 27.76 8.62585C26.2737 9.83342 26.0484 12.0175 27.257 13.503C27.3989 13.3074 27.5683 13.1332 27.76 12.9859C29.2252 11.8706 31.2941 12.033 32.5673 13.3633L46.0668 26.8767L48.2469 24.7247Z" fill="#FFDCD1"></path><path d="M56.2962 19.9733L56.1704 15.6132C56.1118 14.8237 55.4529 14.2136 54.6611 14.2158C51.3122 14.2136 48.5629 16.864 48.4424 20.2109L48.2607 24.7666L48.4424 24.571C48.57 21.2273 51.3151 18.581 54.6611 18.5758C55.479 18.5672 56.1774 19.1641 56.2962 19.9733Z" fill="#FFDCD1"></path><path d="M48.4288 20.1689L48.2472 24.7247L32.5676 9.0312C31.3019 7.69212 29.2323 7.51767 27.7603 8.62585C26.1521 9.92778 26.0285 12.3368 27.4948 13.7965L25.2728 11.5745C23.8657 10.1096 21.5656 9.98141 20.0044 11.281C18.4187 12.7116 18.355 15.1788 19.8647 16.6892L19.8367 16.6194C18.7372 15.4977 17.0294 15.2358 15.6443 15.9766C13.6412 17.118 13.2733 19.8524 14.9036 21.4825L19.096 25.6749C17.8169 24.3977 15.7153 24.5014 14.5683 25.8986C13.6109 27.1818 13.7545 28.9762 14.9036 30.0909L32.4139 47.7548C37.5759 52.9414 45.9827 52.9036 51.0979 47.6711C54.973 43.627 56.997 38.1568 56.6878 32.5645L56.1707 15.6132C56.1121 14.8236 55.4532 14.2136 54.6615 14.2158C51.3227 14.2052 48.5713 16.8332 48.4288 20.1689Z" stroke="#45413C" stroke-width="0.38" stroke-linecap="round" stroke-linejoin="round"></path><path d="M18.9141 25.647L27.3827 34.1016" stroke="#45413C" stroke-width="0.38" stroke-linecap="round" stroke-linejoin="round"></path><path d="M19.8643 16.7031L32.3157 29.1544" stroke="#45413C" stroke-width="0.38" stroke-linecap="round" stroke-linejoin="round"></path><path d="M27.4951 13.8245L37.5708 23.9141" stroke="#45413C" stroke-width="0.38" stroke-linecap="round" stroke-linejoin="round"></path><path d="M48.247 24.7246L43.258 29.7135C39.9791 32.9888 39.9791 38.3028 43.258 41.578" stroke="#45413C" stroke-width="0.38" stroke-linecap="round" stroke-linejoin="round"></path><path d="M35.3623 5.49536C37.583 5.87451 39.6621 6.83936 41.3854 8.29027C43.0931 9.80675 44.3908 11.7293 45.1586 13.8801" stroke="#45413C" stroke-width="0.38" stroke-linecap="round" stroke-linejoin="round"></path><path d="M36.1592 1.76416C38.8958 2.20445 41.4636 3.37253 43.5937 5.146C45.706 7.00903 47.3077 9.38038 48.2473 12.0355" stroke="#45413C" stroke-width="0.38" stroke-linecap="round" stroke-linejoin="round"></path><path d="M8.16766 27.1282C7.94634 29.3631 8.32759 31.6166 9.27165 33.6543C10.2956 35.6928 11.8197 37.4381 13.7016 38.7272" stroke="#45413C" stroke-width="0.38" stroke-linecap="round" stroke-linejoin="round"></path><path d="M4.35256 26.9326C4.08622 29.6971 4.56896 32.4823 5.75008 34.9959C7.01547 37.5133 8.89461 39.6713 11.2142 41.2706" stroke="#45413C" stroke-width="0.38" stroke-linecap="round" stroke-linejoin="round"></path></svg>