<?xml version="1.0" encoding="UTF-8"?>
<svg xmlns="http://www.w3.org/2000/svg" viewBox="0 0 24 24" width="64" height="64" aria-hidden="true">
  <defs>
    <linearGradient id="g" x1="0%" y1="0%" x2="100%" y2="100%">
      <stop offset="0%" stop-color="#5AF04C"/>
      <stop offset="50%" stop-color="#2FD84A"/>
      <stop offset="100%" stop-color="#14B32A"/>
    </linearGradient>
    <filter id="s" x="-50%" y="-50%" width="200%" height="200%">
      <feGaussianBlur stdDeviation="1.2" result="b"/>
      <feBlend in="SourceGraphic" in2="b" mode="normal"/>
    </filter>
  </defs>

  <!-- Gradient circle background -->
  <circle cx="12" cy="12" r="12" fill="url(#g)"/>

  <!-- subtle inner highlight -->
  <circle cx="9.5" cy="8.5" r="5.8" fill="rgba(255,255,255,0.06)" />

  <!-- WhatsApp glyph (white) -->
  <path d="M20.52 3.48A11.88 11.88 0 0 0 12 0C5.373 0 0 5.373 0 12c0 2.116.55 4.18 1.59 6.018L0 24l6.332-1.64A11.94 11.94 0 0 0 12 24c6.627 0 12-5.373 12-12 0-1.94-.42-3.78-1.48-5.36z" fill="none"/>

  <path d="M17.472 14.382c-.297-.148-1.757-.867-2.029-.966-.271-.099-.468-.148-.665.149-.196.297-.758.966-.93 1.164-.17.199-.34.224-.637.076-.297-.148-1.255-.462-2.39-1.475- .884-.784-1.48-1.749-1.655-2.048-.174-.297-.019-.458.132-.606.136-.127.31-.331.465-.497.154-.166.2-.285.301-.484.1-.199.05-.371-.024-.517-.073-.145-.666-1.602-.913-2.197-.24-.596-.484-.515-.66-.525l-.564-.01c-.182 0-.468.068-.716.307-.247.239-.943.963-.943 2.344 0 1.38 1.07 3.002 1.22 3.233.15.231 2.087 3.177 5.054 4.472.706.31 1.29.488 1.745.625.73.231 1.372.203 1.906.113.58-.096 1.792-.714 2.048-1.386.255-.672.255-1.242.179-1.36-.076-.119-.281-.194-.605-.342z" fill="#fff"/>

</svg>
