<?xml version="1.0" encoding="UTF-8"?>
<svg xmlns="http://www.w3.org/2000/svg" viewBox="0 0 24 24" width="24" height="24" aria-hidden="true">
  <circle cx="12" cy="12" r="12" fill="#25D366"/>
  <path d="M17.1 14.6c-.3-.15-1.7-.85-1.95-.95-.25-.1-.42-.15-.6.15-.18.3-.7.95-.86 1.15-.16.2-.3.22-.6.07-.3-.15-1.26-.46-2.34-1.43-1-.9-1.67-2.02-1.84-2.32-.17-.3-.02-.46.13-.61.14-.13.32-.34.48-.52.16-.18.2-.3.3-.5.1-.2.05-.37-.02-.52-.07-.15-.66-1.6-.9-2.2-.24-.6-.48-.55-.66-.56l-.58-.01c-.18 0-.51.07-.78.36-.27.28-1.03 1.01-1.03 2.47 0 1.45 1.05 3.04 1.2 3.25.16.21 2.1 3.18 5.04 4.47.7.3 1.28.47 1.7.62.71.23 1.35.2 1.87.12.57-.08 1.76-.72 2.01-1.4.25-.68.25-1.28.17-1.4-.07-.13-.26-.2-.56-.35z" fill="#ffffff"/>
</svg>
